<svg xmlns="http://www.w3.org/2000/svg" height="542.693" width="898.56"><path d="M776.697 538.28c-32.162-19.699-41.578-59.297-42.528-95.345-.16-6.016-1.201-12.308 1.338-17.75 2.54-5.439 8.986-9.442 14.516-7.237 4.585 1.83 6.841 6.9 9.596 11.04 3.664 5.507 8.894 9.933 14.896 12.601 3.944 1.754 8.746 2.68 12.396.373 5.006-3.171 5.185-10.365 4.788-16.335l-2.224-33.38c-.398-5.971-.783-12.068.732-17.848 1.516-5.78 5.304-11.295 10.888-13.23 5.586-1.933 12.808.919 14.362 6.692.646 2.403.303 4.959.619 7.427.315 2.47 1.635 5.144 4.032 5.692 2.425.556 4.713-1.281 6.393-3.137 5.8-6.403 9.515-14.423 12.959-22.386 3.443-7.961 6.76-16.098 11.955-23.013 5.197-6.915 12.62-12.595 21.144-13.595s17.956 3.73 20.625 11.995c2.673 8.29-1.721 17.13-6.657 24.267a133.513 133.513 0 01-26.16 28.134c-1.802 1.45-3.755 3.016-4.342 5.272-1.057 4.06 2.955 7.787 6.966 8.859 2.989.799 6.093.745 9.204.692 1.613-.028 3.228-.056 4.828.035 4.69.268 9.86 2.017 11.886 6.313 2.816 5.956-1.904 12.663-6.673 17.156-9.553 9-20.64 16.323-32.623 21.55-4.296 1.873-8.834 3.563-12.192 6.863-3.356 3.302-5.17 8.798-2.777 12.875 2.397 4.083 7.972 5.097 12.523 3.964 4.549-1.128 8.518-3.878 12.802-5.796 8.022-3.593 18.656-3.666 24.34 3.11 3.738 4.454 4.434 10.927 3.022 16.591-1.412 5.663-4.667 10.664-8.164 15.307-12.223 16.227-28.315 29.67-46.956 37.42-18.64 7.75-36.175 10.601-55.514 4.824" fill="#f3f2f1"/><path d="M784.623 515.167c4.198-18.474 10.481-38.343 17.766-58.9l5.45-15.2c1.8-4.983 3.585-9.927 5.629-14.654 4.05-9.474 8.664-18.273 13.307-26.489 4.638-8.221 9.342-15.853 13.79-22.957 4.466-7.098 8.754-13.636 12.915-19.426 8.29-11.62 16.072-20.181 21.652-25.841a194.18 194.18 0 016.553-6.397l1.752-1.61c.4-.357.61-.534.623-.52.015.015-.17.218-.544.603l-1.679 1.688a315.396 315.396 0 00-6.4 6.539A224.888 224.888 0 00854.112 358c-4.11 5.804-8.35 12.35-12.775 19.459-4.413 7.121-9.08 14.759-13.685 22.972-4.604 8.21-9.181 16.99-13.193 26.416-2.027 4.703-3.791 9.605-5.594 14.603-1.789 4.994-3.602 10.064-5.441 15.193-7.279 20.54-13.573 40.35-17.816 58.757" fill="#dadbd8"/><path d="M813.78 426.352c-.073.016-.33-.878-.737-2.513-.414-1.632-.934-4.01-1.531-6.96-1.205-5.895-2.59-14.094-4.08-23.138-1.492-9.05-2.988-17.205-4.277-23.066a334.898 334.898 0 00-1.571-6.932c-.384-1.636-.563-2.551-.49-2.574.074-.02.39.855.903 2.459.52 1.6 1.178 3.948 1.911 6.867 1.49 5.836 3.115 14.002 4.608 23.061l3.76 23.179c.468 2.785.867 5.133 1.185 7.017.275 1.657.394 2.583.319 2.6" fill="#dadbd8"/><path d="M889.7 407.368c.007.075-1.077.268-3.04.55-1.96.294-4.797.705-8.287 1.325-6.986 1.184-16.581 3.156-27.072 5.797-10.489 2.66-19.878 5.47-26.61 7.699-3.376 1.09-6.083 2.046-7.958 2.696-1.874.658-2.924.988-2.953.917-.028-.073.97-.537 2.8-1.323a146.78 146.78 0 017.861-3.037c6.687-2.427 16.075-5.365 26.594-8.035 10.521-2.645 20.177-4.505 27.217-5.492 3.516-.522 6.38-.814 8.361-.977 1.982-.15 3.079-.199 3.087-.12M785.481 513.699c-.033.016-.233-.295-.582-.906-.4-.73-.888-1.621-1.482-2.698-1.276-2.35-3.032-5.798-5.146-10.086-4.236-8.573-9.714-20.598-15.579-33.95-5.87-13.358-11.227-25.418-15.279-34.068l-4.826-10.23-1.298-2.792c-.285-.644-.421-.99-.386-1.009.034-.016.232.296.584.907l1.48 2.697c1.276 2.35 3.032 5.796 5.148 10.084 4.234 8.572 9.712 20.6 15.58 33.956 5.868 13.354 11.225 25.413 15.274 34.064 1.987 4.202 3.616 7.661 4.83 10.23.518 1.115.945 2.037 1.297 2.791.285.644.42.99.385 1.01" fill="#dadbd8"/><path d="M885.533 474.653c.014.038-.328.202-.986.479l-2.904 1.173-10.712 4.199c-9.046 3.55-21.482 8.593-35.216 14.188-13.739 5.596-26.235 10.53-35.356 13.893-4.56 1.682-8.263 3.007-10.84 3.868-1.192.39-2.175.712-2.975.978-.684.212-1.05.304-1.063.268-.012-.037.33-.202.987-.482.78-.313 1.74-.7 2.904-1.17 2.684-1.052 6.305-2.47 10.71-4.2 9.047-3.547 21.486-8.594 35.223-14.189 13.735-5.594 26.228-10.529 35.35-13.891 4.56-1.682 8.262-3.005 10.842-3.868 1.192-.392 2.174-.715 2.974-.976.684-.214 1.05-.306 1.062-.27" fill="#dadbd8"/><path d="M792.663 128.864c-5.484 13.732-14.267 35.932-18.299 46.13a5.864 5.864 0 003.287 7.605l37.517 14.942a5.87 5.87 0 007.623-3.278l18.202-45.704c2.662-6.684-.598-14.259-7.281-16.92l2.677-6.723-24.569-9.785-2.53 6.356-.093-.034c-6.609-2.396-13.926.882-16.534 7.411" fill="#f3f2f1"/><path d="M811.48 115.985l-1.219 3.058 24.222 10.657 1.565-3.93-24.568-9.785" fill="#dadbd8"/><path d="M835.797 127.947L810.27 117.78a2.573 2.573 0 01-1.438-3.345l2.428-6.099a3.988 3.988 0 015.181-2.23l22.901 9.122a3.988 3.988 0 012.231 5.18l-2.43 6.1a2.574 2.574 0 01-3.345 1.439" fill="#e7e8e5"/><path d="M811.739 118.419c-.179-.071.76-2.847 2.094-6.2 1.336-3.352 2.563-6.014 2.742-5.942.176.071-.762 2.846-2.098 6.199-1.334 3.352-2.561 6.013-2.738 5.943M814.975 119.708c-.176-.07.761-2.847 2.097-6.199 1.335-3.354 2.56-6.013 2.739-5.942.178.07-.759 2.845-2.095 6.2-1.335 3.352-2.563 6.012-2.741 5.941M818.213 120.997c-.178-.07.76-2.846 2.095-6.198 1.336-3.354 2.563-6.014 2.741-5.943.179.07-.76 2.847-2.096 6.2-1.334 3.352-2.561 6.012-2.74 5.941M821.45 122.287c-.177-.071.76-2.847 2.097-6.199 1.334-3.353 2.562-6.013 2.74-5.943.178.072-.76 2.846-2.096 6.2-1.335 3.352-2.562 6.012-2.74 5.942M824.688 123.576c-.177-.07.761-2.847 2.096-6.199 1.336-3.353 2.563-6.013 2.74-5.942.179.072-.76 2.846-2.095 6.2-1.336 3.352-2.562 6.013-2.741 5.941M827.927 124.867c-.179-.071.76-2.847 2.094-6.2 1.335-3.354 2.563-6.014 2.74-5.943.179.072-.758 2.847-2.094 6.2-1.335 3.352-2.563 6.013-2.74 5.943M831.164 126.155c-.179-.071.76-2.846 2.095-6.198 1.336-3.354 2.562-6.014 2.741-5.942.179.07-.759 2.845-2.095 6.198-1.336 3.354-2.562 6.014-2.741 5.942M834.403 127.445c-.179-.07.758-2.846 2.094-6.198 1.336-3.354 2.563-6.014 2.742-5.943.176.07-.762 2.845-2.098 6.199-1.334 3.352-2.561 6.013-2.738 5.942" fill="#dadbd8"/><path d="M820.981 174.79l-31.529-12.557a1.977 1.977 0 01-1.104-2.569l7.81-19.612a1.978 1.978 0 012.569-1.105l31.529 12.558a1.977 1.977 0 011.105 2.568l-7.81 19.612a1.978 1.978 0 01-2.57 1.106" fill="#e7e8e5"/><path d="M821.096 172.984c-.005-.012.037-.148.128-.4l.404-1.097 1.56-4.111c1.385-3.568 3.333-8.596 5.703-14.707l.153.359-30.88-12.223c-.1.04.852-.368.448-.192l-.003.006-.004.009-.009.021-.016.043-.033.084-.068.168-.134.336-.268.67-.532 1.337-1.053 2.641c-.697 1.748-1.385 3.47-2.061 5.16l-3.895 9.724-.179-.413c8.976 3.642 16.616 6.744 22.084 8.964 2.675 1.104 4.815 1.986 6.352 2.622l1.702.719c.389.17.594.264.601.28.008.017-.185-.047-.561-.183l-1.671-.624-6.348-2.436-22.395-8.75-.296-.116.118-.299 3.856-9.739 2.052-5.164 1.052-2.644.53-1.334.267-.672.135-.336.066-.168.034-.084.017-.042.008-.021.005-.01v-.006c-.401.17.552-.24.455-.196l30.828 12.355.26.104-.104.254c-2.508 6.134-4.57 11.178-6.036 14.759-.701 1.685-1.26 3.023-1.67 4.003l-.44 1.025c-.102.227-.157.337-.162.324" fill="#dadbd8"/><path d="M821.767 157.41c-.072.18-4.823-1.546-10.612-3.851-5.792-2.307-10.428-4.322-10.356-4.499.069-.179 4.821 1.547 10.612 3.853 5.789 2.306 10.426 4.32 10.356 4.498M820.348 160.976c-.072.177-4.824-1.547-10.613-3.853-5.792-2.307-10.428-4.32-10.358-4.498.072-.178 4.823 1.547 10.615 3.854 5.79 2.305 10.425 4.318 10.356 4.497M818.983 164.401c-.072.178-4.823-1.548-10.612-3.853-5.792-2.307-10.428-4.32-10.356-4.499.069-.177 4.821 1.547 10.613 3.854 5.788 2.305 10.425 4.32 10.355 4.498M832.392 130.867c-.07.178-5.252-1.719-11.57-4.235-6.322-2.517-11.387-4.703-11.315-4.88.069-.177 5.25 1.717 11.57 4.235 6.32 2.517 11.387 4.702 11.315 4.88" fill="#dadbd8"/><path d="M777.444 173.153c-.044-.017.223-.804.743-2.209.574-1.508 1.338-3.51 2.264-5.93a1853.224 1853.224 0 017.71-19.473l4.326-10.69c1.324-3.283 2.864-6.218 4.87-8.107 1.984-1.904 4.164-2.72 5.667-2.893a7.17 7.17 0 011.747-.006c.394.068.596.118.592.142-.006.073-.839-.122-2.296.13-1.442.25-3.503 1.104-5.366 2.978-1.882 1.857-3.337 4.718-4.622 7.998-1.318 3.302-2.759 6.915-4.274 10.707a1858.847 1858.847 0 01-7.9 19.396l-2.468 5.848c-.597 1.376-.949 2.128-.993 2.11M819.604 197.285c-.032.034-.559-.394-1.476-1.194a31.473 31.473 0 00-1.697-1.428c-.678-.536-1.419-1.183-2.308-1.81-1.728-1.318-3.883-2.754-6.358-4.209a69.477 69.477 0 00-8.388-4.079 69.463 69.463 0 00-8.897-2.804c-2.796-.644-5.35-1.081-7.51-1.312-1.077-.156-2.06-.197-2.922-.272a31.436 31.436 0 00-2.212-.13c-1.217-.05-1.893-.1-1.893-.147-.002-.05.673-.09 1.896-.124a23.828 23.828 0 012.23.013c.868.039 1.86.046 2.95.172 2.185.168 4.772.56 7.606 1.176a64.617 64.617 0 019.01 2.783 64.53 64.53 0 018.454 4.172c2.483 1.501 4.63 2.993 6.332 4.373.878.658 1.604 1.335 2.263 1.903a23.21 23.21 0 011.627 1.524c.866.865 1.326 1.359 1.293 1.393" fill="#fff"/><path d="M189.728 336.896L86.482 386.595a3.21 3.21 0 01-4.286-1.502L12.89 241.107a3.213 3.213 0 011.5-4.287l103.247-49.696a3.21 3.21 0 014.286 1.5l69.307 143.987a3.21 3.21 0 01-1.501 4.285" fill="#dadbd8"/><path d="M183.083 331.265l-96.856 46.622L19.12 238.473l96.857-46.621 67.106 139.413" fill="#fafaf9"/><path d="M65.753 208.756a4.87 4.87 0 11-4.224-8.779 4.87 4.87 0 014.224 8.779zm22.506-.961a13.174 13.174 0 00-13.777-1.439l-2.969-5.892a9.048 9.048 0 00-12.077-4.228c-4.502 2.167-6.395 7.575-4.228 12.076l2.977 6.187-2.062 1.034a13.172 13.172 0 00-7.266 11.599l-.04 3.065L90.984 209.9l-2.726-2.105" fill="#e7e8e5"/><path d="M64.527 240.945c.082.174-5.73 3.144-12.98 6.634-7.255 3.492-13.2 6.181-13.283 6.008-.084-.172 5.727-3.142 12.981-6.634 7.25-3.49 13.198-6.18 13.282-6.008M53.053 251.925c.083.172-2.683 1.676-6.178 3.359s-6.396 2.905-6.48 2.733c-.082-.173 2.683-1.676 6.179-3.36 3.495-1.681 6.395-2.905 6.479-2.732M120.694 234.565c.083.172-16.213 8.19-36.394 17.903-20.187 9.717-36.615 17.453-36.698 17.28-.084-.173 16.209-8.188 36.397-17.905 20.181-9.714 36.612-17.451 36.695-17.278M124.05 241.536c.082.172-16.214 8.19-36.395 17.903-20.188 9.717-36.615 17.452-36.699 17.278-.083-.173 16.21-8.186 36.398-17.904 20.18-9.714 36.612-17.45 36.695-17.277M127.404 248.505c.083.174-16.213 8.19-36.394 17.903-20.188 9.717-36.616 17.453-36.7 17.28-.081-.173 16.21-8.188 36.399-17.905 20.181-9.714 36.612-17.451 36.695-17.278M130.759 255.475c.083.173-16.213 8.189-36.394 17.904-20.188 9.717-36.616 17.452-36.698 17.278-.084-.172 16.209-8.186 36.397-17.904 20.18-9.714 36.611-17.45 36.695-17.278M134.113 262.445c.084.172-16.212 8.19-36.393 17.903-20.188 9.717-36.615 17.453-36.699 17.28-.083-.173 16.21-8.188 36.398-17.905 20.18-9.714 36.612-17.451 36.694-17.278M137.47 269.415c.082.173-16.214 8.189-36.395 17.904-20.188 9.717-36.616 17.452-36.699 17.278-.083-.172 16.21-8.186 36.398-17.904 20.18-9.714 36.611-17.452 36.695-17.278M103.948 293.29c.02.043-.47.331-1.378.814l-3.868 1.985a886.785 886.785 0 01-12.876 6.31 897.945 897.945 0 01-12.966 6.129l-3.964 1.785c-.943.407-1.474.614-1.494.568-.021-.042.47-.329 1.377-.812 1.042-.534 2.336-1.197 3.868-1.984 3.279-1.649 7.83-3.881 12.878-6.312a886.882 886.882 0 0112.964-6.126c1.57-.708 2.896-1.306 3.964-1.786.943-.408 1.474-.613 1.495-.57M115.482 215.639c.083.173-2.471 1.574-5.703 3.13-3.234 1.556-5.922 2.679-6.005 2.506-.083-.174 2.47-1.575 5.704-3.131 3.232-1.556 5.92-2.677 6.004-2.505M94.646 316.476c.084.173-4.1 2.357-9.341 4.881-5.244 2.523-9.56 4.43-9.644 4.256-.083-.173 4.1-2.357 9.343-4.881 5.241-2.524 9.56-4.43 9.642-4.256M98.325 322.499c.084.173-4.17 2.393-9.5 4.958-5.33 2.566-9.718 4.506-9.801 4.332-.083-.172 4.17-2.392 9.5-4.958 5.33-2.566 9.718-4.506 9.801-4.332M149.247 289.025c.082.172-1.904 1.3-4.438 2.52s-4.656 2.07-4.738 1.896c-.084-.173 1.902-1.301 4.437-2.52 2.533-1.22 4.655-2.069 4.739-1.896M152.304 294.568c.083.173-1.903 1.303-4.437 2.521-2.535 1.22-4.655 2.068-4.739 1.896-.083-.173 1.904-1.301 4.437-2.521 2.535-1.22 4.656-2.07 4.739-1.896M92.664 333.408c.083.173-1.833 1.268-4.279 2.445-2.447 1.179-4.498 1.992-4.58 1.82-.084-.173 1.831-1.268 4.279-2.445 2.446-1.179 4.497-1.992 4.58-1.82M155.819 301.06c.084.173-1.336 1.03-3.171 1.913-1.836.883-3.39 1.458-3.473 1.287-.084-.173 1.336-1.03 3.172-1.913 1.834-.883 3.389-1.46 3.472-1.287M90.443 352.96c-.009-.013.117-.11.368-.283l1.124-.748 4.31-2.764 15.479-9.718.304-.191.132.336c.7 1.781.824 3.893.17 5.873-.61 1.972-2.132 3.842-4.261 4.619-2.075.776-4.642.673-6.597-.744-1.987-1.405-2.805-4.117-2.208-6.493.224-.892.651-1.739 1.274-2.419.15-.177.32-.333.5-.477.173-.148.348-.299.606-.414.237-.121.644-.16.93.031.28.177.414.413.528.612a11.784 11.784 0 011.357 4.933 11.77 11.77 0 01-.762 4.876c-.574 1.504-1.477 2.943-2.868 3.8-1.396.898-3.247.715-4.503-.1a6.434 6.434 0 01-2.672-3.346c-.87-2.695-.323-5.302.042-7.526l.084-.508.34.383c1.591 1.785 2.328 3.901 2.54 5.747a11.08 11.08 0 01-.445 4.728 9.852 9.852 0 01-1.34 2.684c-.203.277-.384.469-.496.602-.116.132-.18.196-.19.188-.092-.052 1.023-1.085 1.767-3.553.342-1.223.58-2.805.318-4.6-.24-1.779-.987-3.793-2.516-5.463l.424-.126c-.34 2.228-.817 4.773.017 7.256a5.86 5.86 0 002.442 3.01c1.141.711 2.662.844 3.857.076 1.2-.742 2.048-2.064 2.58-3.488.55-1.43.79-3.012.701-4.602a11.131 11.131 0 00-1.283-4.638c-.089-.166-.193-.305-.28-.353-.08-.045-.148-.05-.292.01-.272.142-.624.438-.873.725a4.926 4.926 0 00-1.114 2.12c-.533 2.129.207 4.55 1.94 5.769 1.717 1.259 4.068 1.376 5.955.672 1.926-.695 3.309-2.363 3.89-4.19a8.135 8.135 0 00-.12-5.454l.437.144-15.609 9.508c-1.847 1.1-3.322 1.98-4.398 2.623l-1.172.67c-.267.147-.409.218-.417.203M159.673 319.345c.03.008-.013.45-.222 1.252a5.132 5.132 0 01-.604 1.414c-.331.516-.882 1.045-1.674 1.274a2.072 2.072 0 01-1.298-.042c-.439-.163-.815-.491-1.108-.866-.579-.769-.974-1.644-1.495-2.542-1.005-1.835-2.117-3.864-3.315-6.047l.608-.141-.348 9.889c-.03.832-.062 1.656-.093 2.464l-.053 1.38-.603-1.24-5.008-10.295.553-.053a35.514 35.514 0 00-1.269 9.301c-.003 2.275.156 3.572.079 3.582-.03.004-.102-.316-.192-.923a26.612 26.612 0 01-.232-2.655 32.646 32.646 0 011.041-9.46l.199-.765.354.712 5.095 10.25-.655.14.091-2.465.395-9.886.048-1.199.56 1.057 3.224 6.096c.496.903.897 1.823 1.392 2.511.488.708 1.25 1.01 1.932.815 1.408-.376 1.908-1.66 2.174-2.37.27-.766.383-1.198.424-1.188" fill="#dadbd8"/><path d="M159.53 314.352c.106.159-5.395 4.088-12.289 8.777-6.897 4.69-12.573 8.363-12.681 8.204-.108-.158 5.393-4.088 12.29-8.778 6.894-4.688 12.571-8.362 12.68-8.203M166.29 315.52c.126.145-3.909 3.819-9.01 8.204-5.103 4.385-9.34 7.823-9.464 7.677-.125-.145 3.908-3.817 9.01-8.204 5.102-4.384 9.34-7.822 9.465-7.677" fill="#dadbd8"/><path d="M215.068 28.272h-5.61l-12.246-17.065V.007s-8.672-.534-7.652 14.132c1.021 14.666-.084 10.932-.084 10.932s-18.415.07-19.945 1.67c-1.114 1.163-1.616 19.455-1.808 29.376-.096 4.995 2.965 9.639 7.61 10.819.66.17 1.327.267 1.983.267 4.593 0 28.06-3.734 28.06-3.734h9.692V28.272M231.132 25.197l-3.452 38.378h-9.61V25.969l13.062-.772" fill="#f3f2f1"/><path d="M647.897 31.672c-1.448-11.676-11.326-22.563-23.092-22.57-6.949-.003-13.557 3.629-18.304 8.703-2.078 2.219-3.5 3.838-4.642 5.504-.79-1.858-1.866-3.725-3.466-6.31-3.656-5.91-9.42-10.771-16.234-12.135-11.535-2.31-23.363 6.421-27.083 17.583-3.717 11.162-.621 23.694 5.493 33.746 6.116 10.051 16.646 23.191 36.043 29.712 13.373-1.714 31.285-13.577 39.257-22.229 7.975-8.65 13.478-20.328 12.028-32.004" fill="#f03d5f"/><path d="M643.656 52.643c-.001.013-.133.014-.39.002-.3-.018-.675-.044-1.134-.073l-4.355-.357-16.002-1.466.288-.177-6.667 17.381-.401 1.047-.263-1.092-6.707-27.843-2.17-9.078.676.134-12.214 16.794-.117.161-.196-.021c-11.5-1.2-21.208-2.212-28.115-2.934-3.368-.376-6.048-.676-7.958-.888l-2.103-.264c-.476-.064-.723-.108-.72-.126.001-.02.25-.014.73.016l2.115.156 7.976.696 28.144 2.657-.314.141 12.156-16.834.486-.671.192.805 2.179 9.078c2.373 9.964 4.628 19.42 6.637 27.858l-.665-.045c2.527-6.44 4.832-12.315 6.797-17.33l.079-.2.21.023c6.697.718 12.138 1.302 15.978 1.712l4.34.507 1.127.152c.253.039.382.065.381.079" fill="#fafaf9"/><path d="M358.397 144.028h-8.804v-39.453h8.804v39.453" fill="#f03d5f"/><path d="M373.721 119.9v8.803H334.27V119.9h39.452" fill="#f03d5f"/><path d="M386.761 124.396c-.012 0-.033-.18-.062-.532l-.114-1.56-.074-1.148c-.047-.42-.139-.875-.215-1.37-.16-.99-.312-2.138-.695-3.386-.585-2.535-1.778-5.528-3.656-8.697a32.618 32.618 0 00-8.321-9.251c-3.695-2.77-8.355-5.127-13.732-6.076-5.341-.916-11.37-.748-17.11 1.433-1.46.47-2.833 1.192-4.245 1.87-1.337.809-2.746 1.554-3.99 2.566-1.324.908-2.48 2.046-3.692 3.14-1.094 1.212-2.244 2.399-3.188 3.774-1.936 2.69-3.628 5.68-4.651 8.965a34.792 34.792 0 00-1.679 10.267 34.774 34.774 0 001.678 10.27c1.021 3.288 2.713 6.278 4.649 8.968.944 1.376 2.095 2.563 3.19 3.775 1.211 1.096 2.367 2.232 3.691 3.141 1.246 1.014 2.654 1.759 3.991 2.568 1.412.678 2.787 1.4 4.247 1.868 5.741 2.183 11.769 2.351 17.11 1.435 5.378-.95 10.039-3.307 13.732-6.077a32.633 32.633 0 008.322-9.251c1.876-3.17 3.069-6.163 3.654-8.696.383-1.25.535-2.396.696-3.387.075-.496.168-.95.214-1.37l.074-1.148.114-1.559c.029-.352.05-.532.062-.532.012 0 .015.18.01.533l-.046 1.567-.041 1.155c-.036.424-.117.884-.183 1.384-.14.998-.273 2.158-.637 3.422-.55 2.564-1.717 5.603-3.584 8.83a32.808 32.808 0 01-8.357 9.442c-3.73 2.838-8.455 5.259-13.924 6.252-5.431.959-11.572.81-17.435-1.398-1.49-.475-2.893-1.207-4.336-1.895-1.367-.82-2.804-1.58-4.077-2.61-1.351-.925-2.536-2.082-3.774-3.198-1.12-1.233-2.294-2.445-3.261-3.847-1.981-2.744-3.71-5.797-4.757-9.154a35.389 35.389 0 01-1.716-10.488c.046-3.604.632-7.15 1.717-10.484 1.05-3.356 2.777-6.408 4.759-9.151.965-1.403 2.141-2.613 3.261-3.847 1.237-1.116 2.42-2.272 3.772-3.197 1.272-1.028 2.71-1.788 4.077-2.608 1.442-.69 2.846-1.42 4.335-1.896 5.863-2.207 12.003-2.355 17.433-1.399 5.468.992 10.194 3.415 13.924 6.252a32.787 32.787 0 018.358 9.442c1.868 3.228 3.034 6.265 3.585 8.83.364 1.264.497 2.424.636 3.424.067.5.148.959.184 1.383.015.423.03.807.041 1.156l.046 1.567c.005.353.002.533-.01.533M792.812 396.112s39.021-9.301 40.308-10.944l-32.09-82.65c-4.485-11.547-12.046-21.783-22.24-28.825a61.65 61.65 0 00-15.185-7.652c-20.854-7.092-37.901-5.853-37.901-5.853l-54.173-2.873c-16.82.985-31.214 5.922-42.738 11.829-18.262 9.357-32.344 25.239-40.128 44.225l-24.286 60.688 61.274 12.814 2.328 65.196-9.24 89.962h169.211l-1.181-142.596 6.041-3.321" fill="#f03d5f"/><path d="M781.052 388.467c-.019 0-.028-.003-.03-.008-.058-.184 10.063-3.484 22.61-7.374 12.177-3.776 22.16-6.718 22.784-6.718.019 0 .028.001.03.008.057.182-10.066 3.484-22.609 7.373-12.181 3.776-22.162 6.719-22.785 6.719" fill="#f46789"/><path d="M649.417 316.264c-.041.025-.409-.483-1.041-1.419-.619-.944-1.568-2.276-2.792-3.874-1.216-1.607-2.77-3.436-4.593-5.375a71.893 71.893 0 00-6.358-5.867 72.299 72.299 0 00-7.074-4.977c-2.28-1.373-4.396-2.507-6.224-3.357-1.82-.859-3.323-1.506-4.375-1.911-1.05-.42-1.624-.673-1.608-.72.013-.045.617.123 1.7.465 1.085.33 2.625.911 4.487 1.719 1.868.8 4.029 1.899 6.349 3.256a65.883 65.883 0 017.183 4.987 66.139 66.139 0 016.386 5.965c1.815 1.984 3.346 3.864 4.52 5.52 1.184 1.65 2.076 3.033 2.628 4.025.563.986.855 1.54.812 1.563M641.425 335.992c.191.02-1.698 19.928-4.22 44.459-2.521 24.54-4.72 44.413-4.909 44.393-.192-.02 1.697-19.923 4.22-44.464 2.52-24.532 4.72-44.407 4.91-44.388M774.639 299.1c-.108.013-.347-1.55-.872-4.039a73.955 73.955 0 00-2.691-9.549 74.049 74.049 0 00-3.992-9.083c-1.176-2.256-1.985-3.613-1.895-3.672.042-.026.288.284.702.87.417.584.974 1.458 1.624 2.565 1.297 2.21 2.889 5.396 4.216 9.085 1.32 3.694 2.117 7.163 2.518 9.695.204 1.265.328 2.295.378 3.012.053.715.061 1.112.012 1.116M778.028 368.707c-.048.004-.161-.692-.328-1.956a162.501 162.501 0 01-.592-5.368c-.441-4.538-.904-10.823-1.15-17.778-.242-6.954-.222-13.258-.1-17.816.06-2.278.134-4.122.214-5.396.076-1.272.141-1.974.19-1.973.046.003.074.707.08 1.981l.007 5.394c.003 4.553.06 10.844.303 17.786.247 6.942.63 13.219.945 17.762a7956 7956 0 01.372 5.381c.084 1.27.107 1.977.059 1.983" fill="#17282f"/><path d="M696.112 357.065c-14.219.827-28.5.56-42.677-.797v5.544h42.677v-4.747" fill="#fff"/><path d="M741.44 310.857l-.461-.224c-8.508-4.137-18.051-8.646-27.976-13.606l-48.492-24.268-14.658-7.424c-1.689-.874-3.017-1.559-3.968-2.05l-1.025-.549c-.228-.127-.341-.197-.337-.207l.005-.001c.024 0 .148.05.367.147l1.056.486 4.029 1.935c3.53 1.73 8.561 4.193 14.76 7.228l48.579 24.084c9.746 4.872 19.102 9.32 27.473 13.427-.148-13.206-.612-24.403-1.133-32.311-.252-4.007-.564-7.167-.771-9.328-.116-1.043-.205-1.863-.273-2.468-.058-.561-.079-.853-.062-.856.019 0 .075.287.166.84l.37 2.46c.271 2.157.646 5.316.951 9.324.64 8.013 1.197 19.401 1.392 32.848l.008.513" fill="#f46789"/><path d="M568.559 363.61c-.084-.027-.127-.046-.124-.057.001-.005.016-.008.042-.008.024 0 .06.003.106.007l-.024.059" fill="#fff"/><path d="M636.55 380.052c-.118-.019-.31-.057-.573-.116l-1.99-.477-7.294-1.854a1883.959 1883.959 0 00-24.081-6.012 1889.62 1889.62 0 00-24.17-5.657l-7.335-1.683-1.988-.485a9.82 9.82 0 01-.56-.157l.024-.059c.118.012.308.039.564.08l2.016.356c1.746.323 4.27.824 7.382 1.468 6.224 1.29 14.8 3.184 24.231 5.463 9.425 2.281 17.919 4.513 24.044 6.212 3.063.849 5.536 1.556 7.239 2.068.788.242 1.433.442 1.956.604.248.08.429.144.541.188l-.007.061" fill="#f46789"/><path d="M636.659 380.064a.793.793 0 01-.11-.012l.007-.061c.088.034.13.057.128.066 0 .004-.01.007-.025.007" fill="#57666b"/><path d="M731.105 254.783c.063-.198 3.663 1.729 7.203 6.958 3.479 5.218 6.74 13.315 8.576 22.63.908 4.66 1.359 9.166 1.556 13.268.028 2.053.088 4.005.025 5.828-.098 1.821-.118 3.521-.28 5.065l-.448 4.159c-.169 1.218-.377 2.26-.526 3.112-.316 1.702-.536 2.632-.631 2.617-.095-.016-.056-.976.095-2.69l.29-3.122.24-4.139c.098-1.532.062-3.216.11-5.017.012-1.803-.091-3.73-.154-5.752-.264-4.044-.748-8.475-1.64-13.061-1.801-9.158-4.873-17.175-8.036-22.363a31.226 31.226 0 00-4.446-5.655c-1.206-1.206-1.992-1.746-1.934-1.838M670.487 255.163c.13.117-.988 1.486-2.818 4.054-1.833 2.568-4.194 6.504-6.277 11.723-2.12 5.208-3.672 11.77-4.661 19.161-.972 7.396-1.387 15.662-1.93 24.307-.448 8.633-.47 16.896-.482 24.41l-.01 19.986c-.042 5.693-.145 10.303-.316 13.487-.161 3.184-.352 4.938-.489 4.934-.15-.004-.233-1.764-.32-4.944-.084-3.238-.203-7.824-.347-13.462-.144-5.687-.334-12.458-.437-19.988-.095-7.53-.132-15.82.321-24.535.544-8.676 1.018-16.945 2.108-24.46 1.11-7.493 2.851-14.19 5.2-19.459 2.315-5.282 4.932-9.192 6.992-11.648 2.06-2.46 3.386-3.645 3.466-3.566" fill="#17282f"/><path d="M760.128 366.624c-.097 0-.185-1.568-.264-4.404a787.539 787.539 0 01-.2-12.01c-.023-2.54-.045-5.315-.07-8.291-.055-2.975.054-6.19-.18-9.464-.249-3.247-1.091-6.7-3.402-9.312-2.259-2.626-5.725-4.402-9.401-4.446-3.682-.066-7.219 1.503-9.823 3.811-2.657 2.303-4.139 5.5-4.967 8.652-.824 3.172-1.173 6.36-1.668 9.299l-1.297 8.192c-.804 5.004-1.479 9.053-1.976 11.844-.497 2.793-.817 4.33-.912 4.317-.095-.015.045-1.579.377-4.395a771.43 771.43 0 011.539-11.912l1.13-8.214c.447-2.946.743-6.119 1.569-9.454.822-3.29 2.4-6.806 5.298-9.345 2.818-2.517 6.654-4.25 10.754-4.183 4.097.051 7.932 2.035 10.405 4.943 2.57 2.94 3.43 6.739 3.65 10.105.206 3.416.05 6.579.054 9.564l-.099 8.291c-.07 5.07-.152 9.173-.24 12.008-.088 2.836-.181 4.404-.277 4.404" fill="#17282f"/><path d="M747.263 305.659c-.432 4.67-1.931 9.906-5.172 13.298a18.706 18.706 0 018.604.166c-2.022-4.051-2.347-8.936-2.288-13.464M760.177 335.992c-.254.045-.404-2.236-2.116-5.29a16.401 16.401 0 00-3.873-4.634c-1.739-1.461-4.01-2.655-6.561-3.124-2.56-.435-5.1-.073-7.223.721a15.855 15.855 0 00-5.163 3.12c-2.594 2.347-3.438 4.479-3.666 4.355-.122-.015.401-2.36 2.985-5.063 1.276-1.336 3.088-2.681 5.383-3.605 2.277-.93 5.073-1.381 7.924-.896 2.841.521 5.318 1.883 7.152 3.519a15.911 15.911 0 013.913 5.154c1.588 3.379 1.367 5.766 1.245 5.743" fill="#17282f"/><path d="M795.856 487.039c7.941-.028 15.035-5.722 18.776-12.726 3.74-7.005 4.683-15.143 5.055-23.074a187.427 187.427 0 00-7.635-62.271l-34.8 6.076 9.479 93.716 9.125-1.721" fill="#f8a58d"/><path d="M655.108 498.71l113.3-4.129 27.48-132.769-119.336 6.63-21.444 130.267" fill="#17282f"/><path d="M713.43 366.161l1.706-3.385 9.043-.664s2.294-5.93 15.217-6.536c11.583-.544 12.056 5.283 12.056 5.283h6.245v2.844l-44.268 2.458" fill="#33535f"/><path d="M776.601 455.925l8.588-2.504a10.497 10.497 0 0110.303 2.595c2.845 2.801 7.425 7.428 8.08 8.805.956 2.02.959 5.51 0 6.795-.961 1.285 2.108 7.896 1.724 10.099-.384 2.204-.956 4.408-1.724 5.326-.77.917-.001 4.058-1.92 6.436-1.917 2.378-3.644 3.846-3.644 3.846s-23.59 1.102-25.89 0c-2.303-1.102-6.33-5.326-6.33-5.326s-2.11-3.854 1.15-4.222l-13.427-5.142c-1.611-.617-2.571-2.417-1.948-4.026.214-.555.58-1.037 1.182-1.298 0 0-6.025-1.908-7.42-2.522-2.786-1.23-3.84-7.713 1.926-6.884 3.048.437 7.16 1.326 7.16 1.326s-2.198-3.58.877-5.71c1.865-1.295 10.27.282 10.27.282l11.043-7.876" fill="#f8a58d"/><path d="M779.59 491.332c-.01.183-3.206.044-6.974-1.041-3.79-1.04-6.537-2.74-6.428-2.904.092-.166 2.899 1.216 6.617 2.236 3.702 1.066 6.808 1.509 6.786 1.709M774.461 482.948c-.049.187-4.952-.905-10.95-2.437-6.002-1.531-10.827-2.923-10.78-3.11.048-.186 4.95.906 10.952 2.438 5.998 1.531 10.825 2.924 10.778 3.109M777.252 474.6c-.043.187-5.321-.888-11.787-2.4-6.468-1.513-11.673-2.89-11.63-3.077.044-.187 5.32.888 11.789 2.401 6.464 1.512 11.673 2.89 11.628 3.076M785.984 463.855c.021.093-1.139.456-3.028.965l-3.327.857-1.978.49a7.203 7.203 0 01-2.267.215c-.779-.043-1.519-.194-2.21-.36l-1.982-.452-3.344-.803c-1.9-.476-3.067-.819-3.048-.912.02-.093 1.223.077 3.153.433l3.383.658c1.28.223 2.665.646 4.087.745 1.425.117 2.742-.39 4.041-.633 1.203-.254 2.33-.494 3.373-.717 1.926-.388 3.127-.58 3.147-.486M787.5 468.374c.072-.05.39.24.65.872.26.622.41 1.614.091 2.635-.322 1.022-1.012 1.75-1.578 2.112-.575.372-1.003.428-1.034.347-.104-.165 1.399-.907 1.948-2.666.555-1.758-.257-3.226-.077-3.3M787.008 477.488c.167-.077.7.872.624 2.165-.067 1.297-.704 2.179-.861 2.084-.179-.087.114-.99.168-2.122.073-1.128-.119-2.06.069-2.127M787.147 487.387c.176-.066.532.577.362 1.413-.165.837-.74 1.293-.877 1.164-.153-.124.073-.648.196-1.301.137-.648.13-1.22.319-1.276" fill="#f68260"/><path d="M789.716 463.31c-.019.093-.884.042-2.268-.117-.79-.101-1.595-.206-2.425-.314-.924-.147-1.871-.292-2.888-.142-.923.133-1.831.694-2.564 1.155-.739.499-1.383 1.048-2.004 1.413-1.247.748-2.164.814-2.174.744-.038-.114.808-.349 1.902-1.152 1.081-.764 2.429-2.364 4.75-2.848a8.187 8.187 0 011.62-.037c.544.053.987.158 1.452.234.826.16 1.626.312 2.411.463 1.37.283 2.205.506 2.188.6M803.347 487.484c-.05-.024.2-.616.602-1.697.376-1.078.972-2.672.947-4.702-.004-1.01-.201-2.113-.504-3.273-.276-1.173-.815-2.34-1.113-3.744-.343-1.436.1-2.955.29-4.357.195-1.418-.114-2.903-.77-4.288-.651-1.392-1.55-2.634-2.454-3.8-.918-1.165-1.816-2.29-2.71-3.304-1.78-2.042-3.698-3.604-5.58-4.367-1.872-.792-3.571-.87-4.688-.71-1.131.15-1.712.457-1.738.39-.009-.023.128-.104.404-.244.28-.126.71-.295 1.288-.412 1.146-.25 2.934-.248 4.918.52 2 .741 4.033 2.34 5.873 4.395.927 1.028 1.833 2.142 2.768 3.312.924 1.177 1.859 2.45 2.55 3.926.695 1.463 1.04 3.119.813 4.667-.222 1.523-.63 2.864-.335 4.152.25 1.283.781 2.516 1.043 3.721.286 1.199.462 2.354.436 3.416-.04 2.14-.732 3.747-1.188 4.804-.483 1.06-.815 1.611-.852 1.595" fill="#f68260"/><path d="M724.032 421.81l-93.03 14.777 4.133-48.555-51.734-9.996-6.293 71.885-1.088 16.476a32.16 32.16 0 0042.06 32.701l19.99-6.513 97.494-34.684" fill="#f8a58d"/><path d="M780.321 411.797c.374-1.608-1.002-3.101-2.653-3.108-5.245-.022-19.403.059-24.404 1.476-6.187 1.756-29.232 11.644-29.232 11.644l9.768 36.072 35.377.376s12.922-5.938 13.082-8.508c.082-1.314-.32-4.816-.32-4.816l3.898-2.09c5.812-3.688 2.086-10.763 2.086-10.763s3.998-2.243 4.212-6.295c.225-4.276-3.12-5.965-3.12-5.965s1.604-5.705-1.376-7.24c-2.979-1.537-8.02.439-8.02.439.35-.275.584-.714.702-1.222" fill="#f8a58d"/><path d="M782.355 412.39c.01.046-.375.18-1.087.38-.71.2-1.756.435-3.056.657-2.597.464-6.217.854-10.199 1.282-3.982.43-7.57.914-10.104 1.539-2.544.596-3.965 1.387-4.025 1.281-.024-.042.319-.262.97-.628.66-.338 1.658-.748 2.93-1.127 2.544-.76 6.163-1.326 10.153-1.755 3.992-.428 7.603-.742 10.202-1.079 2.601-.32 4.188-.655 4.216-.55M789.008 419.61c.037.077-.88.63-2.483 1.271-1.597.65-3.884 1.335-6.449 1.877-2.565.54-4.908.882-6.605 1.102-1.698.217-2.754.31-2.771.217-.04-.224 4.14-.966 9.232-1.998 2.543-.536 4.81-1.138 6.428-1.66 1.62-.514 2.603-.906 2.648-.81M788.001 432.144c.068.165-3.246 1.601-7.577 2.573-4.33.99-7.937 1.122-7.948.941-.019-.202 3.52-.64 7.795-1.617 4.276-.96 7.66-2.09 7.73-1.897M785.837 442.843c.07.17-2.473 1.34-5.816 2.141-3.338.812-6.134.93-6.149.748-.021-.2 2.7-.624 5.987-1.423 3.29-.788 5.905-1.654 5.978-1.466M767.39 436.446c.026.082-.362.318-1.08.383-.705.071-1.753-.088-2.675-.74-.919-.654-1.415-1.593-1.58-2.281-.174-.7-.08-1.144.006-1.146.187-.047.384 1.729 1.976 2.862 1.595 1.13 3.336.73 3.354.922M766.65 447.624c.03.188-1.383.273-2.591-.815-1.22-1.076-1.296-2.49-1.106-2.482.195-.042.539 1.072 1.568 1.964 1.003.918 2.15 1.134 2.128 1.333M762.553 424.919c.076.184-.906.493-1.808-.195-.908-.68-.877-1.707-.678-1.684.193-.023.432.65 1.097 1.13.645.51 1.357.555 1.39.749" fill="#f68260"/><path d="M724.032 421.81c-.004-.01.09-.062.277-.153l.842-.392c.786-.346 1.881-.832 3.281-1.45a627.411 627.411 0 0112.337-5.212c2.643-1.078 5.558-2.258 8.747-3.443 1.604-.561 3.244-1.237 5.077-1.575 1.81-.344 3.688-.536 5.622-.696 3.869-.298 7.964-.433 12.242-.497 1.068-.01 2.151-.017 3.243-.028l1.648-.001c.536-.022 1.228.056 1.759.362 1.096.563 1.88 1.866 1.513 3.215-.133.293-.277.352-.41.463a4.319 4.319 0 01-.398.245 9.324 9.324 0 01-.803.377c-.546.226-1.08.423-1.68.58a.337.337 0 01-.412-.238.343.343 0 01.238-.411c1.438-.412 2.9-.748 4.412-.982 1.508-.228 3.064-.389 4.664-.165.786.13 1.637.374 2.285.991.64.607.972 1.439 1.13 2.245.3 1.644.091 3.27-.298 4.868l-.177-.404c.758.423 1.406 1.015 1.958 1.727 1.38 1.795 1.699 4.227 1.016 6.31-.709 2.1-2.254 3.718-4.054 4.833l.137-.46c.916 1.941 1.395 4.056 1.123 6.16-.242 2.125-1.627 3.972-3.335 5.045l-.023.012c-1.32.707-2.62 1.401-3.901 2.085l.17-.325c.103.935.191 1.859.257 2.78.032.461.057.921.066 1.384.006.23.004.465-.009.705a1.78 1.78 0 01-.288.774c-.564.831-1.299 1.37-2.01 1.914a31.986 31.986 0 01-2.202 1.46c-2.976 1.796-5.937 3.27-8.781 4.6l-.122.026-25.745-.394-7.123-.153-1.866-.061c-.42-.018-.639-.035-.639-.05 0-.013.219-.025.64-.035l1.867-.022h7.125c6.203.038 15.033.09 25.748.152l-.121.025c2.814-1.337 5.766-2.824 8.694-4.61.73-.45 1.455-.924 2.154-1.44.681-.518 1.398-1.079 1.842-1.748a1.22 1.22 0 00.192-.478c.01-.21.012-.429.006-.651-.011-.446-.038-.898-.071-1.353a73.782 73.782 0 00-.261-2.749.328.328 0 01.169-.326c1.28-.689 2.576-1.384 3.896-2.097l-.021.014c1.578-1.012 2.798-2.643 3.021-4.578.252-1.909-.21-3.957-1.06-5.745a.36.36 0 01.135-.46c1.638-1.016 3.114-2.57 3.733-4.45.612-1.865.32-4.086-.912-5.674-.479-.63-1.11-1.19-1.719-1.527a.365.365 0 01-.177-.404c.365-1.485.561-3.085.288-4.545-.141-.724-.43-1.41-.928-1.88-.49-.473-1.193-.692-1.915-.812-1.464-.21-2.986-.063-4.454.158a35.373 35.373 0 00-4.32.954l-.174-.65a12.29 12.29 0 002.318-.89c.233-.09.46-.35.552-.325 0-.444.028-.97-.224-1.4a2.396 2.396 0 00-1.023-1.028c-.448-.247-.896-.306-1.455-.294l-1.644-.002-3.236.017c-4.272.048-8.356.164-12.206.441-1.922.148-3.791.33-5.563.655-1.759.308-3.405.97-5.005 1.519-3.187 1.154-6.11 2.31-8.762 3.358l-12.408 5.027c-1.417.573-2.526 1.024-3.325 1.348l-.863.336c-.196.073-.297.107-.301.097M631.38 436.496c.124.193-3.672 2.021-6.879 5.93-3.26 3.863-4.368 7.927-4.581 7.84-.076-.02.09-1.054.693-2.63.599-1.574 1.702-3.664 3.354-5.655 1.658-1.986 3.513-3.45 4.95-4.326 1.442-.88 2.43-1.23 2.463-1.159" fill="#f68260"/><path d="M752.855 148.843c-1.918-24.415-22.264-43.259-46.755-43.31l-2.433-.005c-26.243 1.48-39.647 24.593-37.443 50.784l4.528 105.003a4.74 4.74 0 002.721 4.086l58.895 27.639-1.82-55.108s25.233-3.87 25.597-29.09c.175-12.18-1.505-37.29-3.29-60" fill="#f8a58d"/><path d="M730.757 237.897s-16.108.936-33.026-9.74c0 0 7.734 18.167 32.905 15.947l.121-6.207" fill="#f68260"/><path d="M743.913 164.505c.064 1.902-1.494 3.524-3.48 3.626-1.981.102-3.641-1.352-3.705-3.255-.063-1.901 1.495-3.527 3.476-3.63 1.985-.1 3.647 1.357 3.71 3.26" fill="#17282f"/><path d="M747.41 161.172c-.447.468-3.171-1.556-7.049-1.555-3.87-.053-6.72 1.935-7.138 1.46-.206-.21.249-1.058 1.49-1.957 1.222-.895 3.303-1.764 5.716-1.748 2.415.017 4.443.91 5.608 1.823 1.191.916 1.594 1.766 1.372 1.977M705.815 165.683c.064 1.901-1.495 3.524-3.48 3.626-1.98.102-3.643-1.352-3.706-3.256-.062-1.901 1.496-3.525 3.478-3.628 1.984-.104 3.645 1.355 3.708 3.258M709.312 161.816c-.45.47-3.177-1.555-7.05-1.553-3.87-.054-6.72 1.934-7.138 1.458-.207-.209.245-1.056 1.49-1.956 1.222-.894 3.302-1.764 5.717-1.749 2.413.019 4.442.912 5.609 1.823 1.187.917 1.59 1.768 1.372 1.977M723.319 190.588c-.019-.22 2.392-.632 6.296-1.123.99-.1 1.926-.294 2.096-.97.234-.715-.179-1.783-.655-2.935l-2.912-7.543c-4.043-10.737-6.965-19.565-6.532-19.725.435-.159 4.063 8.416 8.105 19.155.972 2.648 1.903 5.172 2.788 7.586.371 1.126 1.014 2.402.506 3.886-.268.738-.996 1.274-1.631 1.442-.636.194-1.192.203-1.681.231-3.93.203-6.366.216-6.38-.004M711.907 193.245c.63-.036.629 4.172 4.225 7.164 3.588 3.004 8.072 2.54 8.105 3.13.058.262-1.001.813-2.894.862-1.856.059-4.567-.542-6.767-2.373-2.192-1.837-3.132-4.281-3.272-6.008-.157-1.759.315-2.8.603-2.775M710.344 146.63c-.384 1.053-4.253.546-8.801 1.083-4.56.448-8.23 1.772-8.831.827-.268-.455.373-1.444 1.859-2.461 1.47-1.015 3.817-1.979 6.548-2.278 2.73-.292 5.229.147 6.884.824 1.668.675 2.506 1.504 2.341 2.004M746.008 149.952c-.684.879-3.352-.041-6.563-.09-3.208-.162-5.929.58-6.553-.343-.273-.447.156-1.328 1.345-2.159 1.172-.828 3.132-1.503 5.339-1.43 2.205.073 4.115.875 5.23 1.78 1.133.906 1.502 1.813 1.202 2.242" fill="#17282f"/><path d="M669.999 174.99c-.43-.186-17.319-5.16-16.804 12.083.516 17.244 17.72 13.17 17.736 12.674.016-.495-.932-24.756-.932-24.756" fill="#f8a58d"/><path d="M666.985 193.372c-.077-.052-.294.219-.796.467-.488.241-1.333.424-2.242.113-1.842-.613-3.463-3.46-3.639-6.565a9.909 9.909 0 01.713-4.326c.488-1.277 1.278-2.184 2.19-2.374.906-.238 1.572.292 1.797.772.245.474.147.821.239.849.05.041.361-.3.201-1.01a1.929 1.929 0 00-.71-1.06c-.425-.323-1.04-.475-1.674-.389-1.328.132-2.488 1.391-3.059 2.768-.644 1.384-1 3.076-.898 4.838.214 3.472 2.09 6.669 4.605 7.314 1.223.282 2.223-.116 2.733-.537.522-.443.6-.83.54-.86" fill="#f68260"/><path d="M681.3 123.733l71.904 1.586c-2.235-4.962-6.228-8.932-10.563-12.219-9.345-7.088-20.832-11.513-32.558-11.719-11.727-.205-35.598 14.079-44.094 22.164-6.797 6.472-6.753 12.071-6.753 12.071-1.08 9.323 4.137 19.92 6.212 29.073 1.07 4.72 3.135 19.003 3.135 19.003h.002c3.963-.013 5.435-3.167 4.832-7.083l-.741-15.368s13.475-9.574 7.09-27.1c-1.025-1.396-3.211-7.798 1.534-10.408" fill="#17282f"/><path d="M696.401 178.267c-.232.046-.461-.122-.51-.375-.05-.253.096-.496.328-.543.232-.045.46.123.51.378.05.253-.097.494-.328.54M703.808 176.603c-.232.046-.465-.152-.523-.443-.057-.29.084-.563.315-.61.232-.045.467.154.524.445.057.289-.084.562-.316.608M708.795 176.49c-.235.029-.463-.258-.51-.64-.048-.385.104-.718.339-.747.233-.03.461.258.508.641.05.383-.104.717-.337.745M700.03 182.923c-.234 0-.426-.124-.426-.275 0-.15.193-.272.428-.272.236 0 .428.124.427.275 0 .15-.192.272-.428.272M706.825 181.361c-.236.02-.444-.18-.468-.448-.021-.266.151-.5.386-.52.236-.018.445.18.466.448.024.267-.149.5-.384.52M742.177 177.215c-.232.045-.461-.13-.513-.391-.052-.261.093-.51.325-.556.232-.047.462.13.514.39.052.262-.094.51-.326.557M747.224 176.763c-.236.022-.45-.199-.477-.495-.028-.296.14-.555.374-.577.234-.023.448.2.476.494.03.298-.138.555-.373.578M737.719 177.33c-.231.046-.451-.082-.491-.285-.04-.202.115-.405.347-.45.229-.047.45.081.49.284.04.204-.114.406-.346.452M741.45 182.384c-.215.096-.48-.03-.59-.28-.11-.25-.023-.53.193-.624.216-.095.479.03.59.28.109.25.024.53-.192.624M745.761 181.532c-.226-.063-.368-.268-.316-.46.054-.192.28-.296.508-.233.228.062.37.268.316.46-.052.192-.28.296-.508.233" fill="#f68260"/><path d="M665.517 124.53c-1.836-6.298-.008-13.313 4.036-18.478 4.043-5.167 10.648-8.219 17.203-7.95 3.359.137 6.696 1.089 10.037.723 6.22-.68 11.019-5.666 16.787-8.089 8.992-3.775 20.428-.344 25.856 7.757 2.188 3.264 3.624 7.3 6.973 9.358 2.898 1.778 6.55 1.629 9.804 2.609 6.584 1.983 11.092 8.973 10.751 15.839-.341 6.866-5.153 13.153-11.48 15.844-6.327 2.69-13.864 1.94-19.87-1.403-5.426-3.019-10.285-8.168-16.49-7.987-6.43.19-12.047 6.251-18.352 4.994-3.307-.659-5.856-3.204-8.276-5.552-2.42-2.347-5.205-4.735-8.572-4.934-3.365-.198-5.119 4.426-3.913 7.574l-14.494-10.304" fill="#17282f"/><path d="M751.808 116.19c.01.007-.028.093-.116.253-.087.16-.213.402-.416.696a11.783 11.783 0 01-2.061 2.34 12.748 12.748 0 01-4.276 2.476 12.194 12.194 0 01-6.526.389c-2.392-.5-4.921-1.756-6.88-3.915-1.965-2.157-3.13-5.042-4.958-7.576-.914-1.266-2.054-2.409-3.483-3.15-1.435-.726-3.09-1.079-4.768-1.05a10.866 10.866 0 00-4.893 1.32 9.154 9.154 0 00-3.607 3.71c-.868 1.578-1.49 3.313-2.535 4.85-.998 1.558-2.745 2.73-4.604 2.802-1.852.104-3.564-.586-5.02-1.448-1.477-.866-2.702-2.032-3.817-3.162-2.217-2.238-4.408-4.473-7.13-5.077-2.694-.641-5.33.35-7.222 1.696-1.928 1.38-3.17 3.208-3.967 4.913-.798 1.716-1.217 3.312-1.482 4.623-.267 1.313-.392 2.352-.478 3.053-.084.703-.125 1.075-.152 1.072-.01 0-.016-.093-.014-.276.001-.182.005-.453.026-.808.04-.709.123-1.756.352-3.092.228-1.33.611-2.961 1.396-4.733.78-1.759 2.038-3.683 4.031-5.15 1.95-1.426 4.717-2.522 7.64-1.86 2.947.638 5.232 2.978 7.45 5.186 1.125 1.127 2.293 2.225 3.707 3.045 1.388.819 2.998 1.44 4.635 1.339 1.645-.08 3.141-1.068 4.08-2.513.975-1.434 1.597-3.152 2.495-4.795.878-1.664 2.264-3.085 3.878-3.979a11.485 11.485 0 015.215-1.394c1.784-.028 3.55.352 5.09 1.14 1.54.806 2.76 2.048 3.694 3.361 1.875 2.645 3.005 5.497 4.872 7.57 1.844 2.071 4.259 3.307 6.555 3.818 2.31.53 4.513.303 6.298-.277a12.777 12.777 0 004.222-2.314c2.05-1.728 2.692-3.144 2.769-3.082M764.84 116.448c.032-.007.203.475.292 1.387.092.906.06 2.256-.363 3.852a13.398 13.398 0 01-2.696 5.074c-1.406 1.676-3.389 3.127-5.685 4.139-4.65 2.039-9.367 1.855-12.543 1.419-1.609-.23-2.892-.52-3.768-.751-.876-.232-1.346-.403-1.336-.447.024-.116 1.971.371 5.163.71 3.153.308 7.733.398 12.204-1.566 2.21-.974 4.115-2.348 5.48-3.921a13.512 13.512 0 002.71-4.796c.942-3.06.389-5.101.542-5.1" fill="#33535f"/><path d="M642.13 394.253c.243 2.874 1.48 5.467 3.02 7.471 1.542 2.005 4.678 3.967 7.203 3.821 0 0 6.299.539 9.69-4.86 3.07-4.892 3.828-15.062 1.366-21.077-1.694-4.135-5.5-7.98-9.968-8.085-5.865-.14-9.542 4.1-10.797 8.389" fill="#dadbd8"/><path d="M642.644 379.912s.132-1.117 1.087-2.875a11.798 11.798 0 012.2-2.885 10.231 10.231 0 014.152-2.44c.865-.253 1.804-.43 2.789-.445a8.43 8.43 0 013.052.401c2.044.659 3.939 2.07 5.447 3.905 1.525 1.828 2.649 4.147 3.201 6.668.57 2.516.744 5.188.596 7.902-.27 4.176-1.09 8.33-3.403 11.506-1.169 1.556-2.768 2.68-4.425 3.338-1.67.664-3.373.917-5.01.842h.038c-1.344.052-2.547-.384-3.59-.89a11.76 11.76 0 01-2.7-1.883c-1.514-1.447-2.345-3.057-2.943-4.384a12.912 12.912 0 01-.932-3.237 8.287 8.287 0 01-.083-.879c-.008-.2-.004-.303.01-.303.102-.025.1 1.675 1.3 4.287.622 1.27 1.498 2.844 2.957 4.177.738.66 1.617 1.27 2.618 1.759 1 .467 2.146.85 3.331.788l.01-.001.031.001c3.006.105 6.658-1.053 8.863-4.015 2.15-2.974 2.979-7.06 3.233-11.145.287-5.275-.597-10.59-3.598-14.125-1.431-1.771-3.222-3.123-5.13-3.764a7.946 7.946 0 00-2.86-.412c-.94 0-1.836.154-2.664.381a9.988 9.988 0 00-4.026 2.25 12.107 12.107 0 00-2.23 2.737c-1.006 1.68-1.242 2.77-1.321 2.741" fill="#17282f"/><path d="M639.01 394.516c.242 2.875 1.478 5.47 3.02 7.472 1.54 2.004 4.677 3.965 7.202 3.823 0 0 6.297.537 9.688-4.863 3.072-4.89 3.83-15.061 1.367-21.075-1.695-4.136-5.499-7.981-9.968-8.086-5.864-.139-9.543 4.1-10.796 8.389" fill="#dadbd8"/><path d="M639.523 380.176s.132-1.117 1.086-2.876a11.81 11.81 0 012.2-2.884 10.226 10.226 0 014.154-2.439 10.356 10.356 0 012.788-.445 8.45 8.45 0 013.05.4c2.047.66 3.942 2.07 5.447 3.905 1.527 1.827 2.65 4.148 3.203 6.668.57 2.515.742 5.188.596 7.902-.272 4.174-1.091 8.33-3.404 11.506-1.168 1.556-2.767 2.682-4.426 3.338-1.669.662-3.372.917-5.01.842l.04.002c-1.343.052-2.547-.386-3.591-.891a11.843 11.843 0 01-2.701-1.884c-1.512-1.445-2.344-3.056-2.942-4.384a12.879 12.879 0 01-.932-3.236 8.385 8.385 0 01-.084-.88c-.006-.2-.002-.303.012-.304.102-.024.099 1.676 1.3 4.288.62 1.27 1.498 2.844 2.955 4.177.74.662 1.619 1.271 2.62 1.759 1 .468 2.144.85 3.33.787h.01l.03.001c3.006.105 6.658-1.053 8.863-4.015 2.152-2.974 2.98-7.06 3.236-11.144.286-5.276-.598-10.59-3.601-14.126-1.43-1.772-3.221-3.124-5.128-3.763a7.948 7.948 0 00-2.86-.413 10.026 10.026 0 00-2.664.381 9.957 9.957 0 00-4.025 2.252 12.055 12.055 0 00-2.231 2.735c-1.007 1.68-1.244 2.77-1.321 2.741" fill="#17282f"/><path d="M644.668 378.676c-2.916-.58-5.925 1.421-7.16 4.125-1.233 2.704-.96 5.894.016 8.702.497 1.428 1.181 2.818 2.221 3.92 1.039 1.1 2.464 1.889 3.978 1.934 2.218.067 4.213-1.448 5.505-3.254 2.081-2.911 2.79-6.766 1.88-10.227-.608-2.312-2.31-4.681-4.7-4.745" fill="#dadbd8"/><path d="M646.408 379.13c0-.02.181-.04.53-.014.347.036.862.157 1.447.49 1.17.649 2.506 2.255 3.048 4.59.568 2.29.502 5.28-.821 8.161-.664 1.422-1.612 2.843-2.99 3.924-1.33 1.083-3.282 1.778-5.146 1.232-1.839-.516-3.239-1.882-4.11-3.36-.882-1.493-1.391-3.07-1.713-4.606-.64-3.068-.12-6.108 1.332-8.055 1.427-1.96 3.352-2.784 4.652-2.956a5.008 5.008 0 011.522-.004c.341.07.514.121.509.144-.007.08-.73-.136-1.983.125-1.226.242-3.009 1.098-4.298 2.975-1.302 1.845-1.754 4.708-1.106 7.643.322 1.462.836 2.996 1.667 4.382.821 1.376 2.1 2.59 3.715 3.043 1.609.47 3.297-.11 4.541-1.1 1.27-.984 2.181-2.313 2.827-3.657 1.288-2.72 1.408-5.571.925-7.782-.457-2.232-1.659-3.794-2.713-4.469-1.071-.693-1.854-.624-1.835-.705" fill="#17282f"/><path d="M651.393 400.595c-.105.025-.252-.42-.709-.956-.445-.539-1.25-1.138-2.275-1.459-1.037-.321-2.058-.375-2.8-.435-.745-.054-1.216-.114-1.218-.213-.003-.093.456-.207 1.214-.277.754-.064 1.846-.098 3.012.262 1.175.366 2.064 1.138 2.467 1.838.417.704.388 1.23.31 1.24M652.44 376.86c.061.059-.204.476-.825.967-.616.492-1.614 1.009-2.811 1.228-1.197.213-2.315.077-3.063-.168-.753-.242-1.149-.539-1.112-.616.071-.194 1.844.525 4.052.101 2.215-.376 3.624-1.668 3.759-1.512M285.067 143.65c.166-5.81-5.207-10.298-10.614-12.425-5.405-2.128-11.416-2.93-16.237-6.174-4.268-2.872-7.136-7.354-10.75-11.016-8.862-8.984-22.7-12.71-34.875-9.388-12.176 3.321-22.206 13.558-25.278 25.798-2.076 8.272-.658 18.052 5.862 23.55 7.568 6.38 18.786 4.962 28.484 2.977 9.697-1.984 20.672-3.941 28.768 1.753 4.882 3.434 7.68 9.02 10.665 14.19 2.985 5.169 6.73 10.448 12.375 12.392 5.644 1.942 13.308-1.414 13.528-7.378" fill="#17282f"/><path d="M284.676 146.836c-.64 4.87 2.884 9.228 6.39 12.665 3.507 3.438 7.47 7.082 8.089 11.954.722 5.689-3.431 11.293-2.226 16.9.764 3.56 3.534 6.301 5.212 9.532 2.358 4.536 2.479 10.022 1.034 14.926-1.446 4.903-3.75 15.852-7.158 19.662-9.424 10.537-24.43 19.629-38.208 22.794-13.777 3.166-28.088 3.184-42.198 2.316-11.551-.71-24.834-.18-34.459-16.07-4.985-8.23-7.455-19.174-10.104-28.424-2.283-7.966-4.255-16.495-1.884-24.434 1.383-4.625 4.165-8.737 5.528-13.368 1.701-5.785 1.081-11.972 1.767-17.964 1.482-12.97 9.533-25.02 20.948-31.356 11.414-6.334 25.898-6.79 37.69-1.186" fill="#17282f"/><path d="M181.985 166.797c1.082-16.574 12.11-36.892 28.624-35.108l51.552 13.152a9.719 9.719 0 018.674 9.878l-5.795 124.368c.123.026.235.052.357.077 0 0-11.749 35.08-45.838 24.364-6.759-2.125-9.846-9.519-11.186-17.124l-.349.044-.035-2.605c-1.125-8.776-.204-17.078-.204-17.078-.094-10.042-.085-14.16-.092-14.066 0 0-21.172-3.564-25.498-31.207-2.151-13.748-1.411-36.279-.21-54.695" fill="#f8a58d"/><path d="M190.288 183.452c-.07 1.87 1.456 3.475 3.41 3.583 1.949.109 3.589-1.315 3.66-3.188.07-1.871-1.457-3.475-3.406-3.584-1.953-.11-3.595 1.317-3.664 3.189M186.847 178.53c.438.463 3.128-1.517 6.941-1.5 3.81-.035 6.604 1.933 7.019 1.466.204-.205-.243-1.04-1.459-1.93-1.197-.886-3.243-1.75-5.617-1.746-2.376.008-4.376.879-5.526 1.77-1.174.898-1.574 1.733-1.358 1.94M227.773 183.452c-.07 1.87 1.456 3.475 3.41 3.583 1.949.109 3.589-1.316 3.66-3.187.069-1.87-1.458-3.476-3.406-3.585-1.953-.11-3.594 1.317-3.664 3.189M224.33 179.324c.44.464 3.133-1.517 6.943-1.499 3.81-.036 6.606 1.932 7.019 1.466.203-.206-.237-1.04-1.459-1.931-1.198-.887-3.241-1.75-5.617-1.745-2.375.008-4.375.878-5.527 1.77-1.17.898-1.573 1.732-1.358 1.939M210.43 207.576c.017-.216-2.353-.63-6.193-1.13-.973-.103-1.894-.3-2.057-.963-.228-.706.181-1.754.656-2.886l2.896-7.409c4.023-10.548 6.937-19.224 6.512-19.381-.427-.159-4.035 8.262-8.056 18.812-.968 2.601-1.895 5.081-2.776 7.453-.37 1.105-1.007 2.36-.513 3.821.261.728.974 1.258 1.597 1.427.624.192 1.172.204 1.655.233 3.865.218 6.262.239 6.278.023" fill="#17282f"/><path d="M207.693 252.699s18.588 1.24 37.031-9.791c0 0-9.347 19.11-36.999 16.463l-.032-6.672M212.021 216.77c1.375-1.81 3.78-2.8 6.166-2.538 1.654.181 3.325.984 4.328 2.335 1.001 1.348 1.208 3.262.29 4.545-1.032 1.445-3.182 1.773-5.001 1.253-1.819-.521-3.383-1.724-4.868-2.92-.41-.33-.83-.677-1.087-1.13-.256-.452-.309-1.046.01-1.419" fill="#f68260"/><path d="M221.645 210.239c-.62-.038-.636 4.102-4.186 7.032-3.543 2.94-7.955 2.465-7.988 3.044-.059.26.981.806 2.842.861 1.827.067 4.496-.515 6.668-2.307 2.166-1.797 3.1-4.198 3.246-5.897.161-1.73-.298-2.756-.582-2.733M222.63 172.644c.374 1.037 4.183.555 8.655 1.104 4.486.46 8.09 1.776 8.686.848.266-.444-.362-1.421-1.818-2.428-1.442-1.005-3.748-1.963-6.434-2.268-2.686-.3-5.146.121-6.776.78-1.644.659-2.474 1.472-2.312 1.964M188.273 167.496c.668.868 3.299-.025 6.458-.061 3.157-.146 5.833.596 6.45-.31.271-.44-.149-1.306-1.316-2.13-1.149-.819-3.074-1.491-5.246-1.431-2.171.064-4.054.845-5.154 1.73-1.118.887-1.486 1.778-1.192 2.202" fill="#17282f"/><path d="M281.456 235.757c-7.599 1.532-15.876-.804-21.553-6.082-5.679-5.278-8.611-13.363-7.638-21.054.859-6.786 4.518-13.692 2.166-20.116-3.112-8.493-15.018-11.105-18.176-19.581-1.836-4.925-.188-10.688-2.27-15.515-1.957-4.538-6.733-7.153-11.381-8.834-4.648-1.68-9.633-2.84-13.536-5.875-3.903-3.033-6.336-8.759-3.819-13.012a261.802 261.802 0 0160.384 14.67c4.51 1.685 9.248 3.71 11.914 7.718 2.821 4.243 2.686 9.723 2.448 14.81-1.158 24.814-2.315 49.626-3.474 74.438" fill="#17282f"/><path d="M279.723 245.257c.014.016.164-.081.446-.285l1.23-.936a98.193 98.193 0 004.577-3.792c1.927-1.717 4.247-3.9 6.497-6.837 2.227-2.914 4.415-6.711 5.167-11.375.825-4.539.219-10.252-3.563-14.541-1.864-2.102-4.254-3.675-6.44-5.49-2.22-1.776-4.064-4.034-5.021-6.849-2.044-5.635-1.133-12.157-1.923-18.824-.873-6.632-3.244-13.481-7.834-19.04-2.291-2.75-5.042-5.13-8.195-6.697-3.136-1.655-6.532-2.338-9.67-3.264-3.169-.876-6.074-2.186-8.486-4.182-2.43-1.954-4.416-4.338-6.159-6.793-3.472-4.93-6.038-10.183-9.344-14.564-1.646-2.187-3.434-4.179-5.446-5.78-2.011-1.603-4.218-2.784-6.456-3.517-4.459-1.522-9.168-1.018-12.274 1.224-3.065 2.332-4.188 5.693-4.358 8.272-.13 2.657.769 4.649 1.662 5.692.438.538.828.886 1.127 1.078.281.212.428.31.44.294.013-.018-.11-.151-.36-.388-.27-.22-.621-.588-1.012-1.132-.801-1.055-1.577-2.978-1.385-5.511.226-2.461 1.396-5.645 4.282-7.753 2.916-2.028 7.363-2.467 11.604-.962 2.13.726 4.235 1.882 6.142 3.432 1.912 1.554 3.634 3.502 5.225 5.652 3.204 4.31 5.72 9.55 9.239 14.61 1.766 2.512 3.804 4.986 6.345 7.049 2.512 2.104 5.664 3.53 8.879 4.42 3.202.95 6.504 1.63 9.454 3.197 2.992 1.49 5.61 3.759 7.81 6.395 4.404 5.328 6.726 11.976 7.59 18.417.804 6.444-.129 13.066 2.052 19.058 1.019 2.992 3.096 5.493 5.392 7.289 2.264 1.85 4.61 3.379 6.37 5.339 3.545 3.948 4.21 9.338 3.466 13.73-.672 4.502-2.725 8.202-4.864 11.107-2.156 2.92-4.405 5.135-6.27 6.895-1.88 1.753-3.4 3.054-4.416 3.953-1.02.895-1.547 1.376-1.52 1.41" fill="#33535f"/><path d="M284.768 248.685c5.681-5.49 15.385-.717 20.152 5.583 4.767 6.301 8.145 14.421 15.381 17.59 7.235 3.167 16.652.445 22.726 5.49 8.377 6.957 3.673 23.083 12.728 29.13 3.594 2.4 8.336 2.315 12.178 4.295 9.055 4.668 8.947 17.442 7.548 27.532-1.964 14.16-4.116 28.84-11.93 40.811-7.814 11.972-23.026 20.395-36.555 15.775-13.001-4.439-19.673-18.467-24.963-31.147l-21.95-52.63c-4.232-10.149-8.507-20.451-9.886-31.36-1.378-10.909.476-22.69 7.414-31.222" fill="#17282f"/><path d="M288.41 236.585c4.13-.497 7.278 4.56 6.193 8.575-1.087 4.015-4.94 6.69-8.867 8.063-2.195.768-4.567 1.24-6.85.792-2.28-.448-4.451-1.966-5.185-4.172-.77-2.323-.176-3.888 1.899-5.186 2.716-1.697 4.308-3.032 6.45-4.213 3.278-1.808 3.083-2.05 6.36-3.859M193.433 281.053l16.035-12.149 60.408-3.861 2.43 8.101-19.649 122.619 15.502 146.29h-84.276l9.55-261" fill="#f03d5f"/><path d="M187.628 542.08v-.028h.015l-.015.028" fill="#a7a9a8"/><path d="M187.643 542.052h-.015l1.615-59.756c10.653.235 21.429.907 32.196 1.556l4.113 2.005 10.37.917-.28-2.12c4.874.245 9.734.442 14.569.549 2.817.06 5.98 2.893 7.905 4.95 1.743 1.86 1.91 4.827.905 7.17-1.002 2.344-2.982 4.141-5.12 5.532-5.353 3.482-11.84 4.769-18.265 4.769a51.09 51.09 0 01-3.139-.099c-7.414-.46-14.656-2.344-21.944-3.784-1.28-.253-2.616-.488-3.918-.488-1.111 0-2.198.171-3.206.643-3.868 1.815-4.58 6.88-5.134 11.117-1.271 9.69-5.83 18.538-10.652 27.04" fill="#ba2c42"/><path d="M206.501 283.527l-1.868-17.534a5.558 5.558 0 015.028-6.125l55.611-5.025a2.625 2.625 0 012.861 2.534l.627 20.86-16.103 27.327-16.554 5.267h-20.239L204.223 298.4l2.278-14.873" fill="#f03d5f"/><path d="M260.55 271.548c-.011.057-.797-.083-2.223-.227a39.14 39.14 0 00-6.062-.104c-2.557.147-5.585.571-8.904 1.282-3.321.697-6.93 1.676-10.756 2.606-3.824.928-7.522 1.686-10.949 1.948-3.421.278-6.553.031-9.077-.612-2.534-.62-4.442-1.582-5.666-2.354a14.23 14.23 0 01-1.353-.976c-.29-.25-.433-.387-.419-.406.038-.048.666.446 1.911 1.15a20.835 20.835 0 005.639 2.109c2.485.568 5.546.759 8.912.453 3.369-.294 7.028-1.061 10.84-1.988 3.812-.926 7.437-1.889 10.79-2.556 3.348-.682 6.42-1.061 9.01-1.146 2.59-.088 4.689.104 6.117.325.715.117 1.267.224 1.635.321.369.092.56.151.556.175" fill="#17282f"/><path d="M216.579 289.368c-2.707 0-5.407-.837-7.262-2.764-2.956-3.07-2.978-7.99-1.585-12.033a19.688 19.688 0 004.847 1.87c1.834.467 3.988.726 6.341.726.885 0 1.8-.038 2.736-.114 3.427-.262 7.125-1.02 10.95-1.948 3.825-.93 7.434-1.909 10.755-2.606 3.319-.711 6.347-1.135 8.904-1.282a41.22 41.22 0 011.287-.054c.117.009.236.021.353.033.252.025.516.059.72.207.463.336.36 1.106-.049 1.504-.412.4-1.004.528-1.563.652-8.697 1.932-16.476 6.65-24.132 11.205-3.05 1.817-6.185 3.648-9.666 4.343a13.48 13.48 0 01-2.636.261m1.896-12.807c-2.138 0-4.094-.212-5.784-.597a21.345 21.345 0 01-3.243-.983c2.663.792 5.416 1.11 8.201 1.11 4.466 0 9.012-.816 13.387-1.799 5.341-1.199 10.728-2.64 16.15-3.104a64.506 64.506 0 00-3.953.685c-3.353.667-6.978 1.63-10.79 2.556-3.812.927-7.471 1.694-10.84 1.988a34.783 34.783 0 01-3.128.144" fill="#ba2c42"/><path d="M218.92 277.167c-2.353 0-4.507-.259-6.341-.726a19.688 19.688 0 01-4.847-1.87l.095-.268.341.257c.425.153.85.293 1.28.421.932.367 2.015.714 3.243.983 1.69.385 3.646.597 5.784.597 1.005 0 2.052-.046 3.128-.144 3.369-.294 7.028-1.061 10.84-1.988 3.812-.926 7.437-1.889 10.79-2.556 1.368-.28 2.691-.508 3.954-.685a39.757 39.757 0 013.426-.152c.979 0 1.959.039 2.939.127-.415.01-.843.029-1.287.054-2.557.147-5.585.571-8.904 1.282-3.321.697-6.93 1.676-10.756 2.606-3.824.928-7.522 1.686-10.949 1.948-.936.076-1.85.114-2.736.114" fill="#0f191d"/><path d="M218.45 259.304c.057.1-1.08.368-1.902 1.82-.877 1.41-.83 3.803-.76 6.39.143 5.189 1 9.337.796 9.378-.088.021-.416-.993-.753-2.681-.338-1.684-.659-4.05-.738-6.676-.028-1.316-.042-2.559.076-3.718.12-1.153.448-2.205.962-2.952.502-.75 1.112-1.198 1.569-1.397.459-.204.743-.203.75-.164M233.145 274.548c-.217-.023.28-3.845-.398-8.488-.64-4.65-2.18-8.184-1.978-8.265.079-.035.566.802 1.138 2.258.572 1.454 1.189 3.54 1.528 5.908.333 2.37.321 4.546.174 6.102-.142 1.557-.378 2.497-.464 2.485M251.048 256.324c.068-.036.576.704 1.059 2.065.486 1.352.872 3.351.729 5.56-.15 2.211-.797 4.14-1.459 5.418-.66 1.284-1.26 1.952-1.324 1.905-.201-.096 1.843-3.085 2.09-7.368.322-4.277-1.308-7.51-1.095-7.58" fill="#17282f"/><path d="M173.076 288.939s-18.959 12.698-23.94 35.633C145.22 342.6 134.492 437.82 134.492 437.82l-18.781 36.57 12.264 29.173a44.786 44.786 0 0029.462-8.423l8.255-5.99 15.133-22.45-7.749-177.761" fill="#e7e8e5"/><path d="M205.219 272.124l-32.143 16.815-7.585 24.929-6.76 72.25 12.725 84.705-22.32 70.97 38.492.287.915-41.604 3.842-134.664 3.778-85.783 9.056-7.905" fill="#e7e8e5"/><path d="M189.652 384.379c-.02.012-.225-.334-.597-1.003l-1.598-2.948c-.665-1.296-1.31-2.96-2.145-4.855-.396-.957-.72-2.017-1.117-3.121-.384-1.11-.814-2.275-1.136-3.537-3.026-9.979-5.027-24.391-4.607-40.287.043-1.23.09-2.448.173-3.66l.015-.21.196-.083 5.627-2.364-.082.581-5.617-4.515-.117-.094-.007-.138c-.263-5.99 1.193-11.38 2.56-16.072 1.415-4.702 2.964-8.753 4.319-12.084a148.862 148.862 0 013.388-7.702c.421-.884.756-1.563.993-2.015.233-.453.368-.683.385-.675.018.008-.081.255-.282.723a892.18 892.18 0 01-.894 2.059 218.79 218.79 0 00-3.205 7.765c-1.297 3.343-2.795 7.399-4.16 12.09-1.324 4.67-2.723 10.053-2.443 15.858l-.122-.232 5.63 4.499.45.358-.531.224-5.623 2.372.211-.293c-.081 1.19-.128 2.408-.17 3.63-.418 15.822 1.497 30.173 4.385 40.129.305 1.261.717 2.425 1.082 3.533.379 1.104.686 2.165 1.062 3.121.796 1.898 1.401 3.571 2.026 4.879l1.476 2.997c.332.69.496 1.059.475 1.07M164.433 434.974c-.024.005-.13-.355-.31-1.046l-.76-3.032a91.374 91.374 0 01-1.084-4.824c-.38-1.89-.864-4.033-1.244-6.43-.422-2.391-.868-5.013-1.23-7.846-.429-2.823-.722-5.86-1.064-9.052a235.235 235.235 0 01-.972-20.86c.034-7.412.448-14.467 1.05-20.86.353-3.192.658-6.227 1.098-9.048.372-2.832.828-5.452 1.259-7.841.39-2.396.88-4.538 1.267-6.426.378-1.89.766-3.505 1.104-4.821l.769-3.027c.184-.69.292-1.049.315-1.044.024.006-.039.376-.179 1.076-.159.762-.373 1.779-.643 3.056a113.061 113.061 0 00-.985 4.838c-.35 1.892-.807 4.034-1.164 6.432-.399 2.389-.827 5.006-1.172 7.834-.415 2.819-.697 5.848-1.032 9.032-.564 6.378-.959 13.41-.992 20.8.007 7.39.373 14.423.915 20.802.322 3.184.593 6.214.998 9.033.335 2.828.752 5.448 1.142 7.838.348 2.398.797 4.543 1.14 6.437.334 1.897.677 3.518.968 4.842l.632 3.058c.136.701.197 1.072.174 1.079M173.127 500.016c.076.039-.467 1.304-1.562 3.235-1.093 1.929-2.776 4.507-4.924 7.131-2.152 2.623-4.348 4.782-6.025 6.234-1.677 1.454-2.81 2.234-2.863 2.167-.066-.082.952-.994 2.531-2.527a76.995 76.995 0 005.82-6.313 76.703 76.703 0 005.041-6.948c1.194-1.85 1.888-3.028 1.982-2.979" fill="#17282f"/><path d="M320.83 286.879a44.234 44.234 0 0127.175 31.465c10.512 46.355 28.507 108.01 28.788 127.901.36 25.335-10.717 42.679-25.178 45.875-11.436 2.53-115.098-3.144-115.098-3.144l-4.848-38.623 83.943-12.358-11.495-64.227 11.376-88.956 5.338 2.067" fill="#e7e8e5"/><path d="M315.493 284.812l-23.209-9.485-24.47-14.336-.154 4.193a24.573 24.573 0 012.912 17.01L250.211 388.42l4.62 77.606 9.473 76.055h73.616l-33.803-79.537 11.932-107.179-.556-70.552" fill="#e7e8e5"/><path d="M336.995 492.77c.001.01-.168.034-.502.069l-1.481.144c-1.307.141-3.24.128-5.739.193-4.996.024-12.246-.11-21.266-.402-18.04-.604-43.159-1.81-71.511-3.454l-.285-.017-.036-.284-1.808-14.382-3.035-24.242-.04-.33.328-.048 64.1-9.318c7.985-1.134 14.384-2.042 18.821-2.67 2.178-.297 3.872-.528 5.059-.688l1.31-.162c.295-.034.446-.046.447-.035.003.01-.145.043-.438.096l-1.302.222-5.041.8-18.792 2.87c-16.036 2.392-38.44 5.735-64.065 9.556l.286-.377c.98 7.78 2.003 15.905 3.051 24.24.617 4.926 1.225 9.78 1.803 14.38l-.322-.3c28.344 1.666 53.456 2.957 71.486 3.682 9.016.355 16.26.559 21.25.612 2.492-.026 4.43.028 5.73-.072.628-.033 1.12-.06 1.484-.078.334-.013.506-.017.508-.006" fill="#17282f"/><path d="M303.444 367.279c.024 0 .087.249.181.713.107.547.24 1.227.404 2.056l1.39 7.588 4.366 25.07 4.184 25.105 1.191 7.62.29 2.077c.058.477.078.73.054.733-.024.004-.09-.24-.192-.708l-.419-2.056c-.35-1.889-.826-4.456-1.408-7.585a2674.527 2674.527 0 01-4.385-25.07c-1.67-9.795-3.141-18.671-4.165-25.105l-1.172-7.624-.276-2.082c-.052-.483-.067-.732-.043-.732M278.49 268.47c.01-.002.042.086.093.26l.216.775c.168.687.468 1.694.742 3.02.598 2.644 1.292 6.532 1.771 11.432.487 4.9.693 10.814.441 17.442-.226 6.629-.929 13.964-1.929 21.732l-.032.246-.244.047c-2.42.448-4.984.923-7.588 1.407l.259-.468c.432 1.165.881 2.418 1.226 3.714 2.468 9.012 1.384 18.126-.866 25.75-2.288 7.69-5.782 14.065-8.914 19.204-3.166 5.137-6.032 9.089-7.998 11.822l-2.303 3.123-.615.8c-.141.177-.218.267-.228.259-.01-.007.048-.108.171-.3l.559-.84 2.194-3.198c1.899-2.778 4.699-6.77 7.8-11.922 3.067-5.15 6.491-11.512 8.72-19.127 2.195-7.556 3.234-16.55.811-25.387-.339-1.273-.78-2.501-1.201-3.644l-.146-.394.404-.074c2.606-.481 5.171-.952 7.59-1.397l-.276.29c1.012-7.753 1.74-15.062 2.006-21.666.291-6.604.136-12.493-.286-17.379-.418-4.885-1.042-8.77-1.564-11.422-.236-1.331-.496-2.344-.627-3.04l-.155-.79c-.03-.178-.041-.272-.032-.274" fill="#17282f"/><path d="M278.487 377.43v-16.947s.22-4.182-3.3-3.302c-3.523.88-2.862 7.483-2.862 7.483s-.661 25.75.88 25.53c1.54-.22 2.132-2.202 2.132-2.202v-9.903l3.15-.66" fill="#f03d5f"/><path d="M293.135 378.484c0 .192-4.064.347-9.079.347-5.013 0-9.079-.155-9.079-.347 0-.192 4.066-.347 9.079-.347 5.015 0 9.079.155 9.079.347M326.667 296.93c.014.053-.671.282-1.899.705a44.443 44.443 0 00-5.036 2.178c-4.105 2.088-9.461 5.88-13.621 11.608a28.834 28.834 0 00-2.678 4.36c-.678 1.506-1.232 3.01-1.61 4.488-.804 2.947-1.15 5.7-1.352 8.008a73.33 73.33 0 00-.251 5.495c-.013 1.301 0 2.021-.048 2.025-.047.004-.152-.713-.221-2.02a50.527 50.527 0 01.03-5.534c.142-2.334.439-5.124 1.223-8.138.37-1.51.923-3.058 1.615-4.613a28.567 28.567 0 012.732-4.481c4.238-5.839 9.749-9.636 13.962-11.636a35.24 35.24 0 015.172-1.999c1.263-.344 1.972-.487 1.982-.445M27.861 437.82l121.275 44.917 102.23 15.628-121.547-59.254L27.86 437.82" fill="#17282f"/><path d="M79.763 486.253a51.698 51.698 0 00-6.458-18.374c-.646-1.105-1.341-2.209-1.654-3.45-.315-1.24-.18-2.676.685-3.62 1.557-1.694 4.402-.94 6.315.34 3.961 2.652 6.612 6.927 8.166 11.432 1.555 4.507 2.118 9.286 2.67 14.02" fill="#f8a58d"/><path d="M127.03 474.707h-6.032c-1.194-1.264-3.026-2.392-5.287-3.04-1.39-.397-2.757.344-3.99 1.553 2.696-4.44 5.602-9.33 6.16-10.67 1.085-2.604-1.302-4.557-5.21-4.557-3.906 0-21.053 24.31-21.053 24.31s10.657-19.552 11.69-22.539c2.58-7.467-5.583-8.024-8.548-4.421-3.679 4.47-18.553 26.96-18.553 26.96s-2.821 4.559-.867 8.9c1.953 4.34 7.596 2.604 7.596 2.604s-.044 3.796 3.98 6.034c4.355 2.42 10.086-.386 10.086-.386l22.181 4.986s3.521-.353 8.029-.8c11.235-1.118 20.275-9.736 21.924-20.904l-22.107-8.03" fill="#f8a58d"/><path d="M112.08 472.884c.247.152-2.701 4.797-6.535 10.364a286.55 286.55 0 01-5.005 7.07c-1.313 1.785-2.167 2.86-2.246 2.806-.079-.055.632-1.23 1.842-3.087a367.98 367.98 0 014.837-7.182 498.467 498.467 0 014.963-7.092l1.539-2.124c.378-.507.552-.74.606-.755M110.752 497.632c-.09-.05.65-1.453 1.968-3.633 1.31-2.186 3.18-5.167 5.231-8.462 1.02-1.65 2.005-3.22 2.81-4.674.842-1.398.784-2.935.489-4.117-.65-2.417-2.016-3.449-1.893-3.533.024-.028.368.184.862.72a7.144 7.144 0 011.504 2.682c.385 1.225.501 2.984-.394 4.543-.797 1.511-1.764 3.088-2.788 4.745a303.972 303.972 0 01-5.407 8.36c-1.424 2.113-2.303 3.412-2.382 3.369" fill="#f68260"/><path d="M122.417 499.841c-.092-.026.28-1.39 1.179-3.461l1.585-3.616c.577-1.359 1.238-2.859 1.628-4.477.395-1.571.129-3.259-.7-4.335-.4-.533-1.006-.85-1.584-1.13-.574-.266-1.147-.446-1.654-.46-.997.049-1.837.596-2.39.834-.562.28-.89.415-.913.372-.022-.041.255-.252.779-.606.263-.175.589-.386.994-.598.411-.199.873-.464 1.526-.494.623-.014 1.256.163 1.89.426.61.267 1.322.601 1.85 1.253 1.023 1.28 1.304 3.148.879 4.892-.417 1.723-1.106 3.223-1.72 4.584-.627 1.355-1.23 2.552-1.724 3.56-1.007 2.008-1.533 3.285-1.625 3.256M126.503 478.846c.015-.038.357.043.943.287.587.242 1.405.678 2.319 1.362 1.817 1.337 3.99 3.909 4.771 7.375.767 3.471-.105 6.723-1.183 8.706-.535 1.01-1.09 1.75-1.519 2.219-.427.47-.702.689-.732.66-.1-.081.887-1.09 1.81-3.095.928-1.968 1.67-5.067.947-8.337-.737-3.268-2.725-5.759-4.402-7.146-1.688-1.42-3.01-1.913-2.954-2.03M87.441 466.096c.159.107-2.09 3.705-5.02 8.037-2.934 4.332-5.439 7.756-5.598 7.648-.158-.106 2.09-3.705 5.022-8.037 2.932-4.332 5.437-7.757 5.596-7.648" fill="#f68260"/><path d="M231.305 451.804l-13.864-3.144-13.313-12.541a9.456 9.456 0 00-5.94-2.556l-24.23-1.395a9.46 9.46 0 00-6.643 2.216L149.99 449.02l75.561 36.837 10.37.917-4.617-34.97" fill="#f8a58d"/><path d="M190.232 445.33c-.02.111-1.796-.218-4.668-.582-2.827-.312-6.984-.705-10.972 1.139-1.987.888-3.69 2.134-5.23 3.266-1.531 1.15-2.906 2.217-4.12 3.035-1.211.823-2.254 1.399-2.997 1.744-.749.335-1.18.476-1.197.436-.048-.105 1.597-.839 3.91-2.581 1.163-.858 2.495-1.956 4.017-3.142 1.529-1.169 3.257-2.462 5.33-3.39 2.059-.974 4.247-1.323 6.188-1.383 1.955-.056 3.696.161 5.14.39 1.443.235 2.594.5 3.386.693.79.196 1.222.329 1.213.376M195.2 458.82c-.045.11-.992-.324-2.613-.495-1.611-.188-3.898.007-6.232.868-2.34.863-4.291 2.071-5.706 2.927-1.413.868-2.301 1.399-2.357 1.316-.052-.074.732-.744 2.085-1.725 1.355-.965 3.304-2.27 5.739-3.17 2.439-.9 4.868-1.029 6.54-.702 1.687.312 2.583.923 2.544.98M226.385 461.06c-.169.105-2.124-2.79-4.697-6.232-2.565-3.45-4.78-6.15-4.632-6.284.136-.123 2.603 2.39 5.188 5.87 2.595 3.47 4.3 6.553 4.141 6.646" fill="#f68260"/><path d="M188.23 433.601l30.717-28.609a2.934 2.934 0 00-3.958-4.33l-36.018 32.302 9.26.637" fill="#f03d5f"/><path d="M188.23 433.601l-9.26-.637 36.02-32.303a2.933 2.933 0 013.957 4.33l-30.716 28.61" fill="#ba2c42"/><path d="M439.193 157.952c-.474-.192-19.074-5.07-17.949 13.739 1.125 18.806 19.776 13.797 19.777 13.256 0-.542-1.828-26.995-1.828-26.995" fill="#c0776a"/><path d="M434.85 178.165c-.087-.054-.315.248-.854.536-.525.279-1.444.507-2.445.198-2.031-.611-3.892-3.666-4.187-7.05-.15-1.709.11-3.361.636-4.746.492-1.411 1.324-2.424 2.315-2.662.981-.29 1.725.267 1.986.782.284.512.187.893.288.92.056.044.386-.339.187-1.107-.1-.37-.347-.8-.81-1.135-.473-.34-1.147-.488-1.84-.37-1.445.188-2.67 1.6-3.249 3.121-.657 1.532-.992 3.39-.822 5.31.348 3.783 2.5 7.213 5.266 7.837 1.343.265 2.423-.2 2.967-.678.555-.498.628-.925.561-.956" fill="#b85549"/><path d="M486.161 90.759c9.556 0 19.287 0 31.25 6.246 7.545 3.94 12.249 10.184 16.181 17.732 3.01 5.778 4.793 13.344 4.447 19.85-.347 6.504-.37 11.052-2.968 17.025" fill="#17282f"/><path d="M482.34 92.235c28.283-1.975 52.71 19.605 54.19 47.917 1.231 23.561 2.315 49.047 2.054 61.879-.56 27.541-28.144 31.605-28.144 31.605s.608 8.167 1.29 18.3c1.369 20.405-14.387 37.921-34.823 38.696-20.036.759-36.888-14.879-37.628-34.915l-4.096-111.009c-1.011-27.348 19.856-50.567 47.157-52.473" fill="#c0776a"/><path d="M510.44 233.636s-16.927.88-35.336-10.888c0 0 8.33 20.04 35.836 17.777l-.5-6.889" fill="#b85549"/><path d="M525.98 155.477c.057 2.078-1.656 3.839-3.825 3.939-2.164.097-3.968-1.503-4.026-3.58-.057-2.077 1.655-3.841 3.82-3.941 2.17-.1 3.975 1.504 4.031 3.582M529.796 149.908c-.493.51-3.455-1.72-7.688-1.743-4.228-.084-7.352 2.07-7.808 1.547-.224-.23.281-1.152 1.641-2.127 1.342-.97 3.619-1.905 6.255-1.873 2.637.036 4.848 1.024 6.113 2.028 1.295 1.008 1.728 1.94 1.487 2.168M484.468 155.477c.056 2.078-1.656 3.839-3.824 3.938-2.165.098-3.97-1.5-4.027-3.579-.057-2.077 1.656-3.841 3.822-3.94 2.168-.101 3.972 1.504 4.029 3.581M488.181 150.365c-.492.51-3.458-1.72-7.688-1.742-4.228-.083-7.353 2.07-7.806 1.548-.223-.232.276-1.154 1.641-2.127 1.339-.97 3.617-1.907 6.253-1.875 2.638.036 4.847 1.024 6.114 2.028 1.29 1.01 1.726 1.942 1.486 2.168M503.293 181.88c-.018-.241 2.616-.675 6.886-1.185 1.08-.104 2.105-.311 2.293-1.046.261-.78-.181-1.948-.696-3.21-.995-2.623-2.036-5.374-3.13-8.256-4.347-11.754-7.482-21.416-7.009-21.587.476-.17 4.384 9.219 8.728 20.972 1.046 2.899 2.046 5.661 2.996 8.305.4 1.231 1.092 2.63.528 4.246-.297.805-1.096 1.385-1.79 1.566-.694.206-1.302.212-1.838.242-4.293.196-6.954.193-6.968-.047M490.812 184.708c.69-.033.661 4.56 4.567 7.853 3.901 3.303 8.802 2.827 8.833 3.468.061.29-1.099.884-3.165.924-2.028.054-4.986-.621-7.375-2.636-2.383-2.018-3.395-4.696-3.536-6.581-.16-1.923.363-3.056.676-3.028M489.408 133.787c-.428 1.145-4.65.566-9.62 1.126-4.984.459-9 1.88-9.65.843-.289-.496.417-1.573 2.045-2.675 1.614-1.1 4.182-2.137 7.168-2.444 2.982-.302 5.709.192 7.512.943 1.817.75 2.728 1.661 2.545 2.207M529.201 134.839c-.75.954-3.658-.067-7.166-.14-3.503-.199-6.479.593-7.155-.418-.296-.49.179-1.45 1.484-2.349 1.285-.897 3.43-1.621 5.839-1.53 2.408.097 4.489.985 5.702 1.978 1.23.999 1.63 1.992 1.296 2.459" fill="#17282f"/><path d="M435.505 153.304s1.198 6.368 1.518 9.244c.117 1.05-.019 12.72 2.814 13.303 2.439.502 7.286-1.718 9.443-6.544 2.157-4.827 6.263-16.408 5.819-21.676-.606-7.186-.94-14.483.496-21.55 1.434-7.064 4.813-13.954 10.492-18.397 5.678-4.441 13.865-5.997 20.309-2.764 3.977 1.996 6.953 5.53 10.66 7.992 3.333 2.215 7.4 3.543 11.359 2.955 3.958-.587 7.7-3.346 8.78-7.199 1.18-4.204-.987-8.808-4.35-11.592-3.365-2.784-7.713-4.061-11.994-4.912-11.88-2.36-24.472-1.89-35.762 2.496-11.288 4.388-21.302 12.813-26.128 23.921-5.578 12.846-4.929 20.72-3.456 34.723" fill="#17282f"/><path d="M498.47 155.655c-.107.009.011-1.668-.717-4.536-.72-2.814-2.596-6.948-6.825-10.147-2.095-1.563-4.733-2.888-7.775-3.42-3.02-.512-6.426-.412-9.668.824-1.63.568-3.204 1.427-4.649 2.51a17.276 17.276 0 00-3.883 3.906c-2.261 3.01-3.534 6.876-3.572 10.861.036 3.986 1.31 7.854 3.571 10.863a17.255 17.255 0 003.883 3.908c1.445 1.084 3.02 1.941 4.65 2.51 3.242 1.237 6.648 1.337 9.67.825 3.041-.532 5.68-1.859 7.774-3.422 4.23-3.198 6.104-7.333 6.824-10.145.728-2.868.61-4.547.716-4.537.012 0 .019.104.022.304l-.012.893c.001.395-.018.881-.114 1.45-.074.57-.145 1.234-.349 1.955-.65 2.871-2.488 7.135-6.788 10.471-2.132 1.63-4.835 3.021-7.968 3.596-3.11.555-6.63.473-9.993-.788-1.691-.581-3.326-1.463-4.827-2.579a17.873 17.873 0 01-4.036-4.038c-2.35-3.115-3.681-7.131-3.716-11.267.036-4.133 1.367-8.148 3.717-11.263a17.867 17.867 0 014.036-4.037c1.502-1.116 3.135-1.997 4.826-2.577 3.364-1.262 6.882-1.343 9.992-.788 3.133.573 5.836 1.965 7.968 3.594 4.301 3.336 6.138 7.599 6.789 10.471.204.723.275 1.385.35 1.956a8.4 8.4 0 01.113 1.45l.012.893c-.003.201-.01.304-.022.304M546.955 155.655c-.107.009.01-1.668-.718-4.536-.72-2.814-2.597-6.948-6.825-10.147-2.095-1.563-4.733-2.888-7.775-3.42-3.02-.512-6.428-.412-9.669.824-1.63.568-3.204 1.427-4.65 2.51a17.304 17.304 0 00-3.882 3.906c-2.26 3.01-3.533 6.876-3.57 10.861.035 3.986 1.309 7.854 3.569 10.863a17.288 17.288 0 003.884 3.908c1.445 1.084 3.018 1.941 4.649 2.51 3.243 1.237 6.65 1.337 9.67.825 3.042-.532 5.68-1.859 7.774-3.422 4.23-3.198 6.105-7.333 6.825-10.145.728-2.868.611-4.547.718-4.537.01 0 .017.104.018.304l-.009.893c.001.395-.02.881-.113 1.45-.076.57-.148 1.234-.351 1.955-.65 2.871-2.487 7.135-6.79 10.471-2.13 1.63-4.834 3.021-7.966 3.596-3.11.555-6.63.473-9.993-.788-1.691-.581-3.326-1.463-4.827-2.579a17.906 17.906 0 01-4.037-4.038c-2.351-3.115-3.682-7.131-3.715-11.267.035-4.133 1.365-8.148 3.716-11.263a17.922 17.922 0 014.036-4.037c1.501-1.116 3.136-1.997 4.827-2.577 3.362-1.262 6.881-1.343 9.992-.788 3.132.573 5.836 1.965 7.966 3.594 4.303 3.336 6.14 7.599 6.791 10.471.203.723.275 1.385.35 1.956.094.57.115 1.056.114 1.45l.01.893c-.002.201-.009.304-.02.304" fill="#17282f"/><path d="M509.963 153.657c-.06.096-.678-.248-1.73-.596a11.364 11.364 0 00-4.242-.541c-1.68.116-3.142.61-4.136 1.099-.996.484-1.56.906-1.634.82-.053-.056.408-.624 1.398-1.251.98-.627 2.53-1.237 4.325-1.361 1.796-.115 3.412.284 4.467.776 1.064.49 1.597.992 1.552 1.054M517.472 107.188c.27-1.428-.199-2.23.604-2.813.919-.67 2.655 1.084 3.29 1.781.203.223.851-.647 1.1-.815.203-.134.514-1.585.485-1.826-.119-.995-1.684-1.266-2.42-1.943-.736-.68-1.651-1.143-2.596-1.473-.824-.291-1.846-.45-2.487.145-.49.456-.572 1.195-.553 1.864.018.663.11 1.332.376 1.94.265.607.721 1.15 1.325 1.421" fill="#17282f"/><path d="M434.481 138.664s13.503 4.952 20.534 7.93l-.396-6.906-19.648-7.77s-.5 5.13-.49 6.746M435.743 127.935c.074-.178 4.354 1.465 9.558 3.665 5.208 2.201 9.367 4.13 9.291 4.305-.073.178-4.353-1.464-9.56-3.665-5.205-2.201-9.364-4.13-9.29-4.305" fill="#e7e8e5"/><path d="M439.813 273.43l-1.044-32.687s6.494 29.914 40.506 29.524c32.505-.372 31.912-26.355 31.912-26.355l1.158 13.175v53.22l-21.202 86.817-27.072 3.435-29.924-118.678 5.666-8.45" fill="#f03d5f"/><path d="M508.161 262.968c.022.012-.114.25-.392.696-.297.43-.65 1.128-1.289 1.896-1.17 1.61-3.165 3.75-6.055 5.86-2.876 2.123-6.746 4.052-11.308 5.31-4.561 1.24-9.83 1.729-15.258 1.055-5.414-.726-10.4-2.384-14.655-4.41-4.27-2.016-7.848-4.332-10.704-6.451-2.86-2.12-5.035-4.01-6.484-5.37-.736-.666-1.27-1.225-1.643-1.591-.368-.372-.552-.576-.536-.594.018-.017.235.152.632.491l1.727 1.492a91.374 91.374 0 006.592 5.175c2.875 2.054 6.452 4.306 10.687 6.268 4.222 1.972 9.144 3.585 14.474 4.302 5.328.66 10.508.202 15.003-.985 4.495-1.204 8.323-3.055 11.19-5.093 2.88-2.026 4.902-4.083 6.126-5.627 1.24-1.535 1.832-2.464 1.893-2.424" fill="#17282f"/><path d="M484.559 541.988l-.491-154.275-43.81-112.594-1.473-33.887-26.694 20.19s-38.87 133.77-39.468 129.131c-.6-4.637-.015 151.435-.015 151.435h111.95" fill="#e7e8e5"/><path d="M483.507 541.562c-.192 0-.348-34.765-.348-77.637 0-42.888.156-77.645.348-77.645.19 0 .348 34.757.348 77.645 0 42.872-.158 77.637-.348 77.637" fill="#17282f"/><path d="M412.481 283.457l5.418 4.102-3.81 24.958 63.952 66.986-58.084-76.272 4.95-19.774H412.48" fill="#dadbd8"/><path d="M486.957 462.957l-98.142-28.776-3.252-74.546 26.918-98.212s-64.165 32.009-68.53 52.381c-4.366 20.37-14.891 69.89-16.014 105.683-1.002 32.001-1.148 53.397 6.159 63.612 20.928 29.256 158.848 34.48 213.95-.042" fill="#e7e8e5"/><path d="M479.275 381.123c-.01.006-.118-.115-.319-.36l-.88-1.102c-.79-1.008-1.907-2.441-3.335-4.269l-12.158-15.781c-10.232-13.396-24.33-31.847-39.9-52.228l-3.002-3.943-.101-.132.04-.161 4.963-19.771.324.416c-4.291-.007-8.439-.012-12.426-.017h-.318v-.318l.052-22.034.001-.132.104-.079 19.288-14.659 5.295-3.973c.588-.43 1.048-.77 1.392-1.02.316-.228.482-.339.49-.328.008.01-.142.143-.442.39l-1.346 1.08-5.208 4.087-19.148 14.843.104-.21.054 22.035-.318-.316 12.426-.017.428-.001-.104.417-4.938 19.775-.06-.295c.992 1.303 1.994 2.62 3.003 3.943 15.507 20.428 29.547 38.922 39.737 52.35l11.983 15.915 3.23 4.35.826 1.14c.183.26.272.397.263.405" fill="#17282f"/><path d="M523.027 255.616c-7.83-13.69-11.888-12.265-11.888-12.265l.408 4.88.009 10.253-3.71 43.99-23.778 95.59.49 143.924h89.88l11.19-175.687-1.017-75.686-61.584-34.999" fill="#e7e8e5"/><path d="M584.61 290.615s23.266 17.176 25.28 44.805c1.637 22.444 5.394 83.893 6.074 97.27 1.057 20.835-15.165 69.62-57.401 55.8-25.328-8.286-118.911-40.097-118.911-40.097l6.225-39.741 111.075 6.616 2.205-92.641 25.454-32.012" fill="#e7e8e5"/><path d="M444.612 413.228s-31.436-3.399-38.719-1.64c-6.996 1.688-16.96 10.247-16.96 10.247l.142 12.422 50.577 14.136 4.96-35.165" fill="#c0776a"/><path d="M484.068 383.695c-.01-.004.036-.151.139-.43l.473-1.226 1.88-4.699 7.035-17.228 10.516-25.515c.997-2.389 1.984-4.885 3.218-7.322 1.187-2.46 2.584-4.871 4.027-7.311 2.959-4.835 6.31-9.656 9.983-14.405 1.813-2.34 3.641-4.619 5.53-6.8l-.061.353-3.916-9.959-.13-.332.335-.113 16.384-5.57-.168.46-18.574-31.015c-2.25-3.763-4.17-6.77-6.207-8.006-.999-.618-1.892-.861-2.484-1.006-.597-.143-.913-.198-.91-.22 0 0 .323.008.933.121.604.113 1.52.325 2.565.935 1.053.602 2.116 1.678 3.152 3.056a55.867 55.867 0 013.267 4.914c4.604 7.568 11.106 18.255 18.8 30.898l.201.332-.37.126-16.37 5.615.205-.444 3.93 9.955.076.194-.138.16c-1.869 2.163-3.697 4.44-5.501 6.771-3.66 4.73-7.001 9.53-9.95 14.335-1.438 2.421-2.833 4.814-4.014 7.25-1.23 2.414-2.21 4.872-3.221 7.27L494.048 360.3l-7.239 17.144-2 4.648-.536 1.203c-.125.268-.194.405-.205.4M597.373 480.758c.01.009-.124.149-.389.412l-1.195 1.162c-1.068 1.001-2.753 2.372-5.104 3.872a34.553 34.553 0 01-9.346 3.917c-3.839.996-8.416 1.378-13.386.851-2.484-.279-5.053-.827-7.661-1.622-2.608-.831-5.219-1.853-7.98-2.822-5.49-1.992-11.373-4.065-17.57-6.24a2169.832 2169.832 0 00-40.46-13.71c-28.806-9.462-55.069-17.437-74.105-23.12l-22.558-6.674c-2.636-.784-4.696-1.395-6.132-1.821l-1.591-.491c-.356-.115-.539-.179-.535-.19.003-.013.191.03.555.122l1.608.423 6.168 1.697a2190.817 2190.817 0 0122.625 6.463c19.072 5.564 45.367 13.466 74.18 22.932a1909.924 1909.924 0 0140.459 13.766c6.19 2.191 12.07 4.285 17.553 6.302 2.744.978 5.388 2.022 7.943 2.85 2.57.8 5.107 1.356 7.559 1.648 4.904.551 9.429.21 13.233-.741a34.874 34.874 0 009.301-3.77c2.355-1.454 4.058-2.782 5.15-3.747l1.24-1.107c.281-.246.43-.37.438-.362M389.075 434.48c-.023.144-1.766-.235-4.582-.125-1.406.064-3.073.29-4.857.8a22.478 22.478 0 00-5.467 2.495c-3.621 2.325-6.106 5.438-7.604 7.814-1.49 2.4-2.132 4.052-2.257 4-.044-.018.09-.439.372-1.19.264-.757.765-1.809 1.465-3.065 1.414-2.482 3.908-5.742 7.65-8.145a21.64 21.64 0 015.668-2.523 19.554 19.554 0 015.017-.676c1.44.011 2.604.122 3.388.302.788.156 1.216.265 1.207.313M358.157 424.74c-.021-.01.022-.13.126-.35.104-.22.293-.535.617-.873.617-.708 1.853-1.42 3.487-1.732 1.633-.348 3.624-.266 5.764.014a33.06 33.06 0 016.837 1.661c4.732 1.67 8.524 4.335 10.844 6.637 1.157 1.161 1.99 2.195 2.513 2.943.51.76.77 1.19.73 1.217-.111.082-1.21-1.622-3.582-3.804-2.364-2.169-6.104-4.702-10.74-6.34a35.215 35.215 0 00-6.692-1.682c-2.102-.308-4.018-.434-5.588-.163-1.569.24-2.746.835-3.384 1.441-.652.599-.873 1.066-.932 1.031M394.799 339.124c-.048.003-.208-.725-.45-2.024-.197-.632-.488-1.392-.789-2.28-.427-.84-.844-1.833-1.453-2.85-1.196-2.051-2.888-4.331-5.003-6.655-2.172-2.267-4.703-4.643-7.665-6.743-5.899-4.245-12.112-6.732-16.759-7.697-2.335-.418-4.245-.72-5.58-.711-1.33-.063-2.073-.121-2.076-.17-.003-.046.737-.08 2.081-.1 1.35-.091 3.29.137 5.671.5 4.737.854 11.09 3.311 17.068 7.615 3.004 2.128 5.556 4.551 7.732 6.874 2.119 2.381 3.797 4.726 4.959 6.846.593 1.05.988 2.079 1.385 2.947.276.921.533 1.708.692 2.363.168 1.348.235 2.082.187 2.085M581.128 453.112c-.012 0-.023-.161-.033-.475-.008-.35-.019-.812-.03-1.394-.038-1.224-.086-3.032-.265-5.351-.38-4.617-1.17-11.373-3.945-19.213-.69-1.952-1.474-3.992-2.692-5.87a11.515 11.515 0 00-5.2-4.41c-4.467-1.923-9.842-1.67-15.308-1.978l-35.792-1.504c-29.574-1.286-55.883-2.397-72.41-3.281l.222-.179-2.339 14.23-.65 3.77-.182.97c-.044.216-.07.325-.081.324-.01-.002-.002-.114.022-.332.032-.252.074-.574.124-.978.128-.898.31-2.162.54-3.786l2.146-14.266.028-.185.193.007c16.596.69 42.872 1.782 72.417 3.012 12.692.552 24.784 1.08 35.79 1.558 2.749.139 5.429.203 8.046.416 2.608.228 5.174.66 7.464 1.675 2.3.99 4.195 2.683 5.419 4.645 1.25 1.952 2.025 4.03 2.705 6 2.738 7.919 3.454 14.72 3.754 19.358.137 2.329.141 4.14.133 5.366-.016.584-.028 1.046-.039 1.396-.013.315-.025.475-.037.475" fill="#17282f"/><path d="M559.947 366.155c.19 0 .348 10.76.348 24.028 0 13.272-.158 24.028-.348 24.028-.192 0-.348-10.756-.348-24.028 0-13.268.156-24.028.348-24.028M344.724 311.399s-.083.304-.275.885c-.177.588-.52 1.433-.801 2.601-.648 2.31-1.47 5.76-2.388 10.252-1.857 8.983-4.145 22.128-6.71 38.584-1.271 8.231-2.629 17.288-3.963 27.076-.68 4.888-1.1 9.987-1.454 15.262a541.053 541.053 0 00-.833 16.328c-.407 11.209-.644 23.05-.32 35.387.095 3.082.208 6.198.464 9.329.079 1.574.336 3.12.53 4.686.329 1.54.613 3.102 1.137 4.603.958 3.021 2.409 5.928 4.417 8.444 1.997 2.49 4.608 4.65 7.581 5.839l.044.017.012.007c6.154 3.177 12.891 5.48 19.77 7.55 6.892 2.066 14.012 3.73 21.245 5.218 16.181 3.305 32.23 5.246 47.732 5.812 7.756.236 15.36-.058 22.787-.594a278.882 278.882 0 0021.662-2.328c14.012-2.025 27.08-5.138 38.882-9.037 11.809-3.893 22.317-8.619 31.44-13.49l.033.433-43.13-15.27c-5.043-1.8-8.949-3.194-11.614-4.147l-3.003-1.089c-.673-.25-1.012-.393-1.012-.393s.354.1 1.036.328c.698.237 1.706.578 3.026 1.028 2.672.925 6.593 2.279 11.653 4.03l43.201 15.065.508.176-.473.255c-9.13 4.912-19.655 9.68-31.487 13.611-11.825 3.936-24.924 7.079-38.966 9.13a278.524 278.524 0 01-21.71 2.357c-7.432.544-15.073.845-22.853.614-15.55-.557-31.632-2.498-47.85-5.81-7.251-1.492-14.389-3.161-21.303-5.236-6.906-2.081-13.664-4.39-19.895-7.612l.055.023c-3.199-1.28-5.82-3.49-7.898-6.063-2.066-2.595-3.549-5.577-4.526-8.664-.534-1.536-.823-3.126-1.155-4.695-.197-1.589-.456-3.172-.532-4.748-.256-3.148-.367-6.272-.457-9.361-.311-12.361-.055-24.21.372-35.428.213-5.61.505-11.063.866-16.343.366-5.278.799-10.394 1.494-15.294 1.36-9.792 2.745-18.846 4.049-27.074 2.624-16.452 4.98-29.59 6.912-38.565.957-4.49 1.816-7.935 2.504-10.237.301-1.163.665-2.008.863-2.588.212-.576.333-.864.333-.864" fill="#17282f"/><path d="M388.933 425.265c16.411-18.168 15.69-50.481 6.272-73.406-.869 24.837-3.8 46.86-6.045 70.996" fill="#dadbd8"/><path d="M395.239 356.51c.024.003.021.277-.006.797-.038.593-.086 1.345-.148 2.268l-.653 8.332-2.264 27.477c-.839 10.695-1.596 20.372-2.153 27.49l-.628 8.333c-.08.921-.144 1.67-.198 2.263-.052.517-.09.788-.114.787-.024-.001-.032-.274-.024-.794.017-.595.038-1.348.066-2.272.067-1.975.21-4.826.407-8.35.404-7.048 1.076-16.777 1.952-27.513a1618.7 1618.7 0 012.465-27.465l.876-8.314c.112-.918.204-1.665.278-2.256.07-.516.12-.784.144-.782M435.697 323.68c.192 0 .348 6.308.348 14.088 0 7.783-.156 14.09-.348 14.09-.192 0-.346-6.307-.346-14.09 0-7.78.154-14.088.346-14.088" fill="#17282f"/><path d="M425.007 370.492c.242 2.876 1.478 5.468 3.02 7.473 1.541 2.004 4.677 3.966 7.201 3.82 0 0 6.299.539 9.69-4.86 3.071-4.89 3.829-15.062 1.366-21.077-1.695-4.136-5.5-7.98-9.967-8.085-5.866-.139-9.544 4.1-10.797 8.39" fill="#dadbd8"/><path d="M425.52 356.153s.132-1.118 1.085-2.877a11.799 11.799 0 012.202-2.885 10.26 10.26 0 014.152-2.439c.865-.253 1.804-.43 2.789-.445.98-.05 2.036.066 3.052.401 2.045.659 3.939 2.07 5.445 3.907 1.526 1.826 2.65 4.145 3.203 6.666.57 2.515.744 5.187.596 7.9-.272 4.176-1.09 8.331-3.403 11.507-1.169 1.556-2.768 2.681-4.426 3.337-1.67.664-3.372.92-5.011.844h.04c-1.344.052-2.547-.384-3.59-.89a11.798 11.798 0 01-2.702-1.883c-1.513-1.447-2.344-3.057-2.941-4.383a12.95 12.95 0 01-.932-3.238 8.399 8.399 0 01-.084-.879c-.007-.199-.003-.303.012-.304.1-.024.097 1.675 1.3 4.288.621 1.27 1.497 2.844 2.956 4.177.738.66 1.617 1.27 2.618 1.758 1 .468 2.144.852 3.331.788l.01-.002.03.002c3.005.105 6.659-1.052 8.863-4.015 2.152-2.973 2.98-7.059 3.236-11.144.285-5.275-.599-10.59-3.6-14.127-1.431-1.77-3.222-3.121-5.13-3.761a7.923 7.923 0 00-2.86-.413c-.941 0-1.836.154-2.664.381a9.956 9.956 0 00-4.026 2.252 12.128 12.128 0 00-2.231 2.735c-1.007 1.68-1.243 2.77-1.32 2.742" fill="#17282f"/><path d="M421.884 370.756c.244 2.875 1.48 5.468 3.021 7.472 1.542 2.005 4.678 3.967 7.202 3.821 0 0 6.3.539 9.69-4.861 3.071-4.89 3.828-15.061 1.364-21.076-1.693-4.135-5.498-7.98-9.966-8.085-5.866-.14-9.543 4.1-10.796 8.389" fill="#dadbd8"/><path d="M422.399 356.416s.132-1.117 1.085-2.876a11.892 11.892 0 012.201-2.885 10.235 10.235 0 014.152-2.439 10.48 10.48 0 012.79-.445c.98-.05 2.036.065 3.052.401 2.044.659 3.938 2.07 5.446 3.905 1.526 1.828 2.648 4.147 3.202 6.668.57 2.516.744 5.187.594 7.902-.27 4.174-1.09 8.33-3.401 11.506-1.17 1.556-2.768 2.68-4.427 3.336-1.67.664-3.373.919-5.01.843l.04.001c-1.344.052-2.547-.384-3.592-.89a11.86 11.86 0 01-2.7-1.883c-1.514-1.447-2.344-3.057-2.942-4.384a12.87 12.87 0 01-.932-3.237 8.367 8.367 0 01-.084-.879c-.006-.2-.002-.303.011-.304.103-.024.099 1.675 1.301 4.287.62 1.272 1.498 2.844 2.955 4.178.74.66 1.619 1.27 2.62 1.759.999.467 2.145.85 3.33.785h.01l.032.002c3.004.106 6.657-1.052 8.861-4.014 2.152-2.976 2.98-7.06 3.235-11.145.287-5.275-.597-10.59-3.599-14.125-1.432-1.772-3.221-3.123-5.13-3.764a7.939 7.939 0 00-2.859-.412 10.018 10.018 0 00-6.69 2.632 12.153 12.153 0 00-2.231 2.736c-1.007 1.68-1.243 2.77-1.32 2.741" fill="#17282f"/><path d="M427.544 354.916c-2.915-.581-5.927 1.421-7.16 4.127-1.233 2.704-.96 5.892.016 8.7.496 1.428 1.181 2.818 2.22 3.918 1.039 1.102 2.465 1.89 3.979 1.936 2.218.066 4.213-1.446 5.505-3.254 2.083-2.912 2.79-6.764 1.88-10.228-.61-2.311-2.31-4.682-4.7-4.744" fill="#dadbd8"/><path d="M429.284 355.372c0-.02.181-.043.53-.015.346.034.862.156 1.446.49 1.17.648 2.507 2.253 3.05 4.588.566 2.292.5 5.28-.823 8.162-.664 1.422-1.611 2.842-2.99 3.924-1.33 1.082-3.281 1.779-5.144 1.232-1.84-.516-3.24-1.882-4.11-3.36-.883-1.493-1.391-3.072-1.714-4.606-.641-3.07-.12-6.108 1.332-8.055 1.428-1.961 3.352-2.785 4.652-2.957a5.098 5.098 0 011.522-.004c.341.072.513.121.509.145-.007.079-.73-.137-1.984.125-1.227.242-3.01 1.099-4.297 2.975-1.302 1.845-1.754 4.707-1.106 7.641.322 1.464.836 2.996 1.667 4.384.82 1.376 2.099 2.591 3.715 3.043 1.609.47 3.296-.108 4.541-1.099 1.272-.985 2.181-2.314 2.828-3.66 1.287-2.72 1.407-5.569.923-7.781-.456-2.23-1.659-3.792-2.712-4.467-1.071-.696-1.854-.624-1.835-.705" fill="#17282f"/><path d="M434.27 376.833c-.107.027-.253-.418-.71-.954-.447-.538-1.25-1.138-2.276-1.459-1.036-.323-2.057-.376-2.799-.435-.745-.054-1.216-.114-1.218-.214-.003-.092.454-.206 1.214-.278.754-.062 1.844-.096 3.012.264 1.174.366 2.063 1.138 2.467 1.838.417.704.39 1.229.31 1.238M435.316 353.099c.061.06-.205.477-.825.968-.616.49-1.614 1.009-2.811 1.228-1.199.214-2.315.077-3.063-.167-.753-.244-1.149-.54-1.112-.617.071-.194 1.844.525 4.051.1 2.215-.375 3.625-1.668 3.76-1.512M526.933 257.593c.011-.021.162.035.439.162.277.126.687.318 1.187.613a24.163 24.163 0 013.994 2.856c3.147 2.68 6.823 7.424 8.583 13.58 1.841 6.037 2.837 11.701 3.268 15.807.23 2.053.356 3.72.433 4.872.068 1.152.082 1.79.034 1.794-.047.006-.152-.625-.303-1.768l-.652-4.836A101.895 101.895 0 00540.469 275c-1.722-6.019-5.232-10.679-8.244-13.41-3.016-2.78-5.37-3.873-5.292-3.997M510.327 404.361c3.864-.148 6.952-4.001 10.813-3.794 2.865.153 5.31 2.96 5.068 5.818-.243 2.859-3.124 5.214-5.973 4.884-4.058-.47-6.432-5.226-10.412-6.14" fill="#17282f"/><path d="M543.096 407.653a23.16 23.16 0 01-3.619-.3l.211-1.317c4.777.767 8.787-.02 11.925-2.327 3.947-2.9 6.49-8.089 7.56-15.421l.042-.28c.436-2.905 1.038-59.933 1.04-70.76.002-16.912-14.844-19.22-15.476-19.31-.6-.111-14.094-2.365-21.255 16.106-7.496 19.344-19.48 56.62-20.273 60.99a56.559 56.559 0 01-.415 1.966c-1.247 5.595-3.839 17.233 3.924 23.937 8.653 7.474 15.48 4.582 15.764 4.456l.548 1.216c-.32.142-7.85 3.398-17.184-4.664-8.367-7.224-5.656-19.389-4.355-25.236.167-.746.312-1.392.406-1.913.8-4.404 12.826-41.839 20.344-61.233 7.572-19.546 22.562-16.971 22.712-16.94.137.018 16.596 2.537 16.593 20.625-.001 8.919-.592 67.873-1.056 70.959l-.04.274c-1.123 7.698-3.845 13.183-8.09 16.302-2.6 1.91-5.718 2.87-9.306 2.87" fill="#17282f"/><path d="M560.921 328.156c-.176.06-.389-2.844-2.776-6.647-1.188-1.877-2.941-3.913-5.269-5.705-2.336-1.773-5.26-3.287-8.563-4.047-6.662-1.532-12.993.13-16.88 2.202-3.978 2.07-5.756 4.336-5.866 4.202-.019-.014.086-.156.302-.408.227-.242.523-.644.998-1.064.897-.897 2.349-2.052 4.336-3.164 1.982-1.114 4.542-2.113 7.513-2.648 2.96-.54 6.35-.592 9.755.204 3.409.786 6.417 2.364 8.796 4.216 2.372 1.871 4.134 3.999 5.298 5.956 1.156 1.966 1.78 3.723 2.055 4.96.179.61.212 1.107.27 1.435.043.33.055.505.031.508M594.876 434.75c-.143.03-.37-2.298-1.83-5.688-1.435-3.349-4.327-7.795-9.045-10.853-2.333-1.518-4.954-2.224-7.338-2.647-2.402-.4-4.607-.545-6.458-.671l-4.392-.303c-1.036-.096-1.608-.173-1.605-.22.004-.048.58-.061 1.619-.05l4.402.083c1.859.064 4.083.156 6.538.53 2.436.394 5.162 1.102 7.609 2.693 4.88 3.164 7.775 7.785 9.124 11.25.683 1.749 1.052 3.226 1.217 4.26.174 1.03.198 1.61.159 1.615" fill="#17282f"/><path d="M527.62 412.493s13.11-19.858 16.46-22.46c3.352-2.602 31.97-15.522 35.321-13.445 3.351 2.077 1.288 6.585 1.288 6.585s12.116-4.244 13.406-2.572c1.289 1.674 1.546 4.508 0 6.83 0 0 6.704-1.032 6.704 1.03 0 2.063-.775 4.64-3.868 6.962-3.094 2.32-23.21 15.713-24.823 19.41l-6.516-.396-37.972-1.944" fill="#c0776a"/><path d="M565.353 406.816c-.038-.021.158-.476.598-1.252.437-.777 1.149-1.86 2.154-3.105 1.991-2.502 5.318-5.51 9.51-8.006 4.19-2.498 8.288-4.149 11.246-5.285a99.574 99.574 0 013.539-1.275c.843-.281 1.315-.413 1.333-.369.016.044-.425.263-1.236.623l-3.45 1.477c-2.908 1.25-6.943 2.96-11.075 5.424-4.13 2.463-7.439 5.348-9.492 7.728-2.076 2.37-3.019 4.104-3.127 4.04M548.72 406.492c-.041-.021.187-.54.635-1.459a75.56 75.56 0 012.017-3.837c.91-1.59 2.048-3.47 3.615-5.35.805-.933 1.618-1.889 2.746-2.722 1.107-.747 2.271-1.447 3.474-2.161 4.826-2.819 9.38-5.056 12.801-6.384a37.189 37.189 0 014.119-1.379c1.005-.225 1.561-.327 1.57-.28.028.117-2.174.627-5.502 2.113-3.343 1.432-7.836 3.726-12.636 6.528-1.194.708-2.363 1.407-3.44 2.124-.994.716-1.868 1.692-2.644 2.574-1.555 1.812-2.723 3.641-3.679 5.186l-2.203 3.716c-.521.88-.832 1.355-.873 1.331" fill="#b85549"/><path d="M898.561 542.345c0 .194-201.166.348-449.26.348C201.123 542.693 0 542.54 0 542.345c0-.192 201.123-.346 449.301-.346 248.094 0 449.26.154 449.26.346" fill="#17282f"/></svg>