<svg xmlns="http://www.w3.org/2000/svg" height="666.12" width="1000.28"><path d="M0 666.12h1000.283V-.001H0z" fill="#fff"/><path d="M999.19 579.244H629.254v-22.443h369.938v22.443m-371.407 0h-5.172v-22.443h5.172v22.443m-210.704 0h-2.647v-2.23h2.647v2.23m-21.172 0H.383v-22.443H68.74v1.662c0 10.246 8.305 18.55 18.55 18.55h173.733c10.245 0 18.552-8.304 18.552-18.55V556.8h6.949v1.931c0 10.097 8.187 18.281 18.284 18.281h91.1v2.231" fill="#bfd6e5"/><path d="M904.38 379.07h-20.632v-82.925l18.583-26.192h24.789v86.378c0 12.56-10.18 22.74-22.74 22.74m-329.185 0h-1.351c-12.559 0-22.74-10.18-22.74-22.74v-86.378 85.027c0 13.305 10.785 24.09 24.09 24.09m308.554-102.5v-6.617h4.755l-3.207 4.464-1.548 2.154m43.372-12.516h-43.372v-119.44h-51.33 71.962c12.56 0 22.74 10.18 22.74 22.74v96.7" fill="#a7c4d5"/><path d="M883.748 379.07h-58.832l.115-.16h12.236v-17.247l9.825-13.85v31.096h28.883v-33.732c0-3.909-3.171-7.08-7.082-7.08h.174v-7.533h-9.738l24.419-34.419v82.926m-106.365 0h-37.096v-.162h18.458v-.348h10.931v.348h7.707v.162m-80.734 0h-19.061V270.32h-4.464v108.75h-97.93c-13.305 0-24.09-10.786-24.09-24.091v-85.027h244.452a1823.43 1823.43 0 00-11.657 14.544 1703.469 1703.469 0 00-35.23 46.067h-8.382v-7.623h-43.638v56.13m-45.429-2.231a3.932 3.932 0 00-2.763-3.756v-25.645a4.615 4.615 0 00-4.614-4.615h-3.366v-4.09a.77.77 0 00.767-.77v-1.275a.77.77 0 00-.77-.769h-8.563a.77.77 0 00-.768.77v1.274c0 .425.344.77.768.77h.126v4.09h-8.886v-4.09a.77.77 0 00.766-.77v-1.275a.77.77 0 00-.768-.769h-8.564a.77.77 0 00-.769.77v1.274c0 .425.344.77.77.77h.125v4.09h-7.78v-4.09a.77.77 0 00.766-.77v-1.275a.77.77 0 00-.768-.769h-8.565a.768.768 0 00-.768.77v1.274c0 .425.343.77.768.77h.127v4.09h-9.624v-4.09a.77.77 0 00.766-.77v-1.275a.77.77 0 00-.768-.769h-8.564a.77.77 0 00-.769.77v1.274c0 .425.344.77.77.77h.125v4.09h-3.059a4.617 4.617 0 00-4.616 4.615v25.63a3.934 3.934 0 00-2.81 3.771h81.278m41.812-77.212a.554.554 0 00-.555.553v40.92a.555.555 0 001.11 0v-40.92a.555.555 0 00-.555-.553m-33.179 0a.554.554 0 00-.554.553v40.92a.555.555 0 001.109 0v-40.92a.554.554 0 00-.555-.553m-12.934 72.607H574.29v-24.796a3.08 3.08 0 013.077-3.076h3.059v19.052c0 2.329 1.889 4.217 4.218 4.217h.003a4.217 4.217 0 004.219-4.217v-19.052h9.624v19.052c0 2.329 1.889 4.217 4.218 4.217h.003a4.218 4.218 0 004.219-4.217v-19.052h7.78v19.052c0 2.329 1.889 4.217 4.218 4.217h.003a4.217 4.217 0 004.219-4.217v-19.052h8.886v19.052c0 2.329 1.89 4.217 4.219 4.217h.003a4.218 4.218 0 004.218-4.217v-19.052h3.366a3.08 3.08 0 013.076 3.076v24.796m189.508-30.406a7.08 7.08 0 00-6.242-3.732h.175v-7.533h-3.696l.476-.637c15.076-20.17 30.475-40.099 46.117-59.834l.112-.14h10.379v6.618c-8.175 11.366-25.367 35.225-41.301 57.036a4483.06 4483.06 0 01-6.02 8.222m17.556-3.729l.016-.021v.018h.173l-.19.003m29.766-74.045h-51.33v-119.44h51.33v119.44m-40.31-75.02a.554.554 0 00-.554.553v40.92a.554.554 0 001.108 0v-40.92a.554.554 0 00-.553-.553m-15.484 75.02H642.809l.26-.37h10.952v-.237h26.54v-10.207h.183V236.16h-.183v-6.444c0-3.91-3.17-7.081-7.08-7.081h.175v-1.215c2.548-3.445 5.105-6.885 7.67-10.317a2748.066 2748.066 0 0119.851-26.223l10.863 4.504a25.467 25.467 0 00-1.356 11.87c-1.89.674-4.085 1.458-5.599 2-.792-.215-1.586-.455-2.381-.455-.47 0-.943.084-1.413.308-1.188.564-1.704 1.925-1.271 3.157.427 1.207 1.615 1.887 2.844 1.887.152 0 .304-.011.456-.031 1.473-.205 2.545-1.288 3.188-2.568l4.637-1.656a25.466 25.466 0 007.934 13.365l-8.887 11.07c-1.343.277-3.013.738-3.743 1.853-.784 1.199-.001 2.552 1.012 3.29.691.503 1.527.986 2.339.986.468 0 .928-.161 1.348-.57 1.088-1.065 1.544-2.906 1.741-4.355l-.017-.32 8.27-10.303c.213.153.426.301.643.448v12.335c-1.284.393-2.661 1.057-2.912 2.526-.237 1.382.883 2.36 2.046 2.823.278.11.572.22.866.308v5.879a3.607 3.607 0 00-2.156-.711h.091v-3.863h-7.728v3.863h.09a3.633 3.633 0 00-3.633 3.632v3.304h-.092v8.759h.092v5.233h13.336v.237h53.086v-72.99h-4.603c.963-.643 1.257-1.894.94-3.035-.325-1.17-1.22-2.799-2.573-2.799-.132 0-.267.015-.407.047-1.477.343-2.837 2.248-3.708 3.383a512.783 512.783 0 01-4.245 1.685 25.5 25.5 0 00-6.659-10.39l7.872-9.771c1.577-.395 3.225-.696 4.217-2.118.992-1.422.515-3.062-.669-4.193-.747-.715-1.86-1.388-2.89-1.388-.615 0-1.202.243-1.66.865-1.154 1.568-1.526 4.084-1.725 6.004l-7.158 8.884a25.626 25.626 0 00-6.287-3.542l1.66-7.039c1.124-.635 2.16-1.415 2.628-2.681.499-1.347.053-2.946-1.241-3.668a2.796 2.796 0 00-3.71.928c-1.033 1.602-.372 3.488-.352 5.244l-1.505 6.382a25.446 25.446 0 00-7.33-.892l-.183-5.197c.713-1.095 1.301-2.297.998-3.643-.248-1.106-1.197-2.077-2.38-2.086h-.02c-1.169 0-2.076.928-2.334 2.03-.316 1.34.337 2.55 1.088 3.611l.193 5.484a25.561 25.561 0 00-3.29.636l-2.955-12.752.105-.2c.617-1.767 1.353-4.181.593-6.012a2.605 2.605 0 00-1.384-1.401c2.182-2.77 4.368-5.538 6.559-8.3l.124-.156h95.375v119.44m-139.411-5.84v5.233h14.81v-5.233h.093v-8.759h-.094v-3.304a3.632 3.632 0 00-3.63-3.632h.089v-3.863h-7.727v3.863h.088a3.63 3.63 0 00-3.629 3.632v3.304h-.095v8.759h.095m95.741-26.6a6.097 6.097 0 00-6.097 6.096v19.509a6.098 6.098 0 006.097 6.097h5.5a6.099 6.099 0 006.099-6.097v-19.51a6.098 6.098 0 00-6.099-6.095h-5.5m31.504-42.58a.555.555 0 00-.554.553v40.92a.555.555 0 001.109 0v-40.92a.554.554 0 00-.555-.553m-258.605 75.02h-6.08V165.056c0-11.29 9.152-20.441 20.441-20.441h74.769a2004.017 2004.017 0 00-12.92 16.122 1909.79 1909.79 0 00-23.246 29.958h-29.921v40.494a1787.861 1787.861 0 00-23.043 32.866m209.841-73.36h-1.392l.748-.302c.214.104.428.208.644.302m-53.949-3.743l-10.233-4.243a2833.13 2833.13 0 0110.414-13.481 14 14 0 001.798.805l5.282 7.962a25.692 25.692 0 00-7.261 8.957m9.428-10.475l-5.29-7.972-.05-.214c-.356-.931-.524-1.978-.921-2.899 1.842-2.365 3.689-4.727 5.54-7.087.526.828 1.422 1.362 2.062 2.279l3.168 13.657c-1.588.6-3.097 1.351-4.509 2.236" fill="#b8d2e1"/><path d="M931.544 269.953h-29.213l.161-.228h-13.827l-.068.095-.094.133h-15.134l.18-.228H795.74l-.068.084-.116.144H549.629v-5.898h7.555l-.39.568-.269.394h85.603l.076-.106c.201-.286.403-.572.605-.856h185.146v.737h4.462v-.737H931.544v5.898" fill="#f6fcfe"/><path d="M677.588 379.808h-4.464V270.321h4.464v109.487" fill="#d8e5ee"/><path d="M832.417 264.792h-4.462V144.245h4.462v120.547" fill="#f6fcfe"/><path d="M693.032 341.656a.555.555 0 01-.555-.555v-40.92a.554.554 0 011.11 0v40.92c0 .306-.25.555-.555.555M659.853 341.656a.555.555 0 01-.554-.555v-40.92a.554.554 0 011.109 0v40.92a.555.555 0 01-.555.555M843.439 231.061a.554.554 0 01-.555-.553v-40.92a.554.554 0 011.108 0v40.92a.554.554 0 01-.553.553M815.79 231.061a.555.555 0 01-.555-.553v-40.92a.555.555 0 011.109 0v40.92a.554.554 0 01-.555.553" fill="#d8e5ee"/><path d="M651.22 376.84h-81.279a3.934 3.934 0 012.811-3.77v.702h75.705v-.688a3.932 3.932 0 012.763 3.756M584.648 367.632h-.003a4.218 4.218 0 01-4.218-4.217v-19.052h8.44v19.052a4.217 4.217 0 01-4.219 4.217m4.219-24.808h-8.44v-4.09H588.867v4.09" fill="#c7dae7"/><path d="M588.865 338.735h-8.564a.77.77 0 01-.769-.771v-1.275a.77.77 0 01.77-.769h8.563a.77.77 0 01.768.77v1.274a.77.77 0 01-.766.77h-.002M602.712 367.632h-.003a4.218 4.218 0 01-4.218-4.217v-19.052h8.44v19.052c0 2.329-1.89 4.217-4.219 4.217m4.219-24.808h-8.44v-4.09H606.93v4.09" fill="#c7dae7"/><path d="M606.93 338.735h-8.566a.769.769 0 01-.768-.771v-1.275c0-.424.343-.769.768-.769h8.565a.77.77 0 01.768.77v1.274a.77.77 0 01-.766.77h-.002M618.932 367.632h-.003a4.218 4.218 0 01-4.218-4.217v-19.052h8.44v19.052a4.217 4.217 0 01-4.219 4.217m4.219-24.808h-8.44v-4.09H623.15v4.09" fill="#c7dae7"/><path d="M623.15 338.735h-8.565a.77.77 0 01-.769-.771v-1.275a.77.77 0 01.77-.769h8.563a.77.77 0 01.768.77v1.274a.77.77 0 01-.766.77h-.002M636.259 367.632h-.003a4.218 4.218 0 01-4.219-4.217v-19.052h8.44v19.052c0 2.329-1.889 4.217-4.218 4.217m4.218-24.808h-8.44v-4.09H640.477v4.09" fill="#c7dae7"/><path d="M640.475 338.735h-8.564a.77.77 0 01-.768-.771v-1.275a.77.77 0 01.768-.769h8.564a.77.77 0 01.769.77v1.274a.77.77 0 01-.767.77h-.002M648.457 373.772h-75.705v-26.333a4.617 4.617 0 014.616-4.615h66.475a4.615 4.615 0 014.614 4.615v26.333m-.769-.768v-.77.77m-70.32-28.641a3.08 3.08 0 00-3.077 3.076v24.796h72.628v-24.796a3.08 3.08 0 00-3.076-3.076h-66.475" fill="#c7dae7"/><path d="M696.65 379.224h43.637v-.154h-43.638z" fill="#d9e4ee"/><path d="M740.287 379.07h-43.638v-56.129h43.638v7.623h-3.518v7.533h.175a7.081 7.081 0 00-7.081 7.08v11.396a1613.57 1613.57 0 00-15.059 21.634l-.243.354H729.862v.348h10.425v.162" fill="#b4ccdd"/><path d="M817.135 379.224h-39.752v-.153h30.237l-.103.057.864.01v-.067.066l8.754.087" fill="#d9e4ee"/><path d="M807.62 379.07h-30.237v-.16h21.176v-9.89c3.258-4.559 6.533-9.103 9.825-13.637v23.25a.662.662 0 01-.11.078l-.654.36" fill="#b4ccdd"/><path d="M758.745 378.91h-28.882v-.349h28.882v.348m-28.882-22.336v-11.396c0-3.909 3.17-7.08 7.081-7.08h6.199c-4.471 6.13-8.896 12.286-13.28 18.476M743.143 338.097h-6.374v-7.533h11.9a1514.74 1514.74 0 00-5.526 7.533M798.559 378.91h-28.883v-.349h22.103l.068-.096c2.229-3.153 4.466-6.302 6.712-9.445v9.89M837.267 378.91H825.03l12.236-17.247v17.246m-28.883-.276v-23.25a2260.997 2260.997 0 0112.676-17.286h9.125a7.08 7.08 0 016.242 3.732c-6.28 8.559-12.136 16.472-16.876 22.763-3.115 4.132-5.747 7.564-7.702 10.017a89.683 89.683 0 01-2.396 2.908c-.488.564-.87.954-1.069 1.116" fill="#c7dae7"/><path d="M830.36 338.097h-9.3c1.863-2.514 3.73-5.026 5.604-7.533h3.696v7.533M875.975 378.91h-28.883v-31.097l6.89-9.713.19-.003h14.721c3.911 0 7.082 3.171 7.082 7.08v33.732M869.067 338.097h-15.068v-.018l5.33-7.515h9.738v7.533" fill="#c7dae7"/><path d="M580.227 231.19v-40.495h29.921a1849.91 1849.91 0 00-29.921 40.494M774.87 263.685h-53.085v-.237h1.475v-5.233h.093v-8.759h-.093v-3.304c0-1.197-.58-2.26-1.475-2.921v-5.879c.352.103.707.173 1.039.173.652 0 1.223-.272 1.535-1.101.453-1.2.349-2.604-.083-3.813l4.207-10.039a25.427 25.427 0 007.544 1.141 25.881 25.881 0 006.107-.73c.522 1.498 1.298 3.742 1.947 5.625-.749.768-.812 1.953-.257 2.903.3.513.772 1.022 1.353 1.2.147.044.291.064.434.064.397 0 .781-.151 1.146-.331.996-.493 1.903-1.377 1.739-2.587-.137-1.021-.977-1.714-1.896-2.058-.576-1.668-1.368-3.963-1.932-5.576a25.348 25.348 0 005.267-2.603l10.278 12.116a6.097 6.097 0 00-4.881 5.975v19.509a6.098 6.098 0 006.097 6.097h5.502a6.097 6.097 0 006.096-6.097v-19.51a6.096 6.096 0 00-6.096-6.095h-1.032c-.866-1.252-2.402-1.174-3.702-1.627l-10.116-11.923a25.698 25.698 0 006.822-8.452l8.197 3.552c1.104 1.506 2.895 3.468 4.484 3.468.73 0 1.419-.414 1.977-1.477.706-1.34.546-2.85-.71-3.787-.843-.629-1.818-.762-2.818-.762-.676 0-1.364.06-2.029.07l-8.037-3.484a25.452 25.452 0 001.556-11.168 25.861 25.861 0 00-.531-3.481 428.096 428.096 0 004.641-1.85h1.392c.567.247 1.146.433 1.75.433.309 0 .624-.048.946-.162.203-.07.384-.161.547-.27h4.603v72.99m-46.514-5.47v5.233h14.81v-5.233h.094v-8.759h-.094v-3.304a3.63 3.63 0 00-3.63-3.632h.088v-3.863H731.9v3.863h.089a3.632 3.632 0 00-3.63 3.632v3.304h-.094v8.759h.093m-6.572-26.52V219.36a25.702 25.702 0 004.214 2.297l-4.204 10.035c-.003.001-.006.003-.01.003M654.021 263.685H643.07c2.799-3.953 5.607-7.897 8.43-11.834v1.39h.18v10.207h2.342v.237" fill="#afc8da"/><path d="M654.021 263.448h26.54v-10.207h-26.54z" fill="#cddeea"/><path d="M651.679 263.448h2.342v-10.207h-2.342z" fill="#cadae6"/><path d="M680.561 236.16h-17.726c3.293-4.52 6.6-9.028 9.922-13.525h.724c3.91 0 7.08 3.17 7.08 7.081v6.444M673.656 222.635h-.899l.899-1.215v1.215" fill="#cddeea"/><path d="M680.252 252.75h-26.23v-4.414c2.807-3.904 5.625-7.797 8.455-11.684h17.775v16.097" fill="#d9e6ee"/><path d="M654.021 252.75h-2.032v-1.586c.676-.943 1.355-1.887 2.032-2.828v4.413" fill="#d4e3ec"/><path d="M680.744 253.241h-.183V236.16h.183v17.081" fill="#cfddea"/><path d="M651.679 253.241h-.18v-1.39c.06-.084.12-.17.18-.252v1.642" fill="#c7dae5"/><path d="M680.561 253.241h-26.54v-.492h26.231v-16.097h-17.775l.358-.492h17.726v17.081m-.064-.245v-.247.247" fill="#d9e6ee"/><path d="M654.021 253.241h-2.342V251.6l.31-.435v1.585h2.032v.492" fill="#d4e3ec"/><path d="M703.353 263.448h-14.809v-5.233h14.81v5.233m0-13.992h-14.81v-3.304a3.63 3.63 0 013.63-3.632h7.549a3.632 3.632 0 013.63 3.632v3.304" fill="#cddeea"/><path d="M699.812 242.52h-7.727v-3.863h7.727v3.863" fill="#cddeea"/><path d="M688.703 257.961h14.492v-8.253h-14.492z" fill="#d9e6ee"/><path d="M703.447 258.215h-.094v-8.759h.094v8.759m-14.903 0h-.095v-8.759h.095v8.759" fill="#cfddea"/><path d="M703.353 258.215h-14.809v-8.759h14.81v8.759m-.033-.127v-.127.127m-14.618-8.38v8.253h14.492v-8.253h-14.492" fill="#d9e6ee"/><path d="M708.45 263.448h13.335v-5.233H708.45z" fill="#cddeea"/><path d="M721.785 263.448h1.475v-5.233h-1.475z" fill="#cadae6"/><path d="M721.785 249.456H708.45v-3.304a3.633 3.633 0 013.632-3.632h7.548c.808 0 1.554.264 2.156.71v6.226" fill="#cddeea"/><path d="M723.26 249.456h-1.475v-6.225a3.626 3.626 0 011.475 2.921v3.304" fill="#cadae6"/><path d="M719.72 242.52h-7.728v-3.863h7.728v3.863" fill="#cddeea"/><path d="M708.61 257.961h13.175v-8.253H708.61z" fill="#d9e6ee"/><path d="M721.785 257.961h1.316v-8.253h-1.316z" fill="#d4e3ec"/><path d="M723.353 258.215h-.093v-8.759h.093v8.759" fill="#c7dae5"/><path d="M708.357 258.215h.093v-8.76h-.093z" fill="#cfddea"/><path d="M721.785 258.215H708.45v-8.759h13.336v.252H708.61v8.253h13.176v.254" fill="#d9e6ee"/><path d="M723.26 258.215h-1.475v-.254h1.316v-8.253h-1.316v-.252h1.475v8.759m-.033-.127v-.127.127" fill="#d4e3ec"/><path d="M743.167 263.448h-14.81v-5.233h14.81v5.233m0-13.992h-14.81v-3.304a3.632 3.632 0 013.631-3.632h7.55a3.63 3.63 0 013.629 3.632v3.304" fill="#cadae6"/><path d="M739.625 242.52H731.9v-3.863h7.726v3.863" fill="#cadae6"/><path d="M728.516 257.961h14.492v-8.253h-14.492z" fill="#d4e3ec"/><path d="M743.261 258.215h-.094v-8.759h.094v8.759m-14.904 0h-.093v-8.759h.093v8.759" fill="#c7dae5"/><path d="M743.167 258.215h-14.81v-8.759h14.81v8.759m-.032-.127v-.127.127m-14.619-8.38v8.253h14.492v-8.253h-14.492" fill="#d4e3ec"/><path d="M766.93 263.317h-5.5a6.098 6.098 0 01-6.098-6.097v-19.51a6.097 6.097 0 014.881-5.974l.03.035c-.242 1.454-.578 3.605.689 4.558.385.291.864.411 1.37.411 1.04 0 2.189-.507 2.865-1.079 1.124-.949 1.62-2.702.765-3.998a1.04 1.04 0 00-.033-.048h1.032a6.096 6.096 0 016.096 6.096v19.509a6.097 6.097 0 01-6.096 6.097" fill="#cadae6"/><path d="M789.785 263.317h-5.5a6.098 6.098 0 01-6.097-6.097v-19.51a6.097 6.097 0 016.097-6.095h5.5a6.098 6.098 0 016.099 6.096v19.509a6.099 6.099 0 01-6.099 6.097" fill="#cddeea"/><path d="M642.192 264.055h-84.399a1798.921 1798.921 0 0122.434-32.002v31.632h53.085v-72.99H610.78a1906.837 1906.837 0 0123.008-29.644c4.292-5.42 8.623-10.81 12.97-16.186h84.98a3651.106 3651.106 0 00-6.351 8.04 2.967 2.967 0 00-1.594.088c-1.525.512-2.426 2.171-2.445 3.722-.005.425.064.782.184 1.096-1.85 2.357-3.696 4.718-5.539 7.081a3.547 3.547 0 00-.75-.925 2.813 2.813 0 00-1.842-.692c-.612 0-1.222.205-1.724.624-1.014.85-1.202 2.365-.524 3.48.395.649.994 1.169 1.666 1.592a3022.504 3022.504 0 00-10.458 13.538l-4.014-1.665c-.807-1.152-1.927-2.305-3.311-2.516a2.395 2.395 0 00-.361-.028c-1.251 0-2.288 1.003-2.496 2.244-.232 1.393.425 2.939 1.873 3.25.659.143 1.34.225 2.019.225.758 0 1.513-.102 2.228-.334l2.397.995a2748.946 2748.946 0 00-19.772 26.121c-2.43 3.252-4.853 6.508-7.268 9.772v-5.472h-15.07v7.534h.174c-1.823 0-3.484.689-4.739 1.82v-33.76H636.63v72.99h5.824l-.261.37" fill="#c3dbe7"/><path d="M641.868 264.513h-84.39l.315-.458h84.399l-.324.458" fill="#f6fcfe"/><path d="M633.312 263.685h-53.085v-31.632a1845.418 1845.418 0 0130.553-41.358h22.532v72.99M642.453 263.685h-5.824v-72.99h17.392v33.76a7.061 7.061 0 00-2.342 5.261v6.444h-.18v14.827c-3.03 4.224-6.044 8.456-9.046 12.698" fill="#bdd2e0"/><path d="M662.212 236.16h-8.19v-11.705a7.055 7.055 0 014.738-1.82h13.37a2585.36 2585.36 0 00-9.918 13.525" fill="#d6e3ed"/><path d="M654.021 236.16h-2.342v-6.444c0-2.088.904-3.965 2.342-5.261v11.705" fill="#d4e0ec"/><path d="M672.13 222.635h-13.543V215.1h15.069v5.472c-.51.687-1.017 1.375-1.525 2.062" fill="#d6e3ed"/><path d="M654.021 247.473v-10.821h7.834a2476.674 2476.674 0 00-7.834 10.821" fill="#e0eaef"/><path d="M651.99 250.301v-13.649h2.031v10.821l-2.032 2.828" fill="#dde8f0"/><path d="M651.499 250.987V236.16h.18v14.575c-.06.082-.12.168-.18.252" fill="#d1dee8"/><path d="M661.855 236.652h-7.834v-.492h8.191l-.357.492" fill="#e0eaef"/><path d="M651.679 250.735V236.16h2.342v.492h-2.032v13.65l-.31.433" fill="#dde8f0"/><path d="M642.81 264.055h-.618l.261-.37h.616l-.26.37m-85.016 0h-.609a1787.861 1787.861 0 0123.043-32.866v.864a1798.921 1798.921 0 00-22.434 32.002" fill="#c3dbe7"/><path d="M642.128 265.017h-85.603l.27-.394.389-.568h.61c-.105.15-.211.306-.315.458h84.389l.324-.458h.617c-.202.284-.404.57-.605.856l-.076.106" fill="#f6fcfe"/><path d="M732.58 144.615h-86.265c.042-.054.085-.106.128-.159l.076-.093h86.26l-.199.252" fill="#fff"/><path d="M673.656 221.42v-.847c2.415-3.264 4.837-6.52 7.268-9.772a2748.946 2748.946 0 0119.772-26.121l.481.2a2748.066 2748.066 0 00-19.85 26.223 2519.766 2519.766 0 00-7.671 10.317m-62.876-30.725h-.632a1909.79 1909.79 0 0123.245-29.958c4.276-5.398 8.591-10.769 12.922-16.122h86.265l-.124.156c-2.19 2.762-4.377 5.53-6.559 8.3a2.82 2.82 0 00-.51-.166c2.113-2.682 4.229-5.362 6.35-8.04H646.76a2013.658 2013.658 0 00-12.971 16.186 1906.837 1906.837 0 00-23.008 29.644m92.063-7.986l-.482-.2c3.474-4.522 6.959-9.036 10.458-13.538.142.089.289.176.438.257a2833.13 2833.13 0 00-10.414 13.481m13.4-17.317a4.852 4.852 0 00-.25-.5c1.843-2.363 3.69-4.724 5.539-7.081.068.177.153.341.25.494-1.85 2.36-3.697 4.722-5.54 7.087" fill="#c3dbe7"/><path d="M580.227 232.053v-.864a1849.91 1849.91 0 0129.921-40.494h.632a1845.418 1845.418 0 00-30.553 41.358M643.07 263.685h-.617c3.002-4.242 6.016-8.474 9.046-12.698v.864c-2.823 3.937-5.631 7.881-8.43 11.834" fill="#bdd2e0"/><path d="M662.835 236.16h-.623a2585.36 2585.36 0 019.919-13.525h.626c-3.322 4.497-6.629 9.005-9.922 13.525M672.757 222.635h-.626l1.525-2.062v.847l-.899 1.215" fill="#d6e3ed"/><path d="M654.021 248.336v-.863c2.602-3.614 5.212-7.22 7.834-10.821h.622c-2.83 3.887-5.648 7.78-8.456 11.684" fill="#e0eaef"/><path d="M651.99 251.164v-.863l2.031-2.828v.863c-.677.941-1.356 1.885-2.032 2.828" fill="#dde8f0"/><path d="M651.499 251.85v-.863c.06-.084.12-.17.18-.252v.864c-.06.082-.12.168-.18.252" fill="#d1dee8"/><path d="M662.477 236.652h-.622c.118-.163.238-.33.357-.492h.623l-.358.492" fill="#e0eaef"/><path d="M651.679 251.599v-.864l.31-.434v.863l-.31.435" fill="#dde8f0"/><path d="M769.676 378.107h-10.93v-32.93c0-3.909-3.171-7.08-7.08-7.08h.173v-7.533h-2.606a1702.904 1702.904 0 0135.022-45.784c3.872-4.89 7.778-9.75 11.702-14.6h76.654c-15.546 19.616-30.85 39.427-45.835 59.476-.227.301-.453.605-.679.908h-5.077v-7.623h-43.637v7.623h-.8v7.533h.174a7.08 7.08 0 00-7.081 7.08v32.93" fill="#c3dbe7"/><path d="M729.863 378.107H715.42a1622.38 1622.38 0 0114.442-20.748v20.748M798.559 368.24v-23.063a7.08 7.08 0 00-7.08-7.08h.173v-7.533h-14.27v-7.623h43.638v7.623h-5.73v7.533h.174a7.08 7.08 0 00-7.08 7.08v9.434c-3.292 4.53-6.567 9.073-9.825 13.629" fill="#c1d6e4"/><path d="M758.745 378.107h-28.882v-20.748a1634.997 1634.997 0 0113.841-19.262h7.961c3.91 0 7.08 3.171 7.08 7.08v32.93M751.839 338.097h-8.135c1.836-2.516 3.68-5.028 5.53-7.533h2.605v7.533M791.543 378.107h-21.867v-32.93a7.08 7.08 0 017.081-7.08h14.722a7.08 7.08 0 017.08 7.08v23.063c-2.348 3.283-4.686 6.57-7.016 9.867" fill="#d1dfea"/><path d="M791.652 338.097h-15.07v-7.533h15.07v7.533M808.384 354.61v-9.433a7.08 7.08 0 017.08-7.08h5.03a2259.72 2259.72 0 00-12.11 16.514M820.495 338.097h-5.204v-7.533h10.806c-1.873 2.508-3.74 5.017-5.602 7.533" fill="#d1dfea"/><path d="M769.676 378.561h-10.93v-.454h10.93v.454m56.988-47.997h-.567c.226-.303.452-.607.679-.908 14.985-20.05 30.29-39.86 45.835-59.476h-76.654c-3.924 4.85-7.83 9.71-11.702 14.6a1702.904 1702.904 0 00-35.022 45.784h-.564a1703.469 1703.469 0 0135.23-46.067c3.858-4.87 7.749-9.713 11.657-14.544h77.813l-.112.14c-15.642 19.735-31.041 39.664-46.117 59.834l-.476.637" fill="#c3dbe7"/><path d="M873.37 269.953h-77.814l.116-.144.068-.084h77.81l-.18.228" fill="#f6fcfe"/><path d="M729.863 378.561H714.56l.243-.354a1613.57 1613.57 0 0115.059-21.634v.786a1622.38 1622.38 0 00-14.442 20.748h14.442v.454M798.559 369.02v-.78c3.258-4.556 6.533-9.099 9.825-13.63v.773a2292.706 2292.706 0 00-9.825 13.637" fill="#c1d6e4"/><path d="M758.745 378.561h-28.882v-.454h28.882v.454m-28.882-21.202v-.786c4.384-6.19 8.809-12.346 13.28-18.476h.561a1634.997 1634.997 0 00-13.841 19.262M743.704 338.097h-.561a1514.74 1514.74 0 015.526-7.533h.564c-1.849 2.505-3.693 5.017-5.529 7.533M791.779 378.561h-22.103v-.454h21.867c2.33-3.296 4.668-6.584 7.016-9.867v.78a2328.443 2328.443 0 00-6.712 9.445l-.068.096M808.384 355.383v-.772a2259.72 2259.72 0 0112.11-16.514h.566a2260.997 2260.997 0 00-12.676 17.286M821.06 338.097h-.565c1.862-2.516 3.729-5.025 5.602-7.533h.567a2203.918 2203.918 0 00-5.604 7.533" fill="#d1dfea"/><path d="M883.748 295.361v-18.013c2.921-4.063 4.78-6.653 5.15-7.168h12.715l-17.865 25.181" fill="#b5cddb"/><path d="M837.267 360.877v-15.7c0-1.028-.22-2.006-.615-2.888 17.221-23.466 37.679-51.849 47.096-64.941v18.013l-24.975 35.203H854v6.73l-.6.845a7.083 7.083 0 00-6.307 7.038v1.852l-9.825 13.848" fill="#c3dbe7"/><path d="M824.521 378.843l-15.529-.154.112-.114c1.996-2.062 7.96-9.847 15.819-20.402a2948.458 2948.458 0 0011.729-15.884c.395.882.615 1.86.615 2.888v15.7l-12.746 17.966M847.092 347.03v-1.853a7.083 7.083 0 016.307-7.038l-6.307 8.89M853.999 337.295v-6.731h4.774l-4.774 6.73" fill="#d1dfea"/><path d="M824.753 379.3l-7.618-.076h3.885v-.153h3.896l-.163.229" fill="#fff"/><path d="M824.916 379.07h-3.896v-.16h4.01l-.114.16m12.35-17.407v-.786l9.826-13.848v.784l-9.825 13.85" fill="#c3dbe7"/><path d="M883.748 296.145v-.784l17.865-25.181H888.9c-.371.515-2.23 3.105-5.151 7.168v-.777l1.548-2.154 3.207-4.464h13.828l-18.583 26.192" fill="#b5cddb"/><path d="M836.652 342.29a7.336 7.336 0 00-.225-.46 4483.06 4483.06 0 006.02-8.223c15.934-21.811 33.126-45.67 41.301-57.036v.777c-9.417 13.092-29.875 41.475-47.096 64.941m22.677-11.725h-.556l24.975-35.203v.784l-24.419 34.419" fill="#c3dbe7"/><path d="M902.33 269.953h-13.827l.094-.133.068-.095h13.827l-.161.228" fill="#f6fcfe"/><path d="M853.399 338.139l.6-.844v.784l-.016.021c-.198.005-.391.019-.584.039" fill="#c3dbe7"/><path d="M821.02 379.224h-3.885l-8.754-.087v-.066h.091l.021.037-.021-.037h12.548v.153m-12.639-.087l-.864-.009.103-.057h.761v.066" fill="#e1e8ef"/><path d="M821.02 379.07h-12.548l-.088-.16-.003.16h-.761l.653-.36a.662.662 0 00.111-.077v.276h12.636v.162m-12.548 0h-.09l.002-.162.088.162" fill="#c1d6e4"/><path d="M825.03 378.91h-16.646v-.277c.199-.162.581-.552 1.07-1.116.61-.7 1.418-1.681 2.395-2.908 1.955-2.453 4.587-5.885 7.702-10.017 4.74-6.29 10.596-14.204 16.876-22.763.08.151.156.304.225.46a2948.458 2948.458 0 01-11.73 15.884c-7.858 10.555-13.822 18.34-15.818 20.402l-.112.114 15.53.154 12.745-17.966v.786l-12.236 17.246M847.092 347.813v-.784l6.307-8.89c.193-.02.386-.034.584-.039l-6.891 9.713M853.999 338.079v-.784l4.774-6.731h.556l-5.33 7.515" fill="#d1dfea"/><path d="M391.033 556.801H286.524V405.81h.015c.494 0 .96-.281 1.34-1.001.477-.907.366-1.93-.483-2.564a2.41 2.41 0 00-.872-.408V115.944c0-10.097 8.187-18.284 18.284-18.284h174.268c10.097 0 18.283 8.187 18.283 18.284v56.497l-1.08 1.342a14.587 14.587 0 00-3.571-2.012l.943-3.999c.637-.361 1.226-.804 1.492-1.523.282-.764.03-1.673-.704-2.082a1.589 1.589 0 00-2.11.525c-.584.912-.21 1.983-.197 2.98l-.856 3.625a14.406 14.406 0 00-4.163-.508l-.104-2.95c.406-.623.739-1.307.567-2.07-.141-.629-.68-1.18-1.352-1.185h-.012c-.664 0-1.179.528-1.325 1.153-.179.762.192 1.448.618 2.052l.11 3.114c-.638.08-1.262.201-1.868.361l-1.679-7.243.06-.114c.35-1.002.768-2.374.336-3.414-.248-.598-.827-.929-1.436-.929-.181 0-.365.03-.544.09-.867.29-1.379 1.231-1.39 2.113-.013 1.121.87 1.409 1.42 2.197l1.798 7.757a14.36 14.36 0 00-2.561 1.27l-3.006-4.528-.026-.12c-.319-.834-.374-1.832-1.092-2.456a1.592 1.592 0 00-1.046-.394c-.348 0-.694.116-.978.354-.579.484-.686 1.344-.299 1.977.463.76 1.416 1.205 2.216 1.508l3 4.521a14.599 14.599 0 00-4.124 5.088l-3.835-1.59v-24.984l-.45.624-.863 1.198v-21.062c0-5.246-2.772-9.843-6.932-12.408h.001l.155-.219-.23-.137a14.342 14.342 0 00-7.403-2.054h-60.852l-.075.102-.11.149h-28.249l2.386-2.963c1.577-.393 3.225-.696 4.217-2.117.993-1.421.516-3.061-.67-4.193-.746-.714-1.86-1.388-2.887-1.388-.618 0-1.204.242-1.662.865-1.154 1.57-1.525 4.084-1.725 6.005l-3.055 3.791h-10.025l1.295-5.49c1.124-.634 2.161-1.414 2.629-2.68.496-1.346.053-2.945-1.243-3.667a2.796 2.796 0 00-3.71.927c-1.031 1.603-.371 3.487-.351 5.243l-1.335 5.667h-3.842a25.482 25.482 0 00-3.658-.175l-.182-5.198c.713-1.095 1.3-2.298.997-3.643-.248-1.105-1.196-2.077-2.379-2.085h-.02c-1.17 0-2.077.928-2.336 2.03-.314 1.339.338 2.55 1.09 3.611l.192 5.46h-3.442l-2.804-12.092.106-.201c.618-1.766 1.354-4.18.593-6.011-.437-1.055-1.455-1.636-2.528-1.636-.32 0-.644.052-.959.157-1.526.512-2.428 2.17-2.446 3.72-.023 1.974 1.53 2.483 2.498 3.87l2.827 12.193H326.5l-2.836-4.273-.05-.212c-.56-1.468-.655-3.227-1.92-4.324a2.82 2.82 0 00-1.842-.692c-.61 0-1.221.204-1.723.622-1.017.852-1.204 2.367-.525 3.482.816 1.34 2.492 2.124 3.901 2.654l2.04 3.074a14.593 14.593 0 00-11.085 10.914l-7.661-3.177c-.808-1.152-1.928-2.307-3.312-2.517a2.365 2.365 0 00-.36-.028c-1.254 0-2.29 1.001-2.496 2.244-.232 1.394.424 2.938 1.873 3.252a9.538 9.538 0 002.015.224c.76 0 1.516-.102 2.23-.334l7.344 3.046c-.009.202-.013.408-.013.612v15.714c-.19.068-.37.134-.544.195-.792-.215-1.587-.455-2.381-.455-.471 0-.942.084-1.412.308-1.19.564-1.706 1.927-1.271 3.159.425 1.207 1.612 1.885 2.841 1.885.152 0 .306-.01.458-.032.933-.129 1.705-.61 2.309-1.27v83.956c-.07.106-.139.216-.208.322l-.04.062v94.817l.248-.336V361.3c0 5.26 2.787 9.868 6.965 12.43-2.11 15.278-3.637 27.797-3.637 27.797l18.619-.542-5.431 7.655a33.885 33.885 0 00-2.61 4.328h-39.462v1.559h38.724a33.823 33.823 0 00-2.824 11.493c-.292 2.94-.14 5.999.633 9.113 1.596 7.694 5.875 14.782 12.576 19.631h-49.109v1.557h51.477c.268.16.538.316.812.468 4.87 2.718 10.526 4.294 16.663 4.294.552 0 1.108-.014 1.667-.039l38.765-.539v36.055H286.524v1.559h109.384v32.666l-4.875 26.016M497.36 394.568H391.237c.786-4.485 2.138-11.407 3.391-18.7h60.052c8.045 0 14.568-6.521 14.568-14.568V196.801l1.265-1.718.048-.066V189.7c.036-.064.072-.128.104-.194l2.635-.941a14.465 14.465 0 004.505 7.592l-5.048 6.288c-.761.157-1.71.419-2.125 1.052-.444.681 0 1.45.576 1.868.392.285.867.56 1.328.56.265 0 .527-.09.765-.324.618-.604.876-1.65.99-2.472l-.011-.183 4.697-5.852a14.5 14.5 0 002.759 1.559l-2.388 5.7c-.732.223-1.517.601-1.66 1.437-.135.783.503 1.34 1.163 1.603.348.137.736.273 1.082.273.371 0 .694-.154.871-.625.257-.683.199-1.479-.047-2.167l2.39-5.701c1.358.423 2.798.648 4.282.648a14.628 14.628 0 003.471-.415c.297.851.737 2.126 1.107 3.195-.426.436-.462 1.11-.147 1.65.17.291.439.58.77.68a.837.837 0 00.246.037c.225 0 .443-.084.65-.187.566-.281 1.08-.783.989-1.47-.079-.58-.556-.973-1.078-1.169-.328-.948-.777-2.25-1.097-3.168a14.357 14.357 0 002.99-1.478l2.029 2.392v194.681m0-197.001l-.81-.955c.28-.224.55-.459.81-.703v1.658m-26.798-9.619v-8.972l3.247 1.347a14.46 14.46 0 00-.77 6.741c-.807.288-1.713.61-2.477.884" fill="#ecf4f9"/><path d="M417.08 577.013h-2.647v-7.092c1.051-.025 1.95-.079 2.644-.162 0-.01.002-.018.003-.027v7.281m-21.172 0h-91.1c-10.097 0-18.284-8.184-18.284-18.281v-1.93h104.51l-1.898 10.126c1.356.665 3.823 1.239 6.772 1.7v8.385" fill="#b3cde1"/><path d="M454.68 375.868h-60.052c1.967-11.428 3.692-23.77 2.621-29.105-.945-4.714-6.161-14.191-11.085-22.679 3.605-.643 6.563-1.508 8.521-2.685l.164-.099.042-.187c.005-.026.12-.57.121-1.51.008-2.67-.953-8.536-7.91-14.674 30.957-40.606 66.242-86.576 82.146-108.128V361.3c0 8.047-6.523 14.568-14.568 14.568m-135.635-2.139c-4.178-2.561-6.965-7.169-6.965-12.429v-29.848l.25-.34c2.469-3.323 4.93-6.65 7.389-9.983l5.592 1.619 6.6-8.941-.959 5.43c-1.761 1.564-2.881 2.612-2.881 2.612-2.422 7.354-5.736 28.491-8.366 47.147a110.88 110.88 0 00-1.936 3.336l-.096.172.146.133c.394.358.808.695 1.237 1.008l-.01.084M384.475 273.648c.247-5.125-.456-8.997-1.601-11.923.04-1.836.078-3.522.11-4.918.054-2.383.09-3.916.091-3.92l.003-.118-.056-.104-.391.211.39-.21c-2.075-3.862-4.67-6.266-7.72-7.97a17.05 17.05 0 00-.266-.147c16.961-23.876 33.796-47.844 50.635-71.809a20157.537 20157.537 0 0136.646-52.021c4.159 2.565 6.931 7.162 6.931 12.408v21.062c-7.113 9.894-39.541 55.191-72.745 102.343-4.012 5.699-8.036 11.423-12.027 17.116m-72.396-37.061V152.63c.35-.384.644-.827.88-1.296 1.503-.538 3.164-1.131 4.636-1.656a25.488 25.488 0 007.933 13.365l-8.886 11.07c-1.342.278-3.012.738-3.742 1.853-.784 1.2-.001 2.55 1.012 3.29.69.504 1.526.986 2.336.986.47 0 .93-.162 1.35-.571 1.088-1.063 1.544-2.904 1.742-4.353l-.017-.32 8.27-10.304a25.587 25.587 0 004.857 2.745l-4.204 10.035c-1.288.392-2.672 1.057-2.923 2.529-.237 1.383.883 2.36 2.045 2.823.612.244 1.295.482 1.906.482.652 0 1.222-.273 1.536-1.102.452-1.2.348-2.603-.083-3.814l4.205-10.038a25.416 25.416 0 009.699 1.05 25.717 25.717 0 003.952-.64c.524 1.499 1.3 3.744 1.948 5.627-.748.768-.813 1.952-.257 2.903.205.349.489.697.836.94a2136.851 2136.851 0 00-39.031 58.352m41.907-62.496a3.682 3.682 0 00-.936-.508c-.576-1.67-1.368-3.964-1.931-5.578a25.403 25.403 0 005.265-2.602l2.011 2.37c-1.473 2.103-2.943 4.21-4.41 6.318m5.98-8.554l-1.434-1.689a25.68 25.68 0 006.821-8.45l1.356.587a2411.008 2411.008 0 00-6.744 9.552m8.31-11.756l-1.858-.805a25.449 25.449 0 001.556-11.167 25.619 25.619 0 00-.53-3.481 481.368 481.368 0 005.389-2.152c.773.38 1.559.735 2.393.735.31 0 .624-.05.948-.163 1.391-.485 1.856-1.97 1.486-3.304-.326-1.172-1.22-2.8-2.575-2.8-.13 0-.265.015-.404.047-1.477.344-2.837 2.249-3.71 3.382a512.783 512.783 0 01-4.245 1.686 25.509 25.509 0 00-6.658-10.391l5.486-6.808h28.25a2508.436 2508.436 0 00-25.528 35.221m-56.195-4.94v-15.714c0-.204.004-.41.013-.612l6.398 2.653a25.482 25.482 0 00-1.356 11.868l-5.055 1.805m7.447-16.105l-7.067-2.93a14.593 14.593 0 0111.085-10.915l3.243 4.888a25.695 25.695 0 00-7.261 8.957m38.526-9.083a25.583 25.583 0 00-6.286-3.542l.365-1.551h10.025l-4.104 5.093m-29.098-1.393l-2.455-3.7h6.624l.34 1.465a25.264 25.264 0 00-4.51 2.235m20.294-2.983a25.269 25.269 0 00-3.673-.717h3.842l-.169.717m-13.259-.058l-.152-.659h3.442l.001.023a25.857 25.857 0 00-3.29.636" fill="#c5dae5"/><path d="M312.33 330.279v-93.162a2136.849 2136.849 0 0139.223-58.648c.026.01.051.018.076.026.146.044.29.062.432.062.398 0 .782-.149 1.147-.329.996-.495 1.903-1.377 1.74-2.587a2.196 2.196 0 00-.59-1.214c1.453-2.088 2.911-4.178 4.371-6.262l7.966 9.388c-.243 1.456-.578 3.607.688 4.56.385.291.864.41 1.369.41 1.04 0 2.19-.507 2.867-1.078 1.124-.949 1.62-2.704.764-3.998-.859-1.303-2.418-1.216-3.734-1.675l-8.352-9.843c2.284-3.253 4.579-6.501 6.879-9.742l6.375 2.762c1.105 1.504 2.894 3.467 4.485 3.467.73 0 1.417-.415 1.977-1.477.706-1.339.543-2.85-.71-3.786-.844-.63-1.82-.764-2.822-.764-.674 0-1.361.062-2.025.071l-5.715-2.476a2461.336 2461.336 0 0125.496-35.177h60.602c2.513 0 4.87.672 6.916 1.846a20318.275 20318.275 0 00-36.492 51.802c-16.851 23.982-33.698 47.968-50.671 71.86-2.876-1.483-6.125-2.44-9.745-3.531-5.984-1.801-10.558-2.681-14.166-2.683h-.032c-3.904 0-6.705 1.07-8.793 3.138-2.095 2.07-3.468 5.072-4.725 8.91a26.077 26.077 0 00-1.29 8.11c0 3.286.616 6.569 1.832 9.672.291.742.47 1.509.47 2.265-.01 1.457-.626 2.901-2.556 4.245-3.51 2.423-6.568 4.19-8.824 6.534-2.26 2.344-3.656 5.293-3.772 9.872-.004.134-.006.266-.006.397-.016 3.599 1.426 5.435 2.796 6.708.683.641 1.335 1.163 1.788 1.719.454.56.726 1.121.731 1.964 0 .76-.244 1.768-.89 3.144-.806 1.717-1.917 2.836-3.162 3.696-1.867 1.293-4.048 1.962-5.837 3.072-.894.556-1.692 1.237-2.262 2.178-.569.94-.894 2.127-.893 3.644 0 .682.065 1.432.2 2.263l.045.277 3.708 1.074c-2.289 3.102-4.581 6.2-6.88 9.296" fill="#cfe0e8"/><path d="M311.832 331.788v-94.817l.04-.062c.07-.106.139-.216.208-.322v94.865l-.248.336m150.484-211.07a14.498 14.498 0 00-7.636-2.158h-60.877l.109-.15.075-.1h60.852c2.701 0 5.23.75 7.402 2.053l.231.137-.155.219" fill="#edf7f6"/><path d="M312.08 331.452v-94.865a2136.851 2136.851 0 0139.03-58.352c.138.097.286.177.443.234a2136.849 2136.849 0 00-39.224 58.648v93.162c2.299-3.096 4.591-6.194 6.88-9.296l.51.146c-2.459 3.332-4.92 6.66-7.39 9.983l-.249.34m62.956-86.903a17.58 17.58 0 00-.444-.234c16.973-23.892 33.82-47.878 50.67-71.86a20318.275 20318.275 0 0136.493-51.802 13.835 13.835 0 00-6.916-1.846h-60.602a2461.336 2461.336 0 00-25.496 35.177l-.466-.203a2508.436 2508.436 0 0125.528-35.221h60.877c2.8 0 5.416.79 7.636 2.159a20490.62 20490.62 0 00-36.645 52.021c-16.839 23.965-33.674 47.933-50.635 71.81m-20.677-70.123a2.87 2.87 0 00-.372-.336c1.466-2.108 2.936-4.215 4.409-6.318l.333.392c-1.46 2.084-2.918 4.174-4.37 6.262m5.938-8.498l-.332-.392c2.24-3.189 4.49-6.374 6.744-9.552l.467.202c-2.3 3.241-4.595 6.489-6.879 9.742" fill="#cfe0e8"/><path d="M469.248 195.964v-5.096c.31-.11.583-.293.816-.521v4.508l-.816 1.109m.61-7.765c-.203-.055-.407-.112-.61-.16v-9.607l.816.339v9.354l-.207.074m.207-11.054l-.816-.338V155.04l.816-1.134v23.238" fill="#edf7f6"/><path d="M319.135 373.084a14.127 14.127 0 01-.835-.684c.36-.645.768-1.356 1.227-2.132-.134.948-.264 1.885-.392 2.816m67.59-68.481a37.923 37.923 0 00-2.466-1.942c-4.555-3.314-5.879-6.209-5.884-8.793-.003-1.91.746-3.719 1.62-5.415 2.054-2.262 3.756-6.169 4.352-12.929.028-.315.052-.625.073-.932 4.143-5.91 8.323-11.856 12.49-17.773 32.61-46.311 64.475-90.835 72.338-101.778v21.766l-3.217-1.335c-.459-.655-1.095-1.31-1.882-1.43a1.345 1.345 0 00-.205-.015c-.71 0-1.3.568-1.416 1.273-.132.792.24 1.67 1.063 1.848a5.4 5.4 0 001.144.127c.432 0 .861-.058 1.268-.19l3.245 1.347v9.607a3.3 3.3 0 00-.743-.098c-.268 0-.536.047-.802.175-.676.32-.968 1.095-.722 1.793.242.686.915 1.072 1.612 1.072a1.993 1.993 0 00.655-.113v5.096c-15.7 21.307-51.303 67.688-82.523 108.639" fill="#cfe0e8"/><path d="M469.248 196.801v-.837c.277-.377.55-.75.816-1.11v-4.507c.193-.19.359-.411.497-.648V195.017l-.048.066-1.265 1.718m.816-8.676v-9.354l.497.205v8.972l-.497.177m.497-10.774l-.497-.206v-23.238l-.816 1.134v-.852l.863-1.198.45-.624v24.984" fill="#edf7f6"/><path d="M319.056 373.645a15.17 15.17 0 01-1.237-1.008l-.146-.133.096-.172a110.88 110.88 0 011.936-3.336c-.06.427-.12.85-.178 1.272a98.827 98.827 0 00-1.227 2.132c.27.239.548.467.835.684l-.079.561m68.045-68.716a18.36 18.36 0 00-.376-.326c31.22-40.951 66.823-87.332 82.523-108.639v.837c-15.904 21.552-51.19 67.522-82.147 108.128m-2.681-30.337c.023-.32.04-.633.056-.944 3.99-5.693 8.015-11.417 12.027-17.116 33.204-47.152 65.632-92.45 72.745-102.343v.852c-7.863 10.943-39.728 55.467-72.339 101.778-4.166 5.917-8.346 11.864-12.489 17.773" fill="#cfe0e8"/><path d="M325.248 414.527h-38.724v-1.559h39.461c-.26.515-.505 1.035-.737 1.559M338.001 456.321h-51.477v-1.557h49.11a32.385 32.385 0 002.367 1.557M286.524 498.119h109.384v-1.559H286.524z" fill="#cee3ee"/><path d="M279.575 556.801H68.74V116.212c0-10.247 8.305-18.552 18.55-18.552h173.733c10.245 0 18.552 8.305 18.552 18.552v252.795c-.203.093-.39.244-.554.465-.781 1.063-1.033 2.767-1.168 4.068l-4.848 6.016a17.351 17.351 0 00-4.257-2.4l1.124-4.767c.761-.43 1.463-.958 1.78-1.816.337-.912.036-1.994-.841-2.484a1.896 1.896 0 00-2.513.628c-.698 1.086-.251 2.363-.237 3.552l-1.02 4.323a17.241 17.241 0 00-4.964-.604l-.124-3.52c.484-.741.882-1.557.676-2.467-.168-.75-.81-1.406-1.612-1.414h-.012c-.793 0-1.408.629-1.584 1.376-.212.906.23 1.726.739 2.445l.13 3.715c-.76.096-1.505.24-2.227.43l-2.003-8.636.072-.136c.419-1.196.916-2.83.401-4.072-.296-.713-.985-1.108-1.713-1.108a2.024 2.024 0 00-.879.2c.051-.493.078-.994.078-1.501v-29.853l.248.333v-94.81l-.04-.06-.208-.325V133.127c0-8.046-6.523-14.567-14.57-14.567h-67.153l-.11-.15-.074-.1H111.26c-2.7 0-5.23.75-7.403 2.053l-.23.137.155.219c-4.16 2.565-6.93 7.162-6.93 12.408v19.281l-.25-.345v42.65l.049.067.2-.148-.2.148.2.273V361.3c0 8.047 6.522 14.568 14.568 14.568h122.033l.097.141.075.108h5.985c2.839 0 5.49-.826 7.734-2.254.305.149.616.276.91.386l3.578 5.392a17.384 17.384 0 00-4.918 6.067l-9.976-4.136c-.546-.781-1.305-1.563-2.242-1.707a1.681 1.681 0 00-.243-.018c-.85 0-1.552.678-1.692 1.52-.156.944.288 1.99 1.268 2.202.447.096.908.152 1.368.152a4.91 4.91 0 001.508-.225l9.307 3.859a17.255 17.255 0 00-.919 8.038l-3.792 1.354c-.536-.146-1.073-.308-1.612-.308-.319 0-.639.057-.957.209-.804.381-1.154 1.305-.86 2.139.289.817 1.092 1.277 1.924 1.277.102 0 .206-.007.309-.021.999-.139 1.725-.871 2.161-1.739l3.14-1.121a17.255 17.255 0 005.372 9.052l-5.405 6.733H68.74v1.559h174.125a1.844 1.844 0 00-.44.46c-.53.81-.001 1.728.686 2.228.468.341 1.033.668 1.582.668.318 0 .63-.11.914-.387.737-.72 1.045-1.967 1.18-2.948l-.002-.021h6.655l-.621 1.482c-.874.264-1.811.715-1.98 1.712-.16.936.598 1.599 1.385 1.911.415.165.877.327 1.29.327.442 0 .829-.184 1.04-.746.307-.813.237-1.762-.055-2.584l.881-2.102h12.175c-.132.437-.067.932.182 1.358.203.348.523.692.918.812.098.031.197.044.294.044.268 0 .527-.101.775-.224.675-.334 1.288-.933 1.177-1.75a1.368 1.368 0 00-.053-.24h6.707l1.302 1.534c-.162.986-.39 2.443.467 3.088.077.059.161.108.25.147v35.468H68.74v1.557h210.835v40.239H68.74v1.559h210.835V556.8m0-143.833h-.994l-5.252-6.19a17.414 17.414 0 004.62-5.722l1.626.704v11.208m-3.342 0h-6.756c-.37-1.076-.83-2.405-1.168-3.373a17.212 17.212 0 003.567-1.763l4.357 5.136m-8.649 0h-11.552l1.315-3.137a17.182 17.182 0 006.569.712c.916-.076 1.81-.223 2.676-.435.27.772.637 1.835.992 2.86m-13.492 0h-6.224l4.508-5.615a17.418 17.418 0 003.29 1.859l-1.574 3.756m25.483-13.16l-.906-.392c.414-1.09.719-2.232.906-3.41v3.802m0-9.207c-.059-.373-.13-.741-.211-1.106l.21-.083v1.19m-.695-2.846a17.264 17.264 0 00-4.51-7.039l5.206-6.461v13.227l-.696.273m-25.582-9.143l-3.582-5.4-.034-.145c-.1-.26-.177-.535-.253-.81l.061-.057-.094-.172-.031-.054a14.597 14.597 0 003.663-5.38c.354.41.825.745 1.18 1.253l2.145 9.25a17.104 17.104 0 00-3.055 1.515" fill="#ecf4f9"/><path d="M261.023 577.013H87.29c-10.245 0-18.55-8.304-18.55-18.55V556.8h210.835v1.662c0 10.246-8.307 18.55-18.552 18.55" fill="#b3cde1"/><path d="M233.452 375.868H111.419c-8.046 0-14.568-6.521-14.568-14.568V195.053c27.091 36.866 119.165 155.596 136.601 180.815m15.912-3.893a.722.722 0 00-.03-.055c-.189-.664-.414-1.31-.954-1.78a2.1 2.1 0 00-.12-.096c-9.976-17.023-44.176-66.35-77.6-113.816-34.836-49.47-68.818-96.899-73.607-103.54l-.202-.28v-19.281c0-5.246 2.772-9.843 6.931-12.408a20256.122 20256.122 0 0136.646 52.021c18.605 26.477 37.204 52.96 55.975 79.316 18.89 26.527 37.956 52.925 57.366 79.056l.11-.081h.001l-.11.082.049.067.2.267V361.3c0 .507-.027 1.008-.078 1.501-.893.426-1.414 1.458-1.426 2.427-.007.613.21 1.017.512 1.367a14.597 14.597 0 01-3.663 5.38m4.655-135.39c-23.024-35.7-47.159-70.644-72.132-104.945-3.183-4.372-6.382-8.73-9.591-13.08h67.153c8.047 0 14.57 6.521 14.57 14.567v103.458" fill="#c5dae5"/><path d="M253.77 330.28c-19.271-25.953-38.202-52.17-56.962-78.512-18.77-26.355-37.368-52.836-55.973-79.313a20052.223 20052.223 0 00-36.49-51.802 13.836 13.836 0 016.915-1.846h60.601c3.22 4.365 6.431 8.74 9.623 13.125 25.03 34.379 49.217 69.403 72.285 105.185v93.163" fill="#cfe0e8"/><path d="M254.267 331.78l-.248-.333v-94.862l.208.324.04.062v94.809M103.782 120.719l-.155-.219.23-.137a14.344 14.344 0 017.403-2.054h60.852l.075.102.109.149h-60.877c-2.8 0-5.416.79-7.637 2.159" fill="#edf7f6"/><path d="M254.019 331.447l-.2-.267-.05-.067.111-.082h-.001l-.11.081c-19.41-26.13-38.476-52.53-57.366-79.056-18.771-26.356-37.37-52.839-55.975-79.316a20256.122 20256.122 0 00-36.646-52.021 14.5 14.5 0 017.637-2.159h60.877c3.21 4.35 6.408 8.708 9.59 13.08 24.974 34.301 49.109 69.245 72.133 104.945v94.862M104.344 120.653a20052.223 20052.223 0 0136.49 51.802c18.606 26.477 37.205 52.958 55.974 79.313 18.76 26.343 37.69 52.559 56.961 78.512v-93.163c-23.068-35.782-47.254-70.806-72.285-105.185a2566.08 2566.08 0 00-9.623-13.125H111.26c-2.513 0-4.87.672-6.916 1.846M239.61 375.62h-5.726c-17.427-25.219-109.876-144.427-136.785-181.07v-40.946c6.171 8.573 39.26 54.777 73.154 102.91 33.04 46.918 66.858 95.691 77.23 113.191a1.805 1.805 0 00-1.516.388c-.69.578-.816 1.603-.356 2.359.286.472.732.841 1.228 1.139a13.854 13.854 0 01-7.23 2.029" fill="#cfe0e8"/><path d="M239.61 376.117h-5.986l-.075-.108-.097-.141h5.997c2.794 0 5.402-.785 7.618-2.147.09.05.182.096.276.142a14.354 14.354 0 01-7.734 2.254m9.819-3.86l-.076-.272.012-.01.03.054.095.172-.061.056M96.851 195.053l-.2-.273.2-.148v.421m-.2-.273l-.048-.067v-42.65l.248.345v42.224l-.2.148" fill="#edf7f6"/><path d="M239.45 375.868h-5.998c-17.436-25.219-109.51-143.95-136.6-180.815v-.421h.247-.248v-42.224l.202.28c4.789 6.641 38.771 54.07 73.607 103.54 33.424 47.467 67.624 96.793 77.6 113.816a1.9 1.9 0 00-.777-.339c-10.372-17.5-44.19-66.273-77.23-113.19C136.36 208.38 103.27 162.177 97.1 153.604v40.947c26.909 36.642 119.358 155.85 136.785 181.069h5.725c2.642 0 5.114-.741 7.23-2.03.074.046.15.089.228.131a14.503 14.503 0 01-7.618 2.147m9.903-3.883a1.2 1.2 0 00-.019-.065c.011.017.022.036.031.055l-.012.01" fill="#cfe0e8"/><path d="M277.555 414.527h-6.707c-.177-.563-.684-.95-1.23-1.155-.046-.13-.093-.265-.14-.404h6.755l1.322 1.559m-10 0H255.38l.652-1.559h11.552l.328.95a1.49 1.49 0 00-.357.609m-14.115 0h-6.655l-.01-.196 1.093-1.363h6.224l-.652 1.559m-10.575 0H68.74v-1.559h176.832l-.612.764c-.697.144-1.524.361-2.095.795m36.71-.388l-.994-1.171h.994v1.17M68.74 456.321h210.834v-1.557H68.74zM68.74 498.119h210.834v-1.559H68.74z" fill="#cee3ee"/><path d="M417.08 595.485h205.532v-181.93H417.08z" fill="#6495cd"/><path d="M629.059 481.037h-6.447v-1.078h5.367v-51.57h-5.367v-1.078h6.447v53.726m-.54-.538v-.54.54" fill="#dce9f4"/><path d="M622.612 481.037H466.369c.108-.36.214-.717.319-1.078h155.924v1.078m0-52.648h-146.84c-.033-.364-.07-.724-.112-1.078h146.952v1.078" fill="#77a5d4"/><path d="M629.253 586.984h-6.641v-1.47h5.172v-6.27h1.47v7.74m-.735-.735v-.734.734m.734-29.448h-1.469V489.23h-5.172v-1.469h6.641v69.041" fill="#dce9f4"/><path d="M627.784 579.244h1.47v-22.443h-1.47z" fill="#b5cee3"/><path d="M622.612 586.984h-190.49v-17.697c.555-.043 1.049-.088 1.469-.135v16.363h189.021v1.469m0-97.755H463.839l.468-1.469h158.305v1.47" fill="#77a5d4"/><path d="M548.795 437.012H503.65c-.951 0-1.723-.772-1.723-1.724v-.559c0-.952.772-1.722 1.723-1.722h45.144c.952 0 1.722.77 1.722 1.722v.559c0 .952-.77 1.724-1.722 1.724M548.795 498.227H503.65c-.951 0-1.723-.772-1.723-1.722v-.56c0-.952.772-1.722 1.723-1.722h45.144c.952 0 1.722.77 1.722 1.722v.56c0 .95-.77 1.722-1.722 1.722" fill="#83add8"/><path d="M922.488 593.701h-18.525v-181.93h18.525V593.7M395.908 593.701h18.525v-181.93h-18.525z" fill="#193758"/><path d="M370.66 424.232h581.532v-29.664H370.66z" fill="#b5d7f2"/><path d="M733.275 305.843l-7.619 3.584a17.255 17.255 0 00-9.907 15.61v38.032c.002 9.53 7.724 17.252 17.252 17.254h50.975v-3.742h-50.975a13.462 13.462 0 01-9.553-3.957 13.465 13.465 0 01-3.957-9.555v-38.032c0-5.233 3.022-9.996 7.758-12.225l7.619-3.584-1.593-3.385" fill="#fafbf3"/><path d="M750.808 354.267l13.481-2.762-2.421-11.826-13.483 2.761 2.423 11.827" fill="#fafbf3"/><path d="M750.808 354.267l.02.098 13.581-2.781-2.462-12.025-13.682 2.802 2.464 12.026.099-.022-.02-.098.099-.02-2.403-11.728 13.284-2.722 2.383 11.628-13.383 2.742.02.1.099-.02-.099.02" fill="#fafbf3"/><path d="M743.453 346.039l24.482-5.016-.8-3.903-24.48 5.015.798 3.904M749.82 355.456l15.73-3.223-.293-1.42-15.729 3.223.292 1.42" fill="#193758"/><path d="M736.977 343.297l34.77-7.121-12.971-39.857-25.9 5.306 4.101 41.672" fill="#fafbf3"/><path d="M736.977 343.297l.02.1 34.882-7.145-13.035-40.05-26.079 5.342 4.122 41.876.11-.023-.02-.1.102-.009-4.094-41.583 25.722-5.269 12.908 39.663-34.658 7.1.02.098.102-.009-.102.01" fill="#fafbf3"/><path d="M727.497 309.25a6.082 6.082 0 1111.918-2.44 6.08 6.08 0 01-4.739 7.178 6.081 6.081 0 01-7.179-4.737" fill="#fafbf3"/><path d="M727.497 309.25l.114-.022a5.969 5.969 0 015.852-7.165 5.969 5.969 0 015.961 5.974 5.968 5.968 0 01-11.813 1.191l-.114.023-.114.024a6.201 6.201 0 007.317 4.826 6.199 6.199 0 10-2.488-12.144 6.2 6.2 0 00-4.83 7.318l.115-.024" fill="#fafbf3"/><path d="M730.34 308.668a3.18 3.18 0 116.232-1.275 3.18 3.18 0 01-6.232 1.275M739.947 300.052l10.526-2.156-1.09-5.323-10.526 2.158 1.09 5.321" fill="#193758"/><path d="M738.373 295.157l11.743-2.406-.217-4.678-13.166 2.699 1.64 4.385" fill="#fafbf3"/><path d="M738.373 295.157l.02.099 11.828-2.423-.226-4.882-13.398 2.745 1.711 4.577.085-.017-.02-.099.095-.036-1.597-4.273 12.932-2.65.208 4.471-11.659 2.388.021.1.095-.036-.095.036M751.075 378.59h33.038v-4.977h-33.038v4.976" fill="#fafbf3"/><path d="M739.135 389.112h22.169v-8.673h-22.17v8.673" fill="#193758"/><path d="M732.365 394.072h36.08v-.001a4.975 4.975 0 00-4.976-4.975h-26.128a4.976 4.976 0 00-4.976 4.975v.001" fill="#193758"/><path d="M738.403 388.959h24.329v-1.476h-24.33v1.476" fill="#fafbf3"/><path d="M738.403 388.959v.101h24.43v-1.679h-24.532v1.679h.102v-.101h.101v-1.375h24.127v1.272h-24.228v.103h.101-.101" fill="#fafbf3"/><path d="M531.38 394.573h41.272v-48.202c0-5.587-4.53-10.118-10.117-10.118h-21.036c-5.59 0-10.119 4.531-10.119 10.118v48.202" fill="#6799d0"/><path d="M541.25 336.253h21.533v-10.766h-21.534v10.766" fill="#193758"/><path d="M531.38 381.116h42.17V353.3h-42.17v27.816" fill="#fafbf3"/><path d="M531.38 381.116v.263h42.432v-28.342h-42.696v28.342h.264v-.263h.263v-27.552h41.642v27.288H531.38v.264h.263-.263" fill="#fafbf3"/><path d="M549.857 373.613h4.316v-13.709h-4.316v13.71" fill="#ee1f76"/><path d="M558.87 368.917v-4.316h-13.707v4.316h13.708" fill="#ee1f76"/><path d="M468.721 599.815c0-3.727-44.792-6.749-100.045-6.749s-100.045 3.022-100.045 6.749 44.792 6.75 100.045 6.75 100.045-3.023 100.045-6.75" fill="#1f2e56"/><path d="M484.53 485.955H339.748c-9.278 0-16.798-7.522-16.798-16.798v-11.356h140.754c11.502 0 20.828 9.326 20.828 20.828v7.326" fill="#fff"/><path d="M389.35 485.955h-91.814c-9.277 0-13.716-5.803-13.716-15.079-.91-6.927 4.481-13.075 11.467-13.075h73.233c11.504 0 20.83 9.326 20.83 20.828v7.326" fill="#1a3657"/><path d="M376.665 572.232H361.1v-93.4h15.566v93.4" fill="#1a3657"/><path d="M333.133 592.013a17.843 17.843 0 015.247-12.665 17.845 17.845 0 0112.665-5.247h34.376a17.85 17.85 0 0112.667 5.247 17.843 17.843 0 015.247 12.665h4.388c-.002-12.317-9.984-22.298-22.302-22.3h-34.376c-12.317.002-22.3 9.983-22.301 22.3h4.39" fill="#1a3657"/><path d="M342.576 593.31c0-5.731-4.647-10.377-10.379-10.377-5.73 0-10.377 4.646-10.377 10.378 0 5.731 4.647 10.377 10.377 10.377 5.732 0 10.379-4.646 10.379-10.377" fill="#1a3657"/><path d="M337.5 593.31a5.302 5.302 0 10-10.603 0 5.302 5.302 0 0010.603 0" fill="#fafbf3"/><path d="M337.5 593.31h.257a5.56 5.56 0 00-11.118 0 5.559 5.559 0 1011.119 0h-.515a5.05 5.05 0 01-5.046 5.044 5.05 5.05 0 01-5.044-5.043 5.05 5.05 0 015.044-5.045 5.051 5.051 0 015.046 5.045h.257" fill="#fafbf3"/><path d="M415.544 593.31c0-5.731-4.647-10.377-10.379-10.377-5.73 0-10.377 4.646-10.377 10.378 0 5.731 4.647 10.377 10.377 10.377 5.732 0 10.379-4.646 10.379-10.377" fill="#1a3657"/><path d="M410.468 593.31a5.302 5.302 0 10-10.603 0 5.302 5.302 0 0010.603 0" fill="#fafbf3"/><path d="M410.468 593.31h.257a5.56 5.56 0 00-11.118 0 5.559 5.559 0 1011.119 0h-.517a5.049 5.049 0 01-5.044 5.044 5.05 5.05 0 01-5.044-5.043 5.05 5.05 0 015.044-5.045 5.049 5.049 0 015.044 5.045h.259M361.748 496.603h14.917v-.516h-14.917zM361.748 507.304h14.917v-.515h-14.917zM361.748 518.005h14.917v-.514h-14.917zM361.748 528.708h14.917v-.515h-14.917zM361.748 539.41h14.917v-.516h-14.917zM361.748 550.11h14.917v-.514h-14.917zM361.748 560.813h14.917v-.514h-14.917z" fill="#fafbf3"/><path d="M408.099 563.997l-5.982 35.066 40.828 3.006-18.48-16.76 6.447-18.91-22.813-2.402" fill="#f57f53"/><path d="M417.59 564.25l-9.455 33.523-5.159-.429 3.83-34.424 10.783 1.33" fill="#f46b3c"/><path d="M442.696 594.73s4.244 7.72 2.948 7.73c0 0-43.617.827-43.741.255-1.075-4.942-.044-8.314 1.289-10.314.43-.645 14.212-1.964 16.804-3.833 13.944-10.053 22.096 5.696 22.7 6.162" fill="#e31748"/><path d="M404.2 567.948c4.536 2.308 24.501 1.82 29.74 1.163 1.223-10.391 35.87-77.968 41.67-130.99 2.84-25.965-13.018-35.968-31.24-36.513-17.066-.512-71.11-3.285-92.274-2.655l-11.833 17.287c-7.735 22.43 9.621 45.584 33.321 44.45l42.792-1.878c5.97-.275 6.176 2.139 6.087 8.115L404.2 567.948" fill="#1a3353"/><path d="M403.456 573.327l1.621-16.215 35.026-1.621-8.758 21.078-27.889-3.242" fill="#dcdee2"/><path d="M392.195 563.997l-5.98 35.066 40.828 3.006-18.48-16.76 6.446-18.91-22.814-2.402" fill="#f57f53"/><path d="M401.687 564.25l-9.456 33.523-5.156-.429 3.828-34.424 10.784 1.33" fill="#f46b3c"/><path d="M427.004 593.561c3.488 3.488 3.367 10.583 3.488 10.583 0 0-44.368-.857-44.493-1.43-1.074-4.94-.044-8.313 1.29-10.313.43-.645 9.918 1.14 12.924.06 11.35-15.892 26.251.56 26.791 1.1" fill="#ee264b"/><path d="M389.136 566.928c4.673 2.296 22.544 3.484 27.941 2.83 1.259-10.328 39.642-79.171 45.615-131.874 2.925-25.81-13.408-35.75-32.179-36.293-17.578-.51-73.245-3.264-95.045-2.638l-6.872 9.687c-11.316 15.953-6.864 38.623 10.217 48.15 5.307 2.96 11.55 4.566 18.33 4.254l43.817-.61c6.15-.273 7.081.142 6.987 6.082l-18.811 100.412" fill="#1e4c80"/><path d="M323.057 435.133c-.773-3.114-.925-6.173-.633-9.113-.2 3.065.015 6.135.633 9.113" fill="#8498d4"/><path d="M328.299 445.795c-2.707-3.568-4.37-7.151-5.242-10.662a33.967 33.967 0 01-.633-9.113c1.108-11.119 8.565-20.563 12.757-25.07l21.755-.633c-.255.408-.535.854-.833 1.334-3.062 4.933-8.167 13.445-8.18 20.748-.002 2.824.782 5.489 2.78 7.63.434.467.924.907 1.472 1.318-7.256 4.352-15.23 9.17-23.876 14.448m24.582-14.871a10.59 10.59 0 01-1.622-1.412c-1.846-1.983-2.575-4.423-2.578-7.113-.005-4.986 2.563-10.767 5.154-15.436 1.293-2.335 2.589-4.396 3.564-5.955l.446-.717 3.151-.091 17.96.41 23.348 1.42s-17.788 9.935-49.423 28.894" fill="#20345f"/><path d="M358.323 397.88h.093l-.092-.01-.001.01h.093l-.092-.01c.003 0-.032.122-.11.278-.289.612-1.091 1.865-2.111 3.503-3.062 4.933-8.167 13.445-8.18 20.748-.002 2.824.782 5.489 2.78 7.63 1.997 2.143 5.17 3.743 9.881 4.547 5.399.921 11.623 1.25 18.172 1.25 16.516-.002 35.119-2.089 47.63-2.087 3.554-.002 6.614.168 8.98.594 2.366.422 4.017 1.122 4.767 2.054 1.155 1.398 1.728 3.965 1.723 7.42.003 7.197-2.41 18.169-6.044 30.533-5.447 18.552-13.624 40.265-20.439 57.336a1152.261 1152.261 0 01-8.688 21.152 1029.5 1029.5 0 01-2.618 6.14 498.083 498.083 0 01-.959 2.208l.695.304c.001-.004 9.698-22.112 19.397-47.865 4.85-12.878 9.7-26.664 13.34-39.06 3.639-12.4 6.072-23.395 6.075-30.748-.006-3.531-.548-6.242-1.895-7.9-.98-1.183-2.784-1.875-5.221-2.32-2.44-.439-5.535-.607-9.112-.607-12.586 0-31.171 2.087-47.631 2.087-6.524 0-12.71-.328-18.044-1.239-4.608-.787-7.608-2.333-9.453-4.316-1.846-1.983-2.575-4.423-2.578-7.113-.005-4.986 2.563-10.767 5.154-15.436 1.293-2.335 2.589-4.396 3.564-5.955.488-.781.896-1.435 1.186-1.943a8.27 8.27 0 00.346-.657c.082-.19.144-.327.15-.528h-.758" fill="#fff"/><path d="M388.052 573.003l1.621-16.215 33.403-.65-7.135 21.728-27.889-4.863" fill="#fff"/><path d="M382.632 252.876c-4.084-7.587-10.067-9.304-17.913-11.667-18.935-5.701-23.524-2.057-27.166 9.079-1.866 5.708-1.657 11.89.534 17.481.897 2.291.825 4.918-2.248 7.038-7.054 4.865-12.162 7.053-12.404 16.052-.243 9 8.026 6.324 4.377 14.108-3.648 7.782-13.62 4.134-11.917 14.594l9.242 2.675 7.54-10.216-2.189 12.404s52.293 3.648 63.968-3.405c0 0 1.947-8.999-10.459-17.999-12.404-8.999-1.945-15.81-1.945-20.675 0-4.864.58-29.469.58-29.469" fill="#0f1425"/><path d="M382.632 252.876l.39-.21c-2.075-3.862-4.67-6.266-7.72-7.97-3.047-1.707-6.534-2.73-10.455-3.912-5.984-1.801-10.558-2.681-14.166-2.683-3.921-.005-6.732 1.064-8.825 3.138-2.095 2.07-3.468 5.072-4.725 8.91a26.077 26.077 0 00-1.29 8.11c0 3.286.616 6.569 1.832 9.672.291.742.47 1.509.47 2.265-.01 1.457-.626 2.901-2.556 4.245-3.51 2.423-6.568 4.19-8.824 6.534-2.26 2.344-3.656 5.293-3.772 9.872-.004.134-.006.266-.006.397-.016 3.599 1.426 5.435 2.796 6.708.683.641 1.335 1.163 1.788 1.719.454.56.726 1.121.731 1.964 0 .76-.244 1.768-.89 3.144-.806 1.717-1.917 2.836-3.162 3.696-1.867 1.293-4.048 1.962-5.837 3.072-.894.556-1.692 1.237-2.262 2.178-.569.94-.894 2.127-.893 3.644 0 .682.065 1.432.2 2.263l.045.277 9.81 2.839 6.6-8.941-1.947 11.026.492.034c.007.001 13.535.945 28.379.945 7.176 0 14.657-.221 21.078-.877 6.426-.662 11.771-1.732 14.772-3.536l.164-.099.042-.187c.005-.026.12-.57.121-1.51.008-2.998-1.204-10.024-10.753-16.942-4.555-3.314-5.879-6.209-5.884-8.793-.003-2.19.98-4.241 2.008-6.148 1.016-1.912 2.097-3.647 2.113-5.375 0-2.42.145-9.792.29-16.549a7664.033 7664.033 0 01.29-12.91l.003-.117-.056-.104-.391.211-.444-.01c0 .002-.58 24.6-.58 29.48.016 1.326-.964 3.03-2.008 4.953-1.033 1.929-2.11 4.11-2.113 6.569-.006 2.928 1.569 6.127 6.25 9.512 9.335 6.784 10.376 13.456 10.386 16.223 0 .433-.027.77-.052.996l-.035.253-.013.073.433.094-.23-.38c-2.735 1.664-8.035 2.768-14.403 3.413-6.372.65-13.831.872-20.988.872-7.404 0-14.484-.236-19.714-.472a452.792 452.792 0 01-6.262-.324c-1.499-.088-2.338-.147-2.34-.147l-.031.443.437.077 2.518-14.266-8.48 11.488-8.946-2.588-.122.426.438-.072c-.129-.792-.189-1.494-.189-2.12.005-1.862.51-3.021 1.305-3.909 1.192-1.333 3.182-2.041 5.251-3.065 2.059-1.024 4.199-2.426 5.515-5.239.677-1.447.972-2.572.972-3.521.005-1.056-.387-1.872-.931-2.527-.817-.985-1.921-1.7-2.8-2.795-.877-1.092-1.577-2.538-1.583-5.069 0-.121.002-.247.006-.373.126-4.42 1.406-7.063 3.524-9.28 2.122-2.216 5.144-3.978 8.688-6.419 2.12-1.45 2.948-3.24 2.94-4.976-.002-.895-.21-1.77-.531-2.59-1.175-3-1.77-6.171-1.77-9.347 0-2.643.411-5.286 1.245-7.834 1.237-3.79 2.581-6.66 4.504-8.553 1.924-1.89 4.429-2.877 8.202-2.883 3.463-.001 7.97.856 13.91 2.646 3.925 1.181 7.353 2.197 10.278 3.836 2.926 1.642 5.363 3.89 7.371 7.616l.392-.211-.444-.01.444.01" fill="#0f1425"/><path d="M340.565 258.007c1.584-2.827.771-6.579-1.368-9.012-2.138-2.435-5.346-3.704-8.55-4.19-1.766-.268-3.596-.32-5.314.171-2.094.6-3.916 1.993-5.234 3.728-2.214 2.915-3.035 6.841-2.172 10.399.862 3.556 3.392 6.67 6.694 8.245 2.078.99 4.404 1.385 6.706 1.383 1.617 0 3.278-.207 4.702-.974 2.706-1.458 3.988-4.572 5.072-7.448" fill="#0f1425"/><path d="M499.292 394.795c.881-1.336-6.77-2.688-4.8-3.026 1.97-.336 10.833.662 11.004-.865.143-1.285-10.05-1.268-10.276-2.377-.228-1.108 11.428.353 11.86-.666 1.212-2.865-12.123-2.101-12.276-4.006-.188.242 11.533.556 10.955-1.603-.267-.995-9.09-1.485-17.488-1.727-.592-.016-.824-.777-.342-1.122 2.906-2.074 6.076-4.383 3.838-5.052-15.399 3.126-18.606 5.941-18.606 5.941l-.009.077-56.165-11.961c-1.796-.07-2.746-4.792-3.648-6.421-9.024-16.288-21.618-43.28-22.62-42.255-1.582 1.613-7.947 7.095-6.31 7.91-16.021 23.974 2.174 48.911 9.002 59.233 8.868 13.405 81.346 6.6 81.346 6.6l-.006-.086c3.892 1.154 23.745 2.614 24.541 1.406" fill="#f57f53"/><path d="M391.256 382.44l-5.22-12.54-10.308-61.528s10.897.928 19.581 10.964c5.831 6.736 12.544 21.035 12.544 21.035l-18.018 19.565" fill="#ee213d"/><path d="M374.66 253.075c-2.295-.899-13.317-3.022-22.49 15.476-.185.372-.614.508-.95.296-1.412-.891-5.004-2.588-7.597 1.132-2.622 3.758 1.056 10.212 4.277 9.198.7-.221 1.015 1.082 1.17 1.838.482 2.325.605 25.966-.926 26.938l-5.25 4.014c1.257.825 9.277 11.349 16.538 11.728 2.115.31 9.657 3.292 11.43 3.161 3.391.083 8.562-4.755 8.271-6.08 2.6-1.283 1.703-3.648 1.703-3.648l-8.293-9.485c-1.379-6.484-2.166-12.407-2.592-15.982 2.676-.549 12.749 2.531 14.396-16.137 1.506-17.065-6.967-21.383-9.687-22.45" fill="#f57f53"/><path d="M370.003 291.447l-4.788-.61 6.177 12.354z" fill="#f25b42"/><path d="M328.07 321.85s13.851-12.96 20.66-15.667c30.646 18 24.08.729 24.08.729 1.235 1.03 3.502.028 5.35 3.405 4.288 7.838 17.527 28.651 19.09 36.446 2.113 10.538-6.685 48.441-6.685 52.576l-75.157 2.188s7.99-65.492 12.663-79.678" fill="#ee264b"/><path d="M386.775 399.925a2692.63 2692.63 0 00-3.506-.125l-2.737-.17 6.035-.175.208.47" fill="#161d37"/><path d="M383.27 399.8c-1.3-.047-2.6-.092-3.9-.136l1.162-.033 2.737.169" fill="#090e17"/><path d="M387.16 400.797l-8.204-.186-10.387-.632 10.802-.315a2692.63 2692.63 0 017.404.261l.385.872" fill="#212d57"/><path d="M378.956 400.61l-17.96-.41 7.573-.221 10.387.632" fill="#1a2140"/><path d="M360.996 400.2l-23.983-.55s14.236-65.186 14.555-79.603l34.999 79.408-6.035.176-1.161.033-10.802.315-7.573.221" fill="#e51938"/><path d="M350.432 273.69c-3.168-7.323-5.753-1.44-5.753-1.44l5.753 1.44" fill="#f25b42"/><path d="M367.459 273.327a4.446 4.446 0 11-1.966 8.672 4.446 4.446 0 011.966-8.672M383.128 282.045a4.448 4.448 0 01-2.5-5.032c.367-1.614 2.188-2.618 3.667-3.068 0 0 .369 5.09-1.167 8.1" fill="#f36248"/><path d="M370.435 267.364c-.867.52.889-2.093 2.037-2.315 1.15-.22 2.78-.72 3.09.875.2 1.04-3.049.19-5.127 1.44M384.157 267.263c.784.638.044-1.78-1.062-2.162-1.106-.38-2.18-.514-2.507 1.372.07 1.058 1.687-.74 3.57.79M373.835 272.005c-.022.874.304 1.59.726 1.6.424.012.786-.689.807-1.561.021-.873-.304-1.59-.728-1.601-.423-.011-.783.688-.805 1.562M380.87 271.903c-.02.833.29 1.518.694 1.529.405.01.75-.657.77-1.492.02-.835-.29-1.519-.695-1.53-.404-.009-.748.66-.77 1.493" fill="#040606"/><path d="M377.755 272.86s1.398 3.11 1.541 3.973l-3.001-.096 1.46-3.877" fill="#f25b42"/><path d="M378.81 274.159c-1.137-.163-12 2.593-12 2.593l-11.623-7.215a9.277 9.277 0 00-5.403-1.378l16.559 10.932-1.388 6.938-17.055-6.852a6.667 6.667 0 003.533 3.466l13.107 5.46s6.323 4.864 12.81 3.244c6.486-1.622 6.81-14.919 6.81-14.919s-4.216-2.108-5.35-2.27" fill="#fff"/><path d="M352.54 268.32s11.185-2.085 22.701-16.135c0 0-20.43-16.944-22.701 16.135" fill="#0f1425"/><path d="M352.54 268.32l.085.456c.076-.012 11.379-2.148 22.975-16.296l.292-.357-.355-.294c-.016-.013-1.344-1.113-3.373-2.22-2.03-1.104-4.763-2.222-7.617-2.226-2.786-.01-5.695 1.113-7.96 4.304-2.27 3.186-3.943 8.384-4.51 16.601l-.04.597.588-.109-.085-.456.463.032c.556-8.123 2.218-13.161 4.338-16.127 2.124-2.96 4.658-3.905 7.206-3.914 2.608-.004 5.222 1.046 7.174 2.112a24.091 24.091 0 013.002 1.944c.149.114.222.176.222.176l.296-.358-.358-.293c-5.718 6.976-11.343 10.97-15.53 13.221-2.093 1.126-3.828 1.815-5.033 2.223a20.98 20.98 0 01-1.392.419c-.159.04-.28.068-.359.085l-.114.024.085.456.463.032-.463-.032" fill="#0f1425"/><path d="M338.757 320.047c-19.361 2.06-25.181 68.534-11.674 79.292 5.837 9.242 64.657 29.9 69.888 30.646 2.45 1.062 7.166 4.583 18.402 6.082 7.298.972 15.76.292 15.698-.834-.083-1.502-10.631-3.406-10.128-3.762.501-.355 11.614 2.32 12.077 1.213.461-1.107-10.088-3.01-10.13-3.761-.04-.751 11.094 2.3 11.534.816.441-1.482-10.672-4.156-10.19-4.888.482-.73 10.61 3.032 11.574 1.569.965-1.461-15.588-8.093-16.133-8.49-.543-.395 7.806-3.429 8.346-3.754 2.091-1.261-2.138-1.345-2.138-1.345-2.651-1.491-10.854.882-17.319.857-24.565-8.999-43.052-21.97-63.483-34.293-2.62-1.582 11.675-58.376-6.324-59.348" fill="#f57f53"/><path d="M348.487 367.72c9.973-34.02 2.432-51.565-6.248-56.49 0 0-23.426-3.83-29.75 54.543 3.056 2.096 34.376 2.595 35.998 1.947" fill="#ee264b"/><path d="M746.732 602.866c0-3.727-44.79-6.748-100.045-6.748-55.254 0-100.046 3.02-100.046 6.748 0 3.727 44.792 6.75 100.046 6.75 55.254 0 100.045-3.023 100.045-6.75" fill="#1f2e56"/><path d="M597.661 584.759l2.98-5.893 17.76.643.399 5.25-8.345 14.477-15.019-11.582 2.225-2.895" fill="#f46e49"/><path d="M608.496 579.457l.744 13.68s4.615-2.62 10.007-7.453l-.742-7.744-10.009 1.517" fill="#ca5434"/><path d="M596.588 584.557s5.217-.101 11.288 4.504c3.613 2.74 9.073-2.913 10.745-4.374.342-.298.803-.031.862.497l2.098 19.119h-52.849c-.615 0-1.112-.649-1.112-1.449v-4.022c0-.623.307-1.176.761-1.375l28.207-12.9" fill="#fff"/><path d="M593.43 585.884l8.509 4.922.376-.649-8.508-4.922M589.723 587.781l8.508 4.922.376-.65-8.508-4.921" fill="#1e2b52"/><path d="M683.767 584.759l2.981-5.893 16.299-2.443 1.86 8.336-8.346 14.477-15.02-11.582 2.226-2.895" fill="#f46e49"/><path d="M696.372 579.079l-1.48 12.92s4.615-2.62 10.007-7.454l-1.482-6.605-7.045 1.139" fill="#ca5434"/><path d="M682.695 584.557s5.216-.101 11.288 4.504c3.613 2.74 9.073-2.913 10.745-4.374.34-.298.803-.031.861.497l2.099 19.119h-52.85c-.614 0-1.113-.649-1.113-1.449v-4.022c0-.623.308-1.176.763-1.375l28.207-12.9" fill="#fff"/><path d="M678.341 586.263l8.508 4.922.376-.649-8.508-4.923M674.635 588.161l8.508 4.923.374-.65-8.506-4.922" fill="#1e2b52"/><path d="M600.96 353.352s-6.796 81.3-7.436 103.764c-.637 22.461 3.87 122.604 3.87 122.604l28.274.5s19.752-168.001 47.213-222.176l-71.921-4.692" fill="#3e7697"/><path d="M634.883 357.567c0 .001-.29 1.412-.8 3.917l.734.15c.511-2.505.8-3.911.802-3.915l-.736-.151M632.497 369.305c-.473 2.352-1.002 4.988-1.573 7.847l.735.147c.57-2.858 1.1-5.495 1.574-7.844zM629.365 385c-.498 2.522-1.016 5.149-1.544 7.849l.736.144c.528-2.7 1.046-5.325 1.544-7.848zm-3.069 15.701c-.5 2.59-1.004 5.216-1.507 7.855l.736.14c.503-2.638 1.007-5.264 1.507-7.852zm-2.992 15.715c-.493 2.641-.981 5.272-1.456 7.865l.737.136c.475-2.593.963-5.223 1.456-7.863zm-2.879 15.737c-.482 2.71-.942 5.348-1.376 7.883l.74.125c.432-2.532.892-5.168 1.375-7.876zm-2.684 15.777a397.78 397.78 0 00-1.194 7.92l.742.104c.331-2.369.732-5.026 1.192-7.905zm-2.112 15.899a30.393 30.393 0 00-.093 2.159c0 1.304-.024 3.309-.067 5.874l.751.012c.043-2.566.065-4.573.065-5.886 0-.571.032-1.278.092-2.104zm-.314 16.037c-.054 2.46-.114 5.143-.18 8l.75.018c.067-2.858.127-5.542.179-8.002zm-.371 15.998c-.064 2.586-.13 5.261-.2 7.997l.75.019c.07-2.736.137-5.411.2-7.998zm-.405 15.993c-.068 2.645-.139 5.319-.21 7.997l.751.02.21-7.997zm-.423 15.995l-.216 7.997.75.02c.073-2.632.145-5.305.217-7.997zm-.433 15.994l-.222 7.996.75.022c.072-2.567.145-5.243.221-7.998l-.75-.02zm-.444 15.995l-.226 8 .75.021c.068-2.388.144-5.077.225-8l-.75-.021M612.796 575.5l-.115 3.993.751.023.115-3.995-.751-.02" fill="#fff"/><path d="M600.903 353.352s15.714 67.77 31.677 115.716c12.899 38.747 41.47 112.943 41.47 112.943l31.703-.79-27.536-111.001a96.48 96.48 0 01-2.766-17.657c-1.415-22.515 3.213-68.01 5.148-97.16l-79.696-2.051" fill="#4583ab"/><path d="M655.592 354.583c0 .001-.121 1.441-.321 3.984l.748.058c.2-2.541.32-3.976.32-3.98l-.747-.062M654.695 366.296c-.167 2.325-.348 4.927-.534 7.741l.748.05c.187-2.814.367-5.414.534-7.738zm-1.022 15.484c-.15 2.495-.298 5.088-.441 7.747l.75.04c.142-2.658.29-5.248.44-7.742zm-.828 15.496c-.118 2.563-.229 5.155-.326 7.752l.749.028c.097-2.595.208-5.185.327-7.745zm-.58 15.51a561.094 561.094 0 00-.162 7.76l.749.01c.036-2.543.09-5.135.163-7.75zm-.206 15.52c.01 2.7.05 5.3.124 7.763l.75-.022c-.074-2.456-.114-5.05-.124-7.743zm.516 15.525c.224 2.968.528 5.581.928 7.736l.737-.138c-.393-2.114-.695-4.705-.917-7.654zm3.457 15.128c.745 1.869 1.65 4.337 2.679 7.282l.708-.246c-1.031-2.952-1.938-5.428-2.691-7.315zm5.176 14.634a944.189 944.189 0 012.419 7.379l.713-.23a910.705 910.705 0 00-2.42-7.386zm4.788 14.774c.763 2.401 1.544 4.877 2.337 7.406l.716-.224a2172.01 2172.01 0 00-2.337-7.409zm4.648 14.82c.76 2.448 1.525 4.926 2.292 7.42l.717-.22c-.768-2.495-1.533-4.975-2.292-7.422zm4.567 14.841c.757 2.481 1.513 4.963 2.261 7.43l.719-.218c-.75-2.467-1.504-4.95-2.263-7.43zm4.512 14.863c.76 2.517 1.508 5.002 2.24 7.436l.717-.216a5693.95 5693.95 0 00-2.239-7.438zm4.469 14.875c.77 2.575 1.513 5.064 2.221 7.445l.72-.215c-.709-2.38-1.452-4.87-2.222-7.444zm4.436 14.89c.81 2.728 1.55 5.23 2.205 7.45l.719-.213c-.656-2.22-1.396-4.72-2.205-7.45l-.719.213M692.95 577.29c.725 2.46 1.126 3.831 1.127 3.834l.72-.21s-.402-1.374-1.126-3.835l-.72.212" fill="#fff"/><path d="M483.085 283.997c.612-2.337 14.731 2.954 15.183 2.284.45-.669-14.72-4.894-14.264-6.536.457-1.638 14.499 3.062 15.173 2.543.675-.52-13.512-5.967-12.084-7.603 1.427-1.634 24.59 4.38 26.199 3.679 1.61-.7-6.156-7.723-6.695-11.496-.541-3.773 17.07 12 17.07 12 .589.315 1.742.761 3.293 1.299l.045-.26 37.052-.138s16.784-83.266 49.047-66.362c18.032 9.448-11.305 100.017-20.977 110.42l-32.456-9.816c-15.878-3.714-40.238-11.051-40.238-11.051s-32.98-11.41-32.782-13.388c.197-1.976 9.13.877 9.13.877-1.261-1.5-13.364-3.896-12.696-6.452" fill="#eb653e"/><path d="M533.745 279.883l-6.74.024-.045.26c-1.55-.538-2.704-.984-3.293-1.299 0 0-17.611-15.773-17.07-12 .539 3.773 8.304 10.796 6.695 11.496-1.61.701-24.772-5.313-26.199-3.679-1.428 1.636 12.759 7.083 12.084 7.603-.674.519-14.716-4.181-15.173-2.541-.456 1.64 14.715 5.865 14.264 6.534-.452.67-14.57-4.621-15.183-2.284-.668 2.556 11.435 4.952 12.696 6.452 0 0-8.933-2.853-9.13-.877-.198 1.979 32.782 13.388 32.782 13.388s4.362 1.315 10.588 3.11c1.128-8.746 2.347-17.478 3.724-26.187" fill="#93dbf7"/><path d="M597.167 254.14c-5.776 28.46.557 63.665-5.04 69.687l-25.854-10.331c9.371-9.136 16.183-14.463 30.894-59.356" fill="#ca5434"/><path d="M508.848 277.981l7.907 8.58s-3.384-7.269-2.97-8.125l-4.937-.455M562.499 277.452s18.342-80.95 50.605-64.045c18.032 9.448-1.19 85.521-10.863 95.925l-39.742-31.88" fill="#55a2d1"/><path d="M571.639 284.97l30.602 24.362c9.672-10.404 8.819-81.583-9.213-91.03l-21.39 66.667" fill="#32637f"/><path d="M564.947 267.796l42.556 29.715.186-.267-42.556-29.715" fill="#fff"/><path d="M669.472 235.232c-8.416-26.656-31.587-32.539-31.587-32.539l-12.609-3.528-.156.234-16.85 21.92-4.682-8.178-.315-3.281-5.294 3.019c-2.366.773-10.755 12.625-12.494 19.284-1.854 7.096-2.718 16.941-2.105 25.197l15.93 120.036 97.193-12.644s-18.154-101.405-27.031-129.52" fill="#55a2d1"/><path d="M598.457 366.815l95.247-14.132-.048-.322-95.247 14.131M599.552 211.996l6.67 24.993 25.147-36.658-.268-.184-24.748 36.074-6.486-24.309-.315.084" fill="#fff"/><path d="M611.539 175.765c11.836.771 6.629-34.173-.366-35.508-3.704-.17-4.508-3.86-7.338-3.644-12.56-9.898-33.9 1.075-42.335 8.938-1.117 3.292 11.348 10.522 14.737 11.466 0 0 .207 9.311 4.978 11.856 4.769 2.546 23.865-.901 23.865-.901l2.277 3.297" fill="#0f1526"/><path d="M578.621 158.29s2.098 30.815 12.455 40.44c2.57 1.429 8.033-1.014 10.761-1.411-.058-1.236.946 3.968.036 13.47.595 2.463 5.388 18.351 5.388 18.351l19.374-29.23-9.199-24.725s1.781.162 2.895-2.632c.621-1.565.9-5.472-1.006-8.57-1.82-2.956-7.878-1.534-8.469 1.537-.188.979-1.052 2.132-2.457.995-1.202-.972-5.114-14.184-9.006-13.055-8.416 2.445-13.17 3.976-17.297 4.576-2.768.404-3.475.255-3.475.255" fill="#f46e49"/><path d="M614.007 167.172c-.064.333 2.793-3.615 4.826 1.464M599.79 197.784l6.977-7.212-4.628 21.58z" fill="#ca5434"/><path d="M584.45 178.465c.16.899-.06 1.691-.493 1.77-.433.077-.916-.587-1.078-1.486-.162-.898.058-1.689.492-1.768.433-.078.916.587 1.078 1.484M591.85 176.463c.162.898-.058 1.69-.491 1.769-.434.077-.916-.587-1.079-1.485-.163-.899.057-1.69.492-1.768.435-.078.916.586 1.079 1.484M594.47 183.596l-.047.176c-.119.405-.478 1.441-1.194 2.353-.721.915-1.765 1.698-3.326 1.7-.623 0-1.332-.126-2.142-.43l-.208.553c.866.325 1.647.468 2.35.468 2.033.003 3.344-1.201 4.105-2.36.768-1.164 1.033-2.305 1.039-2.325l-.576-.135" fill="#0f1526"/><path d="M586.432 177.301c.233 2.588.087 6.835.087 6.835l4.248-.825-4.335-6.01" fill="#ca5434"/><path d="M589.453 171.41c-.625.147-2.664-1.489-.449-2.315 2.241-.838 5.73.622 6.241 1.19.512.568-2.341.322-5.792 1.126M580.65 173.524c-.629.147-2.458-1.797-.245-2.624 2.243-.836 3.876 1.384 4.387 1.95.512.57-.692-.13-4.143.674" fill="#0f1526"/><path d="M605.72 192.124s-5.963-9.888-5.943-13.935l-17.677 3.304s3.248 18.094 7.135 18.686c3.886.592 12.617-2.319 14.024-3.4 1.406-1.083 2.461-4.655 2.461-4.655" fill="#fff"/><path d="M592.893 198.85c3.643-1.529 6.064-4.934 7.174-8.647.322-.818.568-1.651.714-2.474.384-2.148.179-4.258-.32-6.322 1.56 4.582 5.259 10.717 5.259 10.717s-1.055 3.572-2.461 4.655c-1.407 1.081-10.138 3.992-14.024 3.4-.455-.07-.9-.388-1.332-.88 1.536.381 3.216.298 4.99-.448" fill="#dcdee2"/><path d="M599.415 178.396s9.758-14.933 12.976-15.019c0 0-9.93 12.675-12.568 16.42-.24-.021-.408-1.401-.408-1.401M618.39 175.01s-11.677 15.977-12.67 17.114l-.821-1.457 12.544-15.507.948-.15" fill="#fff"/><path d="M633.07 262.113l5.15 55.58 55.93 34.828s-9.977-43.764-11.49-66.101l-49.59-24.307" fill="#32637f"/><path d="M579.681 331.22c-.556-.464-16.518-3.481-16.76-5.24-.362-2.647 17.382 1.035 17.684 1.084 4.571.725-17.114-2.864-17.801-4.621-.687-1.759 9.317-.806 9.672-.778 0 0 8.517 1.323 8.744.723.228-.6-18.944-5.525-17.37-6.804 1.574-1.28 14.285.004 17.394.73 3.11.727 6.828.097 9.232.402 3.313.42-10.295-8.243-6.377-10.977 0 0 12.906 5.845 16.902 9.298 2.103 1.816 41.243-7.826 41.243-7.826 4.09-.987 4.368-1.782 3.484-5.894l-9.23-58.596s-2.549-26.83 9.74-24.26c18.311 3.834 41.858 35.2 37.214 101.132-1.053 14.963-10.264 23.399-30.341 23.591l-16.926-1.612.04.392c-34.536-2.568-56.169-7.767-60.181-8.572-2.295-.461-9.052-2.57-9.157-3.527-.244-2.185 13.352 1.819 12.794 1.355" fill="#f46e49"/><path d="M610.496 314.208c-5.065.907-8.879 1.361-9.495.83-3.996-3.454-16.902-9.3-16.902-9.3-3.918 2.735 9.69 11.398 6.377 10.978-2.404-.305-6.123.324-9.232-.401-3.11-.727-15.82-2.011-17.395-.731-1.573 1.279 14.03 5.763 13.802 6.364-.228.6-5.175-.283-5.175-.283-.355-.028-10.359-.981-9.672.778.688 1.758 22.372 5.345 17.801 4.621-.302-.05-18.046-3.73-17.684-1.085.242 1.76 16.204 4.777 16.76 5.241.558.464-13.038-3.54-12.794-1.355.105.956 6.862 3.066 9.157 3.527 2.884.579 14.865 3.425 34.195 5.935.178-8.372.301-16.746.257-25.119" fill="#93dbf7"/><path d="M643.665 202.98s-39.662-10.663-5.186 82.637l51.828 1.548s-15.326-84.732-46.642-84.185" fill="#55a2d1"/><path d="M636.037 275.267l53.056 1.293.008-.325-53.056-1.294" fill="#fff"/><path d="M490.361 241.81l-4.962-14.449-1.318.452 4.963 14.451" fill="#1c62b7"/><path d="M512.79 277.19l-18.829 6.466-10.76-31.33a2.088 2.088 0 011.298-2.653l14.878-5.11a2.089 2.089 0 012.654 1.296l10.76 31.33" fill="#4379be"/><path d="M501.087 257.676l-9.882 3.393-5.55-16.162a1.391 1.391 0 01.865-1.768l7.248-2.49a1.393 1.393 0 011.77.864l5.549 16.163" fill="#4379be"/><path d="M514.956 278.352l-21.55 7.401a1.57 1.57 0 01-1.997-.974v-.002a1.57 1.57 0 01.975-1.996l21.552-7.401a1.57 1.57 0 111.02 2.972M514.332 289.692l-13.468 4.627a.983.983 0 01-.639-1.859l13.47-4.625a.983.983 0 011.248.609v.001a.98.98 0 01-.611 1.247" fill="#1c62b7"/><path d="M504.11 263.888l-11.537 3.961a2.087 2.087 0 01-2.653-1.296l-4.392-12.788a2.026 2.026 0 011.256-2.572l11.66-4.004c1.057-.362 2.21.2 2.572 1.258l4.392 12.788a2.09 2.09 0 01-1.297 2.653" fill="#fff"/><path d="M509.33 290.616l-8.583-24.996-5.267 1.81 8.584 24.995" fill="#1c62b7"/><path d="M485.552 254.732c.417-.181 1.05-.396 1.69-.61.642-.217 1.29-.433 1.797-.651l-.551-1.279c-.417.181-1.05.396-1.69.61-.642.217-1.29.433-1.797.651l.551 1.279M485.975 257.381c.396-.173 1.01-.381 1.632-.59.624-.21 1.253-.42 1.744-.634l-.556-1.276c-.396.174-1.011.382-1.632.59-.624.21-1.254.421-1.744.634l.556 1.276" fill="#4379be"/><path d="M486.84 244.49c.693.27.99.693 1.193 1.153.163.476.23.986-.102 1.654-.696-.266-.994-.689-1.195-1.15-.159-.476-.227-.99.104-1.656" fill="#fff"/><path d="M487.455 260.436c.34-.117.897-.265 1.457-.412.564-.148 1.13-.296 1.557-.441l-.452-1.318c-.34.118-.897.266-1.458.412-.564.148-1.13.295-1.556.442l.452 1.317M488.41 263.9l3.16-1.132-.47-1.31c-.435.154-1.444.517-3.16 1.131l.47 1.311" fill="#4379be"/><path d="M493.088 284.323c.315-.688.768-.975 1.252-1.166.5-.149 1.032-.201 1.704.151-.313.692-.765.977-1.252 1.165-.5.148-1.033.2-1.704-.15M499.475 282.25c1.125-.927 2.408-1.458 3.716-1.891 1.321-.392 2.678-.686 4.132-.564-1.163.941-2.423 1.465-3.716 1.892-1.308.384-2.642.67-4.132.562" fill="#fff"/><path d="M507.628 195.799c-.904 0-1.921-1.115-2.548-1.97l-4.656-2.017c.224-.447.427-.904.604-1.375l4.567 1.979c.378-.005.769-.04 1.154-.04.567 0 1.12.076 1.598.433.712.534.804 1.39.404 2.15-.318.605-.708.84-1.123.84M502.355 207.22c-.287 0-.559-.068-.778-.233-.718-.542-.528-1.763-.39-2.59l-3.828-4.51v-2.32l4.937 5.818c.748.26 1.633.211 2.121.951.486.735.203 1.732-.433 2.27-.385.326-1.039.614-1.63.614" fill="#6ac5e2"/><path d="M497.359 199.887l-2.028-2.392c.422-.274.829-.568 1.218-.883l.81.955v2.32M492.876 204.967a.837.837 0 01-.247-.036c-.33-.1-.598-.39-.769-.682-.315-.54-.279-1.213.147-1.649-.37-1.07-.81-2.344-1.107-3.195.49-.12.97-.264 1.44-.432.32.918.77 2.22 1.097 3.168.522.196.999.59 1.078 1.17.09.686-.423 1.188-.99 1.469-.206.103-.424.187-.649.187M478.52 173.853l-3-4.521c-.8-.303-1.753-.748-2.216-1.508-.387-.633-.28-1.493.299-1.977.284-.238.63-.354.978-.354.374 0 .747.134 1.046.394.718.624.773 1.622 1.092 2.456l.026.12 3.006 4.528a14.43 14.43 0 00-1.231.862" fill="#64bcde"/><path d="M497.421 174.757c-.02-.02-.041-.04-.062-.058v-2.258l2.985-3.704c.113-1.092.324-2.52.98-3.41.26-.355.593-.492.944-.492.584 0 1.216.382 1.64.788.673.642.944 1.573.38 2.382-.564.807-1.5.979-2.395 1.202l-4.472 5.55" fill="#6ac5e2"/><path d="M497.359 174.699a14.73 14.73 0 00-1.08-.916l1.08-1.342v2.258" fill="#64bcde"/><path d="M501.61 182.117c-.11-.497-.246-.984-.406-1.458.723-.283 1.556-.615 2.41-.958.497-.644 1.269-1.726 2.107-1.921.08-.019.156-.028.231-.028.768 0 1.276.927 1.461 1.592.211.757-.053 1.6-.844 1.877a1.62 1.62 0 01-.537.092c-.475 0-.92-.201-1.361-.417-1.303.527-2.298.924-3.06 1.221" fill="#6ac5e2"/><path d="M492.708 171.77c-.467-.18-.944-.34-1.432-.473l.856-3.625c-.013-.997-.387-2.068.197-2.98a1.589 1.589 0 012.11-.525c.734.409.986 1.318.704 2.082-.266.719-.855 1.162-1.492 1.523l-.943 3.999M485.615 170.903l-.11-3.114c-.426-.604-.797-1.29-.618-2.052.146-.625.661-1.153 1.325-1.153h.012c.672.005 1.21.556 1.352 1.185.172.763-.161 1.447-.567 2.07l.104 2.95a14.953 14.953 0 00-1.498.114M482.312 171.721l-1.799-7.757c-.549-.788-1.432-1.076-1.418-2.197.01-.882.522-1.823 1.389-2.114.179-.06.363-.089.544-.089.61 0 1.188.33 1.436.93.432 1.04.015 2.411-.336 3.413l-.06.114 1.679 7.243c-.49.128-.968.281-1.435.457M473.808 180.323l-3.247-1.347v-1.625l3.835 1.59c-.219.45-.416.91-.588 1.382" fill="#64bcde"/><path d="M470.064 178.77l-.816-.338v-1.625l.816.338v1.626" fill="#63bedd"/><path d="M469.248 178.432l-3.245-1.347c-.407.132-.836.19-1.268.19a5.4 5.4 0 01-1.144-.127c-.823-.179-1.195-1.056-1.063-1.848.116-.705.705-1.273 1.416-1.273.068 0 .136.005.205.016.787.12 1.423.774 1.882 1.429l3.217 1.335v1.625" fill="#5bacd1"/><path d="M470.561 178.976l-.497-.205v-1.626l.497.206v1.625" fill="#63bedd"/><path d="M470.561 189.699v-1.751l2.476-.884c.062.51.15 1.01.263 1.5l-2.635.941c-.032.066-.068.13-.104.194" fill="#64bcde"/><path d="M469.248 190.868v-2.83c.203.049.407.106.61.16l.206-.073v2.222a2.25 2.25 0 01-.816.521" fill="#63bedd"/><path d="M468.593 190.981c-.697 0-1.37-.386-1.612-1.072-.246-.698.046-1.473.722-1.793.266-.128.534-.175.802-.175.248 0 .495.04.743.098v2.829a1.993 1.993 0 01-.655.113" fill="#5bacd1"/><path d="M470.064 190.347v-2.222l.497-.177v1.75a3.077 3.077 0 01-.497.649" fill="#63bedd"/><path d="M472.536 205.924c-.461 0-.936-.275-1.328-.56-.576-.419-1.02-1.187-.576-1.868.415-.633 1.364-.895 2.125-1.052l5.048-6.288c.374.332.766.645 1.172.937l-4.697 5.852.01.183c-.113.823-.371 1.868-.989 2.472a1.06 1.06 0 01-.765.324M479.933 207.665c-.346 0-.734-.136-1.082-.273-.66-.263-1.298-.82-1.163-1.603.143-.836.928-1.214 1.66-1.437l2.388-5.7c.459.197.93.37 1.41.52l-2.389 5.701c.246.688.304 1.484.047 2.167-.177.47-.5.625-.87.625" fill="#64bcde"/><path d="M497.359 195.91v-7.073a11.967 11.967 0 00.938-5.756 11.979 11.979 0 00-.938-3.757v-4.625a14.483 14.483 0 014.252 7.419c.144.642.245 1.302.302 1.977a14.471 14.471 0 01-1.489 7.717 14.608 14.608 0 01-3.065 4.097" fill="#6ac5e2"/><path d="M487.43 199.82a14.402 14.402 0 01-5.694-1.168 14.5 14.5 0 01-3.93-2.496 14.465 14.465 0 01-4.826-9.644 14.46 14.46 0 011.416-7.57 14.599 14.599 0 015.355-5.951 14.36 14.36 0 013.996-1.727 14.318 14.318 0 012.49-.427 14.953 14.953 0 011.224-.052 14.406 14.406 0 015.247.986 14.587 14.587 0 014.65 2.928v4.625c-1.858-4.31-6.147-7.25-11.014-7.25-.335 0-.673.013-1.013.042-6.61.552-11.519 6.356-10.967 12.965.524 6.27 5.775 11.01 11.953 11.01a12.002 12.002 0 0011.041-7.253v7.071a14.243 14.243 0 01-2.028 1.585 14.357 14.357 0 01-4.43 1.911 14.723 14.723 0 01-3.47.415" fill="#64bcde"/><path d="M497.359 188.837v-9.513c.502 1.163.826 2.425.938 3.757.17 2.039-.18 4.002-.938 5.756" fill="#80cbe7"/><path d="M486.317 196.09c-6.178 0-11.429-4.74-11.953-11.009-.552-6.609 4.357-12.413 10.967-12.965.34-.03.678-.043 1.013-.043 4.867 0 9.156 2.94 11.015 7.251v9.513a12.002 12.002 0 01-11.042 7.254m1.732-14.075l-.076.003c-.365.032-.644.278-.621.553.021.256.296.445.63.445.025 0 .05-.001.075-.004.366-.029.644-.276.622-.552-.022-.254-.296-.445-.63-.445m3.899-2.492c-.057 0-.115.003-.173.007-.826.069-1.452.609-1.403 1.206.047.556.661.966 1.41.966.057 0 .114-.003.173-.008.824-.07 1.453-.61 1.402-1.207-.046-.555-.661-.964-1.409-.964m-11.553-3.507c-.456 0-.97.14-1.454.426-1.062.624-1.584 1.708-1.164 2.421.228.387.687.585 1.228.585.455 0 .97-.14 1.454-.425 1.062-.624 1.582-1.708 1.164-2.42-.228-.388-.687-.587-1.228-.587m9.141.666a1.41 1.41 0 00-.104.004c-.459.038-.808.322-.781.633.024.288.361.499.774.499.034 0 .067-.002.102-.004.457-.039.808-.322.781-.635-.024-.287-.36-.497-.772-.497" fill="#78c3e3"/><path d="M491.781 181.703c-.748 0-1.362-.41-1.409-.966-.05-.597.577-1.137 1.403-1.206.058-.004.116-.007.173-.007.748 0 1.363.41 1.41.964.05.597-.58 1.137-1.403 1.207a1.907 1.907 0 01-.174.008M487.981 183.017c-.333 0-.608-.189-.629-.445-.023-.275.256-.521.621-.553l.076-.003c.334 0 .608.19.63.445.022.276-.256.523-.622.552a.725.725 0 01-.076.004M489.425 177.819c-.413 0-.75-.211-.774-.499-.027-.31.322-.595.781-.633a1.41 1.41 0 01.104-.004c.412 0 .748.21.772.497.027.313-.324.596-.781.635a1.313 1.313 0 01-.102.004M479.005 179.45c-.541 0-1-.2-1.228-.586-.42-.713.102-1.797 1.164-2.421.484-.286.998-.426 1.454-.426.541 0 1 .199 1.228.587.418.712-.102 1.796-1.164 2.42-.484.285-.999.425-1.454.425" fill="#a3d2dd"/><path d="M286.524 405.81c-1.072-.013-2.277-1.335-3.023-2.349l-3.926-1.701v-1.952l4.54 1.967c.449-.007.913-.048 1.37-.048.355 0 .704.025 1.039.109v3.973" fill="#6ac5e2"/><path d="M286.539 405.81h-.015v-3.974c.307.077.6.204.872.408.85.635.96 1.657.483 2.564-.38.72-.846 1.001-1.34 1.001M279.575 401.76l-1.626-.704c.267-.532.508-1.08.72-1.64l.906.392v1.952" fill="#64bcde"/><path d="M280.25 419.427c-.238 0-.469-.04-.675-.131v-5.157l.606.714c.892.312 1.947.254 2.53 1.135.578.877.242 2.067-.518 2.708-.458.388-1.238.73-1.942.73" fill="#6ac5e2"/><path d="M279.575 419.296a1.21 1.21 0 01-.251-.147c-.857-.645-.63-2.102-.467-3.088l-1.302-1.534h2.02v4.769m-.994-6.328h-2.348l-4.357-5.136c.504-.327.988-.679 1.453-1.053l5.252 6.189" fill="#64bcde"/><path d="M279.575 414.527h-2.02l-1.322-1.559h2.348l.994 1.17v.389" fill="#5aaed7"/><path d="M268.95 416.741a.987.987 0 01-.295-.044c-.395-.12-.715-.464-.918-.812a1.722 1.722 0 01-.182-1.358h3.293c.024.076.043.156.053.24.111.817-.502 1.416-1.177 1.75-.248.123-.507.224-.775.224m.528-3.773h-1.893c-.355-1.025-.723-2.088-.992-2.86a17.127 17.127 0 001.717-.513c.338.968.798 2.297 1.168 3.373" fill="#64bcde"/><path d="M270.848 414.527h-3.293a1.49 1.49 0 01.357-.608l-.328-.951h1.893l.14.404c.547.205 1.054.592 1.231 1.155" fill="#5aaed7"/><path d="M251.83 379.641l-3.577-5.392c-.294-.11-.605-.237-.91-.386.71-.452 1.38-.964 2.001-1.53l.084-.076c.076.276.153.551.253.811l.034.145 3.582 5.4c-.506.318-.997.662-1.466 1.028" fill="#64bcde"/><path d="M249.333 371.92a93.426 93.426 0 00-1.073-1.876 2.1 2.1 0 01.12.096c.54.47.765 1.116.953 1.78" fill="#57a8d0"/><path d="M246.839 373.59c-.496-.297-.942-.666-1.228-1.138-.46-.756-.334-1.781.356-2.359a1.805 1.805 0 011.516-.388c.521.878.981 1.675 1.381 2.392a14.315 14.315 0 01-2.025 1.494" fill="#5bacd1"/><path d="M247.343 373.863a6.712 6.712 0 01-.276-.142 14.595 14.595 0 002.285-1.736l.076.272-.084.076a14.683 14.683 0 01-2.001 1.53" fill="#63bedd"/><path d="M247.067 373.721a6.325 6.325 0 01-.228-.13 14.315 14.315 0 002.025-1.494c-.4-.717-.86-1.514-1.381-2.392a1.9 1.9 0 01.777.339c.397.677.755 1.303 1.073 1.876a1.2 1.2 0 01.019.065c-.7.651-1.467 1.232-2.285 1.736" fill="#5bacd1"/><path d="M279.575 374.256v-5.25c.181-.083.374-.12.572-.12.697 0 1.45.457 1.957.94.803.767 1.125 1.877.452 2.84-.67.963-1.787 1.169-2.856 1.434l-.125.156" fill="#6ac5e2"/><path d="M274.37 380.717c-.435-.41-.89-.797-1.365-1.161l4.848-6.016c.135-1.301.387-3.005 1.168-4.068.164-.221.351-.372.554-.465v5.249l-5.206 6.461" fill="#64bcde"/><path d="M279.575 389.412v-1.93c.684-.27 1.425-.565 2.178-.867.591-.771 1.512-2.059 2.514-2.292a1.23 1.23 0 01.273-.032c.917 0 1.523 1.102 1.743 1.896.252.904-.063 1.909-1.006 2.238-.218.076-.433.11-.641.11-.565 0-1.097-.24-1.621-.498-1.438.582-2.56 1.031-3.44 1.375" fill="#6ac5e2"/><path d="M279.364 389.495a17.07 17.07 0 00-.485-1.739l.696-.273v1.929l-.211.083M268.748 377.156a17.274 17.274 0 00-1.707-.564l1.02-4.323c-.014-1.189-.461-2.466.236-3.552a1.896 1.896 0 012.514-.628c.877.49 1.178 1.572.841 2.484-.317.858-1.019 1.386-1.78 1.816l-1.124 4.767M260.29 376.123l-.13-3.715c-.51-.719-.95-1.539-.739-2.445.176-.747.791-1.376 1.584-1.376h.012c.802.008 1.444.664 1.612 1.414.206.91-.192 1.726-.676 2.467l.124 3.52a17.223 17.223 0 00-1.786.135M256.352 377.099l-2.145-9.251c-.355-.508-.826-.843-1.18-1.253.466-1.196.78-2.47.914-3.794a2.024 2.024 0 01.879-.2c.728 0 1.417.395 1.713 1.108.515 1.242.018 2.876-.401 4.072l-.072.136 2.003 8.636c-.584.154-1.155.335-1.711.546" fill="#64bcde"/><path d="M253.027 366.595c-.302-.35-.519-.754-.512-1.367.012-.97.533-2.001 1.426-2.427a14.453 14.453 0 01-.914 3.794" fill="#57a8d0"/><path d="M246.21 387.355l-9.306-3.859a4.91 4.91 0 01-1.508.225c-.46 0-.921-.056-1.368-.152-.98-.212-1.424-1.258-1.268-2.202.14-.842.843-1.52 1.692-1.52.08 0 .16.006.243.018.937.144 1.696.926 2.242 1.707l9.976 4.136a17.45 17.45 0 00-.702 1.647M239.995 400.064c-.832 0-1.635-.46-1.924-1.277-.294-.834.056-1.758.86-2.139.318-.152.638-.21.957-.21.539 0 1.076.163 1.612.309l3.792-1.354c.075.608.179 1.204.313 1.79l-3.14 1.121c-.436.868-1.162 1.6-2.161 1.739a2.193 2.193 0 01-.31.021M244.693 417.883c-.549 0-1.114-.327-1.582-.668-.687-.5-1.216-1.418-.686-2.228.115-.176.266-.328.44-.46h3.92l.002.021c-.135.981-.443 2.228-1.18 2.948a1.268 1.268 0 01-.914.387m3.175-4.915h-2.296l5.405-6.733c.447.396.914.769 1.399 1.118l-4.508 5.615" fill="#64bcde"/><path d="M246.785 414.527h-3.92c.571-.434 1.398-.651 2.095-.795l.612-.764h2.296l-1.093 1.363.01.196" fill="#5aaed7"/><path d="M253.515 419.959c-.414 0-.876-.162-1.291-.327-.787-.312-1.545-.975-1.385-1.91.169-.998 1.106-1.449 1.98-1.713l.621-1.482h1.94l-.881 2.102c.292.822.362 1.771.056 2.584-.212.562-.599.746-1.04.746m2.517-6.991h-1.94l1.573-3.756c.547.233 1.108.441 1.682.619l-1.315 3.137" fill="#64bcde"/><path d="M255.38 414.527h-1.94l.652-1.559h1.94l-.652 1.559" fill="#5aaed7"/><path d="M279.575 396.007V390.6a17.497 17.497 0 010 5.406" fill="#6ac5e2"/><path d="M262.455 410.604a17.182 17.182 0 01-6.79-1.392 17.418 17.418 0 01-4.688-2.977 17.255 17.255 0 01-5.752-11.499 17.255 17.255 0 011.688-9.028 17.384 17.384 0 016.384-7.095 17.104 17.104 0 014.766-2.06 17.178 17.178 0 012.97-.509 17.223 17.223 0 011.46-.061 17.241 17.241 0 0111.876 4.734 17.264 17.264 0 015.206 9.884v5.406a17.233 17.233 0 01-1.626 5.049 17.414 17.414 0 01-6.073 6.776 17.212 17.212 0 01-7.96 2.71c-.49.042-.979.062-1.461.062m-1.294-33.085c-.4 0-.804.016-1.209.05-7.881.659-13.736 7.58-13.077 15.46.625 7.475 6.884 13.128 14.252 13.128.4 0 .804-.017 1.209-.05 7.88-.659 13.735-7.582 13.077-15.462-.625-7.476-6.884-13.126-14.252-13.126" fill="#64bcde"/><path d="M261.127 406.157c-7.368 0-13.627-5.653-14.252-13.128-.659-7.88 5.196-14.801 13.077-15.46.405-.034.81-.05 1.21-.05 7.367 0 13.626 5.65 14.251 13.126.658 7.88-5.197 14.803-13.077 15.462-.405.033-.81.05-1.21.05m2.066-16.784a.971.971 0 00-.088.004c-.437.036-.77.332-.741.66.025.306.353.531.75.531l.09-.003c.437-.037.769-.332.741-.661-.025-.304-.353-.53-.752-.53m4.65-2.973c-.069 0-.138.003-.207.008-.983.083-1.732.727-1.672 1.44.054.662.786 1.151 1.678 1.151.068 0 .139-.004.21-.01.982-.082 1.732-.725 1.672-1.438-.056-.663-.79-1.15-1.682-1.15m-13.777-4.18c-.543 0-1.155.166-1.732.506-1.267.744-1.887 2.037-1.388 2.888.272.461.819.697 1.464.697.543 0 1.156-.166 1.733-.506 1.267-.743 1.888-2.036 1.388-2.887-.272-.461-.818-.699-1.465-.699m10.9.794c-.04 0-.08.001-.121.004-.547.046-.964.384-.934.756.03.342.431.594.923.594.04 0 .081-.001.123-.005.546-.045.962-.384.932-.755-.028-.344-.431-.594-.923-.594" fill="#78c3e3"/><path d="M267.641 389c-.892 0-1.624-.49-1.678-1.15-.06-.714.689-1.358 1.672-1.44.069-.006.138-.009.206-.009.892 0 1.626.488 1.682 1.151.06.713-.69 1.356-1.672 1.439a2.81 2.81 0 01-.21.009M263.113 390.568c-.397 0-.725-.225-.75-.53-.028-.329.304-.625.741-.66a.971.971 0 01.088-.005c.399 0 .727.227.752.531.028.33-.304.624-.741.661l-.09.003M264.832 384.37c-.492 0-.893-.253-.923-.595-.03-.372.387-.71.934-.756.041-.003.081-.004.121-.004.492 0 .895.25.923.594.03.371-.386.71-.932.755a1.277 1.277 0 01-.123.005M252.408 386.313c-.645 0-1.192-.236-1.464-.697-.499-.85.121-2.144 1.388-2.888.577-.34 1.19-.507 1.732-.507.647 0 1.193.238 1.465.699.5.85-.121 2.144-1.388 2.887-.577.34-1.19.506-1.733.506" fill="#a3d2dd"/><path d="M366.71 155.985l-1.357-.588c.395-.785.751-1.593 1.064-2.421l1.858.805-1.566 2.204" fill="#57a8d0"/><path d="M378.036 162.416c-1.59 0-3.38-1.963-4.485-3.467l-6.375-2.762 1.565-2.203 5.715 2.476c.664-.01 1.35-.07 2.025-.07 1.002 0 1.978.133 2.822.763 1.253.936 1.416 2.447.71 3.786-.56 1.062-1.248 1.477-1.977 1.477" fill="#5bacd1"/><path d="M367.176 156.187l-.467-.202 1.566-2.204.466.203-1.565 2.203" fill="#5bacd1"/><path d="M358.396 167.773l-2.01-2.37c.743-.482 1.46-1 2.146-1.555l1.433 1.69-1.569 2.235" fill="#57a8d0"/><path d="M368.752 182.523c-.505 0-.984-.119-1.37-.41-1.265-.953-.93-3.104-.687-4.56l-7.966-9.388 1.568-2.236 8.352 9.843c1.316.459 2.875.372 3.734 1.675.856 1.294.36 3.049-.764 3.998-.676.571-1.827 1.078-2.867 1.078" fill="#5bacd1"/><path d="M358.73 168.165l-.334-.392 1.57-2.236.331.392-1.568 2.236" fill="#5bacd1"/><path d="M351.11 178.235c-.346-.243-.63-.591-.835-.94-.556-.951-.491-2.135.257-2.903-.648-1.883-1.424-4.128-1.948-5.627.865-.21 1.71-.465 2.536-.76.563 1.614 1.355 3.908 1.93 5.578.333.124.654.293.937.508-.96 1.38-1.919 2.761-2.876 4.144" fill="#57a8d0"/><path d="M352.061 178.557a1.48 1.48 0 01-.508-.088c.934-1.348 1.87-2.697 2.806-4.042.308.33.525.737.589 1.214.163 1.21-.744 2.092-1.74 2.587-.365.18-.75.33-1.147.33" fill="#5bacd1"/><path d="M351.553 178.47a1.88 1.88 0 01-.442-.235c.957-1.383 1.916-2.764 2.876-4.144.133.101.258.213.372.336-.936 1.345-1.872 2.694-2.806 4.042" fill="#5bacd1"/><path d="M323.545 118.89l-2.04-3.073c-1.409-.53-3.085-1.314-3.901-2.654-.679-1.115-.492-2.63.525-3.482a2.676 2.676 0 011.723-.622 2.82 2.82 0 011.843.692c1.264 1.097 1.36 2.856 1.92 4.324l.049.212 2.836 4.273c-1.013.01-2.001.124-2.955.33" fill="#64bcde"/><path d="M326.788 123.779l-3.243-4.888c.954-.207 1.942-.32 2.955-.331l2.455 3.7c-.751.47-1.472.976-2.167 1.519" fill="#57a8d0"/><path d="M365.553 118.56h-3.396l3.055-3.79c.2-1.922.57-4.437 1.725-6.006.458-.623 1.044-.865 1.662-.865 1.028 0 2.141.674 2.888 1.388 1.185 1.132 1.662 2.772.669 4.193-.992 1.421-2.64 1.724-4.217 2.117l-2.386 2.963" fill="#64bcde"/><path d="M360.067 125.368a25.974 25.974 0 00-2.014-1.715l4.104-5.093h3.396l-5.486 6.808M367.443 138.328a25.636 25.636 0 00-.718-2.57 512.783 512.783 0 004.246-1.685c.872-1.133 2.232-3.038 3.709-3.382a1.79 1.79 0 01.404-.047c1.355 0 2.25 1.628 2.575 2.8.37 1.335-.095 2.819-1.486 3.304a2.842 2.842 0 01-.948.163c-.834 0-1.62-.355-2.393-.735-2.296.93-4.047 1.628-5.39 2.152" fill="#57a8d0"/><path d="M352.132 118.56h-2.715l1.335-5.667c-.02-1.756-.68-3.64.35-5.244a2.796 2.796 0 013.711-.926c1.296.722 1.739 2.321 1.243 3.668-.468 1.265-1.505 2.045-2.63 2.678l-1.294 5.491" fill="#64bcde"/><path d="M351.767 120.11a25.429 25.429 0 00-2.519-.833l.17-.717h2.714l-.365 1.55" fill="#57a8d0"/><path d="M339.475 118.56h-.196l-.192-5.46c-.752-1.061-1.404-2.272-1.09-3.61.259-1.103 1.166-2.031 2.336-2.031h.02c1.183.008 2.131.98 2.379 2.085.303 1.345-.284 2.548-.997 3.643l.182 5.198a26.184 26.184 0 00-2.442.175" fill="#64bcde"/><path d="M339.28 118.583l-.001-.023h.196l-.195.023" fill="#57a8d0"/><path d="M335.837 118.56h-2.713l-2.827-12.193c-.968-1.387-2.521-1.896-2.498-3.87.018-1.55.92-3.208 2.446-3.72.315-.105.639-.157.959-.157 1.073 0 2.09.581 2.528 1.636.761 1.83.025 4.245-.593 6.01l-.106.202 2.804 12.092" fill="#64bcde"/><path d="M333.464 120.025l-.34-1.465h2.713l.152.659c-.861.226-1.704.496-2.525.806" fill="#57a8d0"/><path d="M312.093 132.515l-7.344-3.046a7.225 7.225 0 01-2.23.334 9.538 9.538 0 01-2.015-.224c-1.45-.314-2.105-1.858-1.873-3.252.206-1.243 1.242-2.244 2.496-2.244.118 0 .238.009.36.028 1.384.21 2.504 1.365 3.312 2.517l7.661 3.177c-.204.876-.33 1.782-.367 2.71" fill="#64bcde"/><path d="M318.49 135.168l-6.397-2.653c.038-.928.163-1.834.367-2.71l7.067 2.931c-.386.79-.732 1.601-1.036 2.432" fill="#57a8d0"/><path d="M309.313 153.933c-1.229 0-2.416-.678-2.841-1.885-.435-1.232.081-2.595 1.27-3.159a3.22 3.22 0 011.413-.308c.794 0 1.589.24 2.381.455l.544-.195v3.79c-.604.66-1.376 1.141-2.31 1.27a3.296 3.296 0 01-.457.032" fill="#64bcde"/><path d="M312.08 152.63v-3.789l5.055-1.805c.109.897.264 1.78.461 2.643-1.472.525-3.133 1.118-4.636 1.656-.236.469-.53.912-.88 1.296M316.25 180.243c-.811 0-1.647-.482-2.337-.986-1.013-.74-1.796-2.09-1.012-3.29.73-1.115 2.4-1.575 3.742-1.852l8.886-11.071a25.84 25.84 0 002.064 1.65L319.324 175l.017.32c-.198 1.449-.654 3.29-1.742 4.353-.42.41-.88.57-1.35.57M329.275 183.31c-.611 0-1.294-.24-1.906-.483-1.162-.463-2.282-1.44-2.045-2.823.25-1.472 1.635-2.137 2.923-2.53l4.204-10.034c.808.347 1.636.652 2.482.915l-4.205 10.038c.43 1.211.535 2.614.083 3.814-.314.829-.884 1.102-1.536 1.102" fill="#57a8d0"/><path d="M345.575 118.56h-6.1a24.837 24.837 0 012.442-.175 25.482 25.482 0 013.657.175" fill="#64bcde"/><path d="M342.475 169.496a25.416 25.416 0 01-10.024-2.056 25.587 25.587 0 01-6.922-4.396 25.488 25.488 0 01-8.494-16.979 25.482 25.482 0 012.492-13.329 25.695 25.695 0 019.428-10.476 25.429 25.429 0 0110.325-3.677l.195-.023h6.1a25.269 25.269 0 016.192 1.55 25.583 25.583 0 018.3 5.258 25.509 25.509 0 016.658 10.39 25.636 25.636 0 011.248 6.051 25.449 25.449 0 01-2.62 13.588 25.68 25.68 0 01-8.968 10.006 25.403 25.403 0 01-11.753 4.002c-.723.062-1.444.091-2.157.091m-1.911-48.852c-.59 0-1.187.024-1.785.075-11.636.972-20.28 11.192-19.307 22.829.921 11.036 10.164 19.381 21.044 19.381.59 0 1.185-.024 1.784-.074 11.636-.972 20.28-11.192 19.308-22.83-.923-11.036-10.165-19.381-21.044-19.381" fill="#57a8d0"/><path d="M340.516 162.93c-10.88 0-20.123-8.346-21.044-19.382-.973-11.637 7.67-21.857 19.307-22.83.598-.05 1.194-.074 1.785-.074 10.879 0 20.121 8.345 21.044 19.381.972 11.638-7.672 21.858-19.308 22.83-.599.05-1.195.074-1.784.074m3.047-24.78c-.043 0-.086.002-.13.006-.645.054-1.136.49-1.096.973.039.452.524.784 1.112.784.043 0 .087-.001.131-.005.644-.054 1.135-.49 1.093-.974-.037-.45-.522-.784-1.11-.784m6.865-4.389c-.1 0-.201.004-.304.013-1.452.122-2.557 1.072-2.47 2.126.082.977 1.166 1.698 2.483 1.698.1 0 .202-.004.304-.013 1.452-.121 2.558-1.072 2.47-2.125-.082-.978-1.166-1.699-2.483-1.699m-20.34-6.17c-.801 0-1.707.245-2.56.746-1.87 1.1-2.787 3.008-2.048 4.264.401.681 1.21 1.032 2.163 1.032.801 0 1.705-.247 2.558-.748 1.87-1.099 2.787-3.008 2.05-4.264-.402-.683-1.21-1.03-2.163-1.03m16.093 1.169c-.06 0-.12.002-.181.008-.805.068-1.423.566-1.377 1.114.042.507.636.879 1.361.879.06 0 .121-.003.181-.008.808-.068 1.424-.567 1.379-1.115-.043-.506-.636-.878-1.363-.878" fill="#69add5"/><path d="M350.137 137.597c-1.317 0-2.401-.721-2.482-1.698-.088-1.054 1.017-2.004 2.469-2.126.103-.009.204-.013.304-.013 1.317 0 2.401.721 2.483 1.699.088 1.053-1.018 2.004-2.47 2.125-.102.01-.204.013-.304.013M343.45 139.912c-.589 0-1.074-.332-1.113-.784-.04-.483.451-.919 1.096-.973.044-.004.087-.006.13-.006.588 0 1.073.334 1.11.784.042.484-.449.92-1.093.974a1.447 1.447 0 01-.13.005M345.984 130.76c-.725 0-1.319-.372-1.361-.879-.046-.548.572-1.046 1.377-1.114.061-.006.121-.008.181-.008.727 0 1.32.372 1.363.878.045.548-.57 1.047-1.379 1.115-.06.005-.121.008-.181.008M327.643 133.632c-.954 0-1.762-.35-2.163-1.032-.739-1.256.179-3.164 2.048-4.264.853-.501 1.759-.747 2.56-.747.953 0 1.761.348 2.163 1.031.737 1.256-.18 3.165-2.05 4.264-.853.501-1.757.748-2.558.748" fill="#8cbcd0"/><path d="M771.584 216.633c-1.59 0-3.38-1.962-4.484-3.468l-8.197-3.552a25.59 25.59 0 001.064-2.42l8.037 3.484c.665-.01 1.353-.07 2.03-.07 1 0 1.974.133 2.817.762 1.256.938 1.416 2.447.71 3.787-.558 1.063-1.246 1.477-1.977 1.477M760.213 231.736l-10.278-12.116a25.487 25.487 0 002.146-1.555l10.116 11.923c1.3.453 2.836.375 3.702 1.627h-4.47c-.417 0-.822.041-1.216.121" fill="#4e98c7"/><path d="M762.303 236.74c-.507 0-.986-.12-1.371-.41-1.267-.954-.93-3.105-.69-4.56l-.029-.034c.394-.08.799-.121 1.216-.121h4.47l.033.048c.855 1.296.359 3.049-.765 3.998-.676.572-1.826 1.079-2.864 1.079" fill="#58a8d1"/><path d="M745.61 232.775c-.142 0-.286-.02-.433-.064-.581-.178-1.053-.687-1.353-1.2-.555-.95-.492-2.135.257-2.903-.649-1.883-1.425-4.127-1.948-5.625.866-.211 1.711-.466 2.535-.76.564 1.613 1.356 3.908 1.932 5.576.919.344 1.759 1.037 1.896 2.058.164 1.21-.743 2.094-1.739 2.587-.365.18-.749.33-1.146.33" fill="#4e98c7"/><path d="M720.337 177.995l-5.282-7.962a14 14 0 01-1.798-.805c.992-1.279 1.99-2.559 2.986-3.836.397.921.565 1.968.921 2.899l.05.214 5.29 7.972c-.75.47-1.473.976-2.167 1.518" fill="#52a1cd"/><path d="M712.819 168.97c-.672-.422-1.271-.942-1.666-1.591-.678-1.115-.49-2.63.524-3.48a2.678 2.678 0 011.724-.624c.658 0 1.316.236 1.842.692.314.273.556.586.75.925a4758.954 4758.954 0 00-3.174 4.079" fill="#57a8d1"/><path d="M713.257 169.228a8.394 8.394 0 01-.438-.257l3.174-4.079c.094.161.175.328.25.5-.996 1.277-1.994 2.557-2.986 3.836" fill="#57a8d1"/><path d="M753.616 179.585a25.701 25.701 0 00-2.013-1.716l7.158-8.884c.199-1.92.571-4.436 1.724-6.004.459-.622 1.046-.865 1.662-.865 1.029 0 2.142.673 2.889 1.388 1.184 1.13 1.661 2.77.67 4.193-.993 1.422-2.64 1.723-4.218 2.118l-7.872 9.77M770.268 190.695h-3.243c-.216-.094-.43-.198-.644-.302l-.748.302h-5.129c-.073-.242-.15-.48-.23-.719a512.783 512.783 0 004.246-1.685c.87-1.135 2.23-3.04 3.708-3.383.14-.032.275-.047.407-.047 1.353 0 2.248 1.63 2.573 2.799.317 1.141.023 2.392-.94 3.035" fill="#52a1cd"/><path d="M760.992 192.544a25.785 25.785 0 00-.488-1.85h5.13c-1.934.782-3.45 1.385-4.642 1.85m7.783-1.417c-.604 0-1.183-.186-1.75-.432h3.243c-.163.109-.344.2-.547.27a2.827 2.827 0 01-.946.162" fill="#4e98c7"/><path d="M745.316 174.327a25.338 25.338 0 00-2.52-.834l1.505-6.382c-.02-1.756-.681-3.642.351-5.244a2.796 2.796 0 013.71-.928c1.295.722 1.74 2.321 1.242 3.668-.468 1.266-1.504 2.046-2.628 2.681l-1.66 7.039M732.828 172.8l-.193-5.484c-.751-1.061-1.404-2.27-1.088-3.61.258-1.103 1.165-2.031 2.334-2.031h.02c1.183.009 2.132.98 2.38 2.086.303 1.346-.285 2.548-.998 3.643l.184 5.197a26.184 26.184 0 00-2.639.199M727.013 174.241l-3.168-13.657c-.64-.917-1.536-1.45-2.062-2.279 1.37-1.746 2.74-3.49 4.114-5.234.604.262 1.11.738 1.384 1.401.76 1.83.024 4.245-.593 6.012l-.105.2 2.956 12.752c-.862.225-1.704.495-2.526.805" fill="#52a1cd"/><path d="M721.532 157.81c-.12-.313-.19-.67-.184-1.095.019-1.551.92-3.21 2.445-3.722a2.967 2.967 0 011.593-.088c-1.286 1.634-2.571 3.27-3.854 4.906" fill="#57a8d1"/><path d="M721.783 158.305a2.776 2.776 0 01-.251-.494c1.283-1.636 2.568-3.272 3.855-4.906.176.039.346.095.51.166a3083.302 3083.302 0 00-4.114 5.234" fill="#57a8d1"/><path d="M712.04 189.384l-10.863-4.504 1.666-2.17 10.233 4.242c-.385.79-.732 1.601-1.036 2.432" fill="#52a1cd"/><path d="M700.696 184.68l-2.397-.995a7.214 7.214 0 01-2.228.334c-.679 0-1.36-.082-2.019-.224-1.448-.312-2.105-1.858-1.873-3.251.208-1.241 1.245-2.244 2.496-2.244.118 0 .238.01.361.028 1.384.21 2.504 1.364 3.31 2.516l4.015 1.665-1.665 2.171M701.177 184.88l-.481-.2 1.665-2.17.482.2-1.666 2.17" fill="#57a8d1"/><path d="M702.864 208.15c-1.23 0-2.417-.68-2.844-1.886-.433-1.232.083-2.593 1.27-3.157.471-.224.943-.308 1.414-.308.795 0 1.59.24 2.381.454l5.599-2c.108.898.264 1.78.461 2.643l-4.637 1.656c-.643 1.28-1.715 2.363-3.188 2.568-.152.02-.304.03-.456.03M709.8 234.46c-.812 0-1.648-.483-2.339-.987-1.013-.737-1.796-2.09-1.012-3.289.73-1.115 2.4-1.576 3.743-1.853l8.887-11.07a25.9 25.9 0 002.064 1.651l-8.271 10.303.017.32c-.197 1.449-.653 3.29-1.741 4.354-.42.41-.88.571-1.348.571M721.785 237.352a10.56 10.56 0 01-.866-.308c-1.163-.463-2.283-1.441-2.046-2.823.251-1.469 1.628-2.133 2.912-2.526v5.657" fill="#52a1cd"/><path d="M722.824 237.525c-.332 0-.687-.07-1.039-.173v-5.657a.02.02 0 00.01-.003l4.204-10.035c.808.346 1.637.652 2.484.915l-4.207 10.039c.432 1.209.536 2.613.083 3.813-.312.83-.883 1.101-1.535 1.101" fill="#4e98c7"/><path d="M721.785 219.36a25.9 25.9 0 01-2.707-2.099 25.466 25.466 0 01-8.494-16.978 25.467 25.467 0 012.492-13.331 25.692 25.692 0 019.428-10.475 25.359 25.359 0 017.035-3.041 25.561 25.561 0 014.386-.752 26.184 26.184 0 012.158-.09 25.446 25.446 0 019.233 1.733 25.626 25.626 0 018.3 5.258 25.5 25.5 0 016.888 11.11h-5.948c-2.381-9.23-10.765-15.835-20.445-15.835-.591 0-1.186.025-1.784.075-11.635.972-20.279 11.193-19.307 22.829.537 6.43 3.9 11.95 8.765 15.433v6.163" fill="#52a1cd"/><path d="M736.027 223.713a25.427 25.427 0 01-14.242-4.353v-6.163a21.047 21.047 0 0014.063 3.874c11.637-.971 20.281-11.192 19.31-22.828a21.338 21.338 0 00-.602-3.548h5.948c.184.606.348 1.224.488 1.849.252 1.132.432 2.293.53 3.481a25.452 25.452 0 01-2.62 13.588 25.698 25.698 0 01-8.967 10.007 25.348 25.348 0 01-7.802 3.363 25.881 25.881 0 01-6.106.73" fill="#4e98c7"/><path d="M721.785 213.197c-4.865-3.484-8.228-9.002-8.765-15.433-.972-11.636 7.672-21.857 19.307-22.83.598-.049 1.193-.074 1.784-.074 9.68 0 18.064 6.605 20.445 15.835h-8.395c.218-.308.33-.658.299-1.02-.083-.978-1.165-1.698-2.483-1.698-.1 0-.201.004-.305.014-1.452.121-2.557 1.072-2.468 2.125.017.205.079.4.177.579h-19.596v22.502m1.85-31.392c-.8 0-1.704.247-2.558.748-1.869 1.099-2.786 3.008-2.048 4.263.402.683 1.208 1.032 2.162 1.032.801 0 1.706-.247 2.56-.748 1.868-1.099 2.786-3.008 2.048-4.263-.402-.682-1.21-1.032-2.164-1.032m16.093 1.171c-.059 0-.119.001-.18.007-.805.068-1.421.566-1.376 1.116.043.506.635.877 1.361.877.06 0 .12-.003.183-.008.805-.067 1.421-.567 1.376-1.115-.043-.506-.636-.877-1.364-.877" fill="#63a7d3"/><path d="M734.064 217.145c-4.54 0-8.793-1.452-12.279-3.948v-22.502h19.596c.371.669 1.266 1.118 2.306 1.118.1 0 .202-.004.305-.013.952-.079 1.755-.516 2.17-1.105h8.394c.296 1.145.499 2.33.601 3.548.972 11.636-7.672 21.857-19.309 22.828-.599.05-1.195.074-1.784.074m3.05-24.778c-.045 0-.089.001-.133.005-.644.053-1.134.49-1.093.975.037.449.52.782 1.108.782.043 0 .088-.002.132-.005.645-.053 1.136-.49 1.095-.973-.038-.451-.522-.784-1.11-.784" fill="#5ea0cc"/><path d="M746.161 190.695h-4.78a1.443 1.443 0 01-.177-.579c-.09-1.053 1.016-2.004 2.468-2.125.104-.01.205-.014.305-.014 1.318 0 2.4.72 2.483 1.698.03.362-.081.712-.299 1.02" fill="#83b5ce"/><path d="M743.687 191.813c-1.04 0-1.935-.449-2.306-1.118h4.78c-.414.589-1.217 1.026-2.169 1.105-.103.01-.205.013-.305.013M736.996 194.13c-.588 0-1.07-.334-1.108-.783-.041-.486.45-.922 1.093-.975.044-.004.088-.005.132-.005.588 0 1.072.333 1.11.784.041.482-.45.92-1.095.973-.044.003-.09.005-.132.005" fill="#7bacc6"/><path d="M739.533 184.976c-.726 0-1.318-.37-1.361-.877-.045-.55.57-1.048 1.376-1.116.061-.006.121-.007.18-.007.728 0 1.321.37 1.364.877.045.548-.57 1.048-1.376 1.115a2.139 2.139 0 01-.183.008M721.19 187.848c-.953 0-1.76-.35-2.16-1.032-.74-1.255.178-3.164 2.047-4.263.854-.501 1.758-.748 2.558-.748.954 0 1.762.35 2.164 1.032.738 1.255-.18 3.164-2.048 4.263-.854.501-1.759.748-2.56.748" fill="#83b5ce"/></svg>